<svg><defs><font id="MonoSocialIconsFont" horiz-adv-x="850"><font-face font-family="MonoSocialIconsFont" font-weight="400" units-per-em="1024" panose-1="2 0 5 3 0 0 0 2 0 4" ascent="819" descent="-205" x-height="547" cap-height="781.001" bbox="-39.001 -234.004 1055 859.001" underline-thickness="51" underline-position="-102" unicode-range="U+0020-U+E499"/><glyph glyph-name="fivehundredpx" unicode="fivehundredpx" d="M605 354c29.333 0 50.168-9 62.501-27s18.5-39.333 18.5-64c0-24-6.167-45.167-18.5-63.5S634.335 172 605.002 172c-14.667 0-27.667 2.667-39 8s-21 11.666-29 18.999c-9.333 8-17.666 17.333-24.999 28-6.667-10.667-14.334-20-23.001-28-7.333-7.333-16.833-13.666-28.5-18.999s-25.5-8-41.5-8-29 2.5-39 7.5-17.667 10.5-23 16.5c-6.667 7.333-11.334 15.666-14.001 24.999-4-9.333-10-17.666-18-24.999-7.333-6-16.833-11.5-28.5-16.5s-27.167-7.5-46.5-7.5-34.666 4-45.999 12-20 17-26 27c-7.333 12-12.333 25.333-15 40h52c1.333-6.667 3.666-12.667 6.999-18 3.333-4.667 7.5-8.834 12.5-12.501s12.167-5.5 21.5-5.5c11.333 0 22 5 32 15s15 21 15 33-3.167 23.167-9.5 33.5-16.833 15.5-31.5 15.5c-7.333 0-13.5-1.333-18.5-4s-9.167-5.667-12.5-9c-4-3.333-7.333-7.333-10-12h-52l29 146h139v-48h-104l-12-55c3.333 3.333 7.666 6.333 12.999 9 4.667 2 10.167 4 16.5 6s14.166 3 23.499 3c13.333 0 24.333-2.5 33-7.5s15.667-10.5 21-16.5c6.667-7.333 11.667-15.333 15-24 2.667 10 7.334 19 14.001 27 5.333 6.667 13 12.834 23 18.501s23 8.5 39 8.5 29.833-3.167 41.5-9.5 21.167-13.166 28.5-20.499c8.667-8.667 16.334-18.667 23.001-30 7.333 11.333 15.666 21.333 24.999 30 8 7.333 17.667 14.166 29 20.499s24.333 9.5 39 9.5zM425.002 221c7.333 0 14.5 2.168 21.5 6.501s13.167 9.166 18.5 14.499c6.667 6 12.667 13 18 21-5.333 7.333-11.333 14.333-18 21-5.333 5.333-11.5 10.333-18.5 15s-14.167 7-21.5 7c-14.667 0-26.167-4.167-34.5-12.5s-12.5-18.5-12.5-30.5 4.167-22 12.5-30 19.833-12 34.5-12zm174 .001c14.667 0 26 3.999 34 11.999s12 18 12 30-4 22.167-12 30.5-19.333 12.5-34 12.5c-7.333 0-14.5-2.333-21.5-7s-13.167-9.667-18.5-15c-6.667-6.667-12.667-13.667-18-21 5.333-8 11.333-15 18-21 5.333-5.333 11.5-10.166 18.5-14.499s14.167-6.5 21.5-6.5z"/><glyph glyph-name="aboutme" unicode="aboutme" d="m163 195-.002 209.001h32v-29c7.333 10.667 16.333 18.667 27 24 10.667 6.667 23 10 37 10 16.667 0 29.667-3.333 39-10 10-6 17-15 21-27 16.667 24.667 38.334 37 65.001 37 21.333 0 37.666-5.667 48.999-17 11.333-12.667 17-30.334 17-53.001V195h-36v132c0 14-1 24-3 30-3.333 7.333-7.666 12.333-12.999 15-6 4-13.333 6-22 6-14.667 0-27-5-37-15-9.333-8.667-14-24-14-46V195h-36v136c0 15.333-3 27-9 35s-15.667 12-29 12c-9.333 0-18.666-2.667-27.999-8-9.333-6-15.333-13.667-18-23-4-10-6-24.333-6-43V195h-36zm484.998 68.001 36.999-4.999c-6-21.333-16.667-38-32-50-16.667-11.333-37-17-61-17-31.333 0-56 9.333-74 28s-27 45-27 79c0 35.333 9.333 62.666 28 81.999 18 19.333 41.667 29 71 29 28 0 51-9.667 69-29s27-46 27-80v-9h-158c.667-23.333 7.334-41 20.001-53 12-12 26.667-18 44-18 14 0 25.333 3.333 34 10s16 17.667 22 33zm-118.001 57.001h118c-.667 16-5 29-13 39-12 14-27 21-45 21-16 0-29.667-5.667-41-17-12-12-18.333-26.333-19-43z"/><glyph glyph-name="addme" unicode="addme" d="M634 357V252H477V96H372v156H215v105h157v157h105V357h157z"/><glyph glyph-name="amazon" unicode="amazon" d="M636 141c-7.333-6.667-14.668-11.668-22.001-15.001-28-17.333-58.667-30.5-92-39.5s-66-13.5-98-13.5c-50 0-97 9.167-141 27.5s-83 43.5-117 75.5c-3.333 2.667-4.166 5.167-2.499 7.5s4.167 2.5 7.5.5c37.333-22 78-39.333 122-52s89.667-19 137-19c30 0 60.5 2.833 91.5 8.5S583.333 136.333 614 149c2 1.333 4.167 2.333 6.5 3s4.5 1.667 6.5 3c5.333 2 9.333 1 12-3s1.667-7.667-3-11zm47.998 47.999c-2.667 3.333-11.165 5.668-25.498 7.001s-29.166-.334-44.499-5.001c-8.667-3.333-16.334-7.333-23.001-12-2.667-2-3.834-3.833-3.501-5.5s1.833-2.5 4.5-2.5c3.333.667 6.833 1.167 10.5 1.5s7.5.833 11.5 1.5c9.333.667 18.5.834 27.5.501s15.167-2.166 18.5-5.499c2-2 2.5-5.833 1.5-11.5s-2.5-12-4.5-19-4.167-13.833-6.5-20.5-4.5-12.334-6.5-17.001c-1.333-2.667-1-4.334 1-5.001s4.333 0 7 2c11.333 10 19.666 23 24.999 39s8.333 29 9 39v3c0 4-.667 7.333-2 10zM572 255.001c-5.333-5.333-12.336-11.664-21.003-18.997l-22-19c-4-2.667-8.667-3-14-1-9.333 8-15.666 14.5-18.999 19.5s-7.666 11.167-12.999 18.5c-16.667-18.667-34-31-52-37-13.333-3.333-26.666-5-39.999-5-23.333 0-43.166 7.5-59.499 22.5s-24.5 37.5-24.5 67.5c0 23.333 5.5 43 16.5 59s25.5 28 43.5 36c9.333 4.667 19.5 8.167 30.5 10.5s22.167 4.166 33.5 5.499c7.333 1.333 14.5 2.166 21.5 2.499s13.5.833 19.5 1.5v8c0 7.333-.167 14.666-.5 21.999s-2.166 14-5.499 20c-3.333 5.333-8 9.166-14 11.499s-12 3.5-18 3.5h-3c-10-1.333-18.833-4.666-26.5-10s-12.834-13.665-15.5-24.998c-1.334-6.667-4.667-10.334-10-11.001l-55 7c-1.333.667-3.166 1.834-5.499 3.5s-2.833 4.5-1.5 8.5c2.667 16 7.834 29.5 15.501 40.5s16.667 20 27 27 21.666 12.168 33.999 15.5 24.833 5.334 37.5 6h11c13.333 0 28-2.166 44-6.5s29.667-11.832 41-22.5c13.333-13.332 20.666-28.5 21.999-45.5s2-35.166 2-54.5v-91c0-13.332 2.333-23.832 7-31.5s9.667-15.166 15-22.5c1.333-2.666 2.166-5.333 2.5-8s-.835-5-3.502-7zM471.997 358.003l.003 11.999c-7.333 0-14.5-.333-21.5-1s-13.5-1.667-19.5-3c-12-3.333-22-9.166-30-17.499s-12-20.5-12-36.5c0-13.333 2.833-23.833 8.5-31.5s14.167-11.5 25.5-11.5c1.333 0 2.666.167 3.999.5s2.666.5 3.999.5c13.333 3.333 23.666 12.333 30.999 27 5.333 10 8.333 19.833 9 29.5s1 20.167 1 31.5z"/><glyph glyph-name="aol" unicode="aol" d="M483 564c18 0 33.167-6.167 45.5-18.5s18.5-27.166 18.5-44.499-6.167-32-18.5-44-27.5-18-45.5-18c-17.333 0-32.333 6-45 18s-19 26.667-19 44 6.333 32.166 19 44.499 27.667 18.5 45 18.5zM229 173l10.01 3c7.334 2 15.834 5 25.5 9s19.668 9.5 30 16.5 20.167 15.667 29.5 26 17.666 22.833 24.999 37.5c1.333 1.333 2.166 3.666 2.499 6.999s1.166 9.666 2.499 18.999c3.333 36.667 10.5 65.5 21.5 86.5s27.5 37.833 49.5 50.5l5 2 5-3c11.333-6 21.666-10 30.999-12l8-1v-14c0-1.333.333-2 1-2 0-4 .333-6.333 1-7l1-3 4-2c12-4 24.667-6 38-6 12 0 23.167 1.333 33.5 4s19.166 5.667 26.499 9l9 4 27-61-8-4c-18.667-9.333-35.334-16.166-50.001-20.499s-28.667-6.5-42-6.5c-6.667 0-12.834.333-18.501 1l-17.5 2h-4c-1.333 0-2.333.167-3 .5s-1.334.5-2.001.5c-1.333 0-2.5-.333-3.5-1s-1.833-3-2.5-7c-.667-.667 0-1.667 2-3l1-1 1-1c1.333 0 2.333-.333 3-1 63.333-31.333 111.666-80.333 144.999-147l5-8-67-38-5 9c-3.333 5.333-7.833 12-13.5 20s-13.334 16.333-23.001 25S491.333 173.333 478 182s-29 17-47 25l-4 2c-2 0-3.333-1-4-3l-7-9-23-28.5c-8-9.667-17.667-19-29-28s-24.833-17.333-40.5-25S289 101.333 267 96l-9-3z"/><glyph glyph-name="appstorealt" unicode="appstorealt" d="M425 561c36 0 69.833-6.833 101.5-20.5s59.334-32.334 83.001-56.001 42.334-51.334 56.001-83.001 20.5-65.5 20.5-101.5-6.833-70-20.5-102-32.334-59.833-56.001-83.5-51.334-42.334-83.001-56.001-65.5-20.5-101.5-20.5-70 6.833-102 20.5-59.833 32.334-83.5 56.001-42.334 51.5-56.001 83.5-20.5 66-20.5 102 6.833 69.833 20.5 101.5 32.334 59.334 56.001 83.001S291 526.833 323 540.5 389 561 425 561zm0-497c32.667 0 63.167 6.167 91.5 18.5s53.166 29.166 74.499 50.499 38.166 46.333 50.499 75 18.5 59.334 18.5 92.001-6.167 63.167-18.5 91.5-29.166 53.166-50.499 74.499-46.166 38.166-74.499 50.499-58.833 18.5-91.5 18.5-63.334-6.167-92.001-18.5-53.667-29.166-75-50.499-38.166-46.166-50.499-74.499S189 332.667 189 300s6.167-63.334 18.5-92.001 29.166-53.667 50.499-75 46.333-38.166 75-50.499S392.333 64 425 64zm-53 393h105V274h78L425 143 294 274h78v183z"/><glyph glyph-name="appstore" unicode="appstore" d="M417 419c3.333-1.333 5.333-3.669 6-7.002s.334-6.333-.999-9l-144-250c-4-7.333-9.333-8.666-16-3.999l-31 17c-2.667 2-4.5 4.5-5.5 7.5s-.5 6.167 1.5 9.5l143 249c1.333 3.333 3.666 5.333 6.999 6s6.333.334 9-.999zM252 134.997c7.333-4 7.333-8.333 0-13l-39-27c-3.333-2-5.833-2.5-7.5-1.5s-2.167 3.167-1.5 6.5l5 47c1.333 7.333 5.333 9.333 12 6zm205 214 45-105H359l67 105h31zm-228-105-54 .001c-3.333 0-6.166 1-8.499 3s-3.5 4.667-3.5 8v85c0 3.333 1.167 5.666 3.5 6.999s5.166 2 8.499 2h119zm445 105.001c8 0 12-3 12-9v-85c0-7.333-4-11-12-11h-52l-53 105h105zm-84-92c4-6.667 3.501-12.667-1.499-18s-9.5-8.666-13.5-9.999c-4.667-2-8.667-3.5-12-4.5s-8 .167-14 3.5c-3.333 1.333-9 10.166-17 26.499l-26.5 55-27.5 60.5-19 44-16.5 37c-7 15.333-13.5 30.666-19.5 45.999s-10.5 28.833-13.5 40.5-2.5 18.5 1.5 20.5c2.667 1.333 7-2 13-10s12.667-18.167 20-30.5l23.5-40c8.333-14.333 16.166-27.166 23.499-38.499l27-46.5 31-57 26.5-51c7.667-15 12.5-24.167 14.5-27.5zm18.001-99c-3.333-1.333-6.833-1.665-10.5-.998s-6.167 2.667-7.5 6l-19 29c-2 3.333-2.667 6.666-2 9.999s2.667 5.666 6 6.999l18 9c7.333 4 13.333 2 18-6l14-28c2-3.333 2.5-6.833 1.5-10.5s-3.167-6.167-6.5-7.5zm6-7.999c13.333 7.333 23.167 8.167 29.5 2.5s10.5-13.5 12.5-23.5c2.667-12 3.334-26.667 2.001-44-1.333 3.333-3.833 6-7.5 8s-7.834 4-12.501 6-9.5 4.333-14.5 7-9.167 6.334-12.5 11.001c-6.667 9.333-8.5 16.666-5.5 21.999s5.833 9 8.5 11z"/><glyph glyph-name="apple" unicode="apple" d="M556 326c0-18 3.333-33.004 10-45.004s14-21.667 22-29 15.5-12.666 22.5-15.999l10.5-5c-.667-1.333-3.5-8.666-8.5-21.999s-13.5-28.333-25.5-45c-10-14.667-20.5-27.834-31.5-39.5s-24.833-17.835-41.5-18.502c-8 0-15 .833-21 2.5s-11.833 3.834-17.5 6.501-11.667 5-18 7-14.166 3-23.499 3-17.166-1-23.499-3-12.333-4.167-18-6.5-11.334-4.5-17.001-6.5-12.5-3.333-20.5-4c-15.333-.667-29.333 5.5-42 18.5s-24 26.833-34 41.5-19.333 31.834-28 51.501-14.834 40.167-18.501 61.5-4.5 42.833-2.5 64.5 8.333 41.5 19 59.5 24.667 32.167 42 42.5 36.333 15.833 57 16.5c8 0 15.833-1 23.5-3s14.834-4.167 21.501-6.5 13-4.666 19-6.999 11.333-3.5 16-3.5 10.334 1.333 17.001 4 14 5.334 22 8.001 16.5 5 25.5 7 18.167 2.667 27.5 2c4 0 9.5-.5 16.5-1.5s14.667-3.167 23-6.5 16.666-8 24.999-14 16.166-14 23.499-24c-.667-.667-3.667-2.834-9-6.5s-11.333-9.168-18-16.5-12.5-16.667-17.5-28-7.5-24.333-7.5-39zm-61 174.996c-8-10-18.5-18.333-31.5-25s-26.167-9.334-39.5-8.001c-2 13.333-.167 26.5 5.5 39.5s12.5 23.833 20.5 32.5c8.667 10 19.5 18.333 32.5 25s25.833 10.334 38.5 11.001c1.333-14-.5-27.5-5.5-40.5s-11.833-24.5-20.5-34.5z"/><glyph glyph-name="bebo" unicode="bebo" d="M448 92h-46.998c-25.333 0-49.333 5.167-72 15.5s-42.5 24.166-59.5 41.499-30.333 37.5-40 60.5-14.5 47.167-14.5 72.5v235c0 13.333 5.5 24.333 16.5 33s23.167 13 36.5 13c12.667 0 24.5-4.333 35.5-13s16.5-19.667 16.5-33v-235c0-25.333 7.167-45.833 21.5-61.5s34.166-23.5 59.499-23.5h47c12.667 0 24.667 2 36 6s21.166 9.5 29.499 16.5 15 15.167 20 24.5 7.5 19.666 7.5 30.999c0 22.667-5 41.5-15 56.5s-20.667 22.5-32 22.5h-93c-12.667 0-23.5 3.333-32.5 10S355 380.332 355 392.999s4.5 22.334 13.5 29.001 19.833 10 32.5 10h93c19.333 0 37.5-4.333 54.5-13s31.833-20.667 44.5-36 22.667-33.333 30-54 11-43 11-67c0-23.333-4.833-45.333-14.5-66s-23-38.667-40-54-36.833-27.5-59.5-36.5S473.333 92 448 92z"/><glyph glyph-name="behance" unicode="behance" d="M402 422c8.667-12.667 12.999-28.67 12.999-48.003s-4.333-34.666-13-45.999c-2.667-3.333-5.667-6.333-9-9s-7.666-5.667-12.999-9c15.333-6 26.333-15.333 33-28 8-12 12-27 12-45s-4.333-34.667-13-50c-6-10.667-12.667-19-20-25-8.667-7.333-19.667-12.666-33-15.999-6-1.333-12.333-2.333-19-3s-13.667-1-21-1H189v314h139c35.333-1.333 60-12.666 74-33.999zm-134.001-19.003-.002-77.999h48c6.667 0 12.5 1.167 17.5 3.5s9.5 4.833 13.5 7.5c7.333 5.333 11 15.333 11 30 0 7.333-1.167 13.666-3.5 18.999s-6.166 9-11.499 11c-4.667 2-9.667 3.667-15 5s-11.666 2-18.999 2h-41zm-.002-129.999v-78.999h48c11.333 0 21 2.333 29 7 12.667 6.667 19 19.667 19 39 0 8.667-1.5 15.167-4.5 19.5s-7.5 8.166-13.5 11.499c-3.333 1.333-7.5 2-12.5 2h-65.5zm340 94.001c13.333-6.667 24.665-17.663 33.998-32.996 4-6.667 7.333-13.5 10-20.5s4.667-15.167 6-24.5c0-2.667.167-6.334.5-11.001s.5-9.334.5-14.001c0-6 .333-12 1-18h-144c.667-13.333 2.667-23.5 6-30.5s8.333-12.833 15-17.5c3.333-2.667 7.5-4.834 12.5-6.501s10.167-2.5 15.5-2.5c6 0 11.333 1.333 16 4s9 5.667 13 9c2 2 3.833 3.167 5.5 3.5s3.167 5.166 4.5 14.499h53c-.667-9.333-2.667-17-6-23s-7.666-12.667-12.999-20c-9.333-10.667-20.166-19-32.499-25s-26.166-9-41.499-9c-26.667 0-50 9-70 27s-30 47.333-30 88c0 38 9 67.667 27 89 18 20 41.667 30 71 30 17.333 0 32.666-3.333 45.999-10zm-77.001-54.996c-3.333-4.667-6.168-8.999-8.501-12.999s-4.166-12.667-5.499-26h89c-.667 13.333-2 22.166-4 26.499s-5.333 8.5-10 12.5c-8 8-18 12-30 12-14 0-24.333-4-31-12zm76.998 91.001h-105v53h105v-53z"/><glyph glyph-name="bing" unicode="bing" d="M425 414c32.667 0 63.168-4.335 91.501-13.002s53.166-20.5 74.499-35.5 38.166-32.667 50.499-53 18.5-41.833 18.5-64.5c0-23.333-6.167-45-18.5-65s-29.166-37.667-50.499-53-46.166-27.333-74.499-36-58.833-13-91.5-13c-32 0-62.167 4.167-90.5 12.5s-53 19.833-74 34.5-37.833 31.834-50.5 51.501S190.667 220.333 190 243h-1v309h79V363c14.667 10 28.5 18.333 41.5 25s25.667 12 38 16 24.833 6.667 37.5 8 26 2 40 2zm.001-277.002c20.667 0 40 3 58 9s33.667 14 47 24 24 21.667 32 35 12 27.666 12 42.999-4 29.666-12 42.999-18.667 25-32 35-29 18-47 24-37.333 9-58 9-40.167-3-58.5-9-34.166-14-47.499-24-24-21.667-32-35-12-27.666-12-42.999 4-29.666 12-42.999 18.667-25 32-35 29.166-18 47.499-24 37.833-9 58.5-9zm99 112c0-10-2.666-19.333-7.999-28s-12.5-16.334-21.5-23.001-19.5-11.834-31.5-15.501-24.667-5.5-38-5.5c-14 0-27 1.833-39 5.5s-22.5 8.834-31.5 15.501-16 14.334-21 23.001-7.5 18-7.5 28c0 20.667 9.5 38 28.5 52s42.5 21 70.5 21c27.333 0 50.666-7 69.999-21s29-31.333 29-52z"/><glyph glyph-name="blip" unicode="blip" d="M215 385c40 0 77.998-7.831 113.998-23.498s67.333-36.834 94-63.501 47.834-57.834 63.501-93.501 23.5-73.5 23.5-113.5h-86c0 28-5.167 54.833-15.5 80.5S383.333 219.667 364 239s-42 34.333-68 45-53 16-81 16v85zm-.002 150.002c60.667 0 118.001-11.668 172.001-35.001s101.333-55.166 142-95.499 72.667-87.5 96-141.5 35-111.333 35-172h-85c0 49.333-9.5 95.833-28.5 139.5s-44.833 81.667-77.5 114-70.834 58-114.501 77-90.167 28.5-139.5 28.5v85zm-25.999-418.001 26 26v78l131-130h-78l-26-27z"/><glyph glyph-name="blogger" unicode="blogger" d="m660 330-.998-120c0-20.667-4-40-12-58s-18.667-33.667-32-47-29-23.833-47-31.5-37.333-11.5-58-11.5h-171c-20.667 0-40 3.833-58 11.5s-33.833 18.167-47.5 31.5-24.5 29-32.5 47-12 37.333-12 58v173c0 20.667 4 40 12 58s18.833 33.667 32.5 47 29.5 24 47.5 32 37.333 12 58 12h104c9.333-1.333 19.666-4.166 30.999-8.499s22.333-10 33-17 20.5-15.333 29.5-25 16.167-19.834 21.5-30.501c1.333-3.333 2.666-6 3.999-8s2.5-4.667 3.5-8 2-7.666 3-12.999 2.167-12.333 3.5-21l3.5-24.5c1-7 3.833-12.5 8.5-16.5 2.667-2.667 7.167-4.334 13.5-5.001s12.833-1 19.5-1 13-.167 19-.5 10-1.5 12-3.5l7-5 4-8zm-318.998 81c-8 0-14.833-2.833-20.5-8.5s-8.5-12.5-8.5-20.5c0-7.333 2.833-13.833 8.5-19.5s12.5-8.5 20.5-8.5h82c8 0 14.833 2.833 20.5 8.5s8.5 12.167 8.5 19.5c0 8-2.833 14.833-8.5 20.5s-12.5 8.5-20.5 8.5h-82zm168-227c7.333 0 13.833 2.833 19.5 8.5s8.5 12.167 8.5 19.5c0 8-2.833 14.833-8.5 20.5s-12.167 8.5-19.5 8.5h-168c-8 0-14.833-2.833-20.5-8.5s-8.5-12.5-8.5-20.5c0-7.333 2.833-13.833 8.5-19.5s12.5-8.5 20.5-8.5h168z"/><glyph glyph-name="coroflot" unicode="coroflot" d="M528 306c26.667 0 49.333-9.333 68-28s28-41.334 28-68.001c0-12.667-2.333-24.667-7-36s-11.167-21.166-19.5-29.499-18-15.166-29-20.499-22.833-8.333-35.5-9c2.667 8.667 4 19 4 31 0 28-7.833 53.167-23.5 75.5S477.333 259.667 452 269c9.333 11.333 20.5 20.333 33.5 27s27.167 10 42.5 10zm-122.001-57c14 0 27.333-2.667 40-8s23.667-12.666 33-21.999 16.666-20.333 21.999-33 8-26 8-40-2.667-27.333-8-40-12.666-23.667-21.999-33-20.333-16.666-33-21.999-26-8-40-8-27.333 2.667-40 8-23.667 12.666-33 21.999-16.666 20.333-21.999 33-8 26-8 40 2.667 27.333 8 40 12.666 23.667 21.999 33 20.333 16.666 33 21.999 26 8 40 8zm-31-86c6.667 0 12.167 2.167 16.5 6.5s6.5 9.833 6.5 16.5c0 6-2.167 11.167-6.5 15.5s-9.833 6.5-16.5 6.5-12.167-2.167-16.5-6.5-6.5-9.5-6.5-15.5c0-6.667 2.167-12.167 6.5-16.5s9.833-6.5 16.5-6.5zm-11 107c.667 22-.834 42.168-4.501 60.501s-8.667 33.833-15 46.5-13.833 22.334-22.5 29.001-18 9.667-28 9c-19.333-2-36-2.333-50-1s-20 7-18 17c.667 4.667 3 7.5 7 8.5s8.167 1.5 12.5 1.5 8.5.667 12.5 2 6.333 5.333 7 12c.667 6 .5 11.333-.5 16s-1.667 9-2 13 .5 7.667 2.5 11 6.333 6.666 13 9.999c6 3.333 11.167 4.166 15.5 2.499s7.666-5.167 9.999-10.5 3.833-11.833 4.5-19.5.667-15.5 0-23.5c22.667 5.333 44.5 3.666 65.5-5s39.833-20.5 56.5-35.5 31.167-30.668 43.5-47 21.5-29.5 27.5-39.5c-3.333-1.334-6.5-2.334-9.5-3s-6.167-1.668-9.5-3c-16.667 26-32.667 46.666-48 62s-29.666 27-42.999 35-25.666 12.832-36.999 14.5-21 2.166-29 1.5c14.667-11.334 26.5-24.834 35.5-40.5s16-31.168 21-46.5 8.333-29.5 10-42.5 2.5-22.168 2.5-27.5c-12-1.334-22-3.667-30-7z"/><glyph glyph-name="daytum" unicode="daytum" d="M255 58h-52v157h52V58zm79 0h-53v261h53V58zm78 0h-52v209h52V58zm79 0h-53v366h53V58zm78 0h-52v261h52V58zm78 0h-52v418h52V58zm0 445c0-.667-.333-1-1-1H204l-1 1v51c0 .667.333 1 1 1h442l1-1v-51z"/><glyph glyph-name="delicious" unicode="delicious" d="M634 300H425v209h209V300zM425 91H215v209h210V91z"/><glyph glyph-name="designbump" unicode="designbump" d="M398 388v52h-52l105 105 104-105h-52V284zm0-209v105h105zm0-52h53V74h-53v53zm27 183h-53V74H268v236h-53l105 104zm209-157h-53V74H477v79h-52l104 104z"/><glyph glyph-name="designfloat" unicode="designfloat" d="M298 247c3.333-13.333 7.832-24 13.499-32s11.834-14.5 18.501-19.5 13.667-9.167 21-12.5l21-10v-52c-19.333 4-36 9.167-50 15.5S296 151 286 161s-18.167 22-24.5 36-11.5 30.667-15.5 50h52zm73.999 180c-13.333-7.333-27.331-19.5-41.998-36.5S304.667 352 298 326h-52c8 38.667 21.167 71.667 39.5 99s47.166 45.333 86.499 54v-52zm180.002-101c-14 53.333-47.667 87-101 101v52c39.333-8.667 72.5-26.5 99.5-53.5s44.833-60.167 53.5-99.5h-52zm-20-26c0-15.333-2.833-29.5-8.5-42.5s-13.334-24.333-23.001-34-21-17.334-34-23.001-26.833-8.5-41.5-8.5c-15.333 0-29.5 2.833-42.5 8.5s-24.333 13.334-34 23.001-17.334 21-23.001 34-8.5 27.167-8.5 42.5c0 14.667 2.833 28.5 8.5 41.5s13.334 24.333 23.001 34 21 17.334 34 23.001 27.167 8.5 42.5 8.5c14.667 0 28.5-2.833 41.5-8.5s24.333-13.334 34-23.001 17.334-21 23.001-34 8.5-26.833 8.5-41.5zm-107-84c23.333 0 43 8.167 59 24.5s24 36.166 24 59.499-8 43-24 59-35.667 24-59 24-43.166-8-59.499-24-24.5-35.667-24.5-59 8.167-43.166 24.5-59.499 36.166-24.5 59.499-24.5zm0 319c32.667 0 63.167-6.167 91.5-18.5s53.166-29.166 74.499-50.499 38.166-46.166 50.499-74.499 18.5-58.833 18.5-91.5-6.167-63.334-18.5-92.001-29.166-53.667-50.499-75-46.166-38.166-74.499-50.499-58.833-18.5-91.5-18.5-63.334 6.167-92.001 18.5-53.667 29.166-75 50.499-38.166 46.333-50.499 75-18.5 59.334-18.5 92.001 6.167 63.167 18.5 91.5 29.166 53.166 50.499 74.499 46.333 38.166 75 50.499 59.334 18.5 92.001 18.5zm0-447c29.333 0 56.833 5.5 82.5 16.5s48 26.167 67 45.5 34 41.833 45 67.5 16.5 53.167 16.5 82.5-5.5 56.833-16.5 82.5-26 48.167-45 67.5-41.333 34.5-67 45.5-53.167 16.5-82.5 16.5-56.833-5.5-82.5-16.5-48.167-26.167-67.5-45.5-34.5-41.833-45.5-67.5-16.5-53.167-16.5-82.5 5.5-56.833 16.5-82.5 26.167-48.167 45.5-67.5 41.833-34.5 67.5-45.5 53.167-16.5 82.5-16.5zm26 85c12.667 3.333 24.502 6.666 35.502 9.999s20.667 7.5 29 12.5 15.666 11.5 21.999 19.5 11.166 18.667 14.499 32h52c-8.667-39.333-26.667-68.166-54-86.499s-60.333-31.5-99-39.5v52z"/><glyph glyph-name="deviantart" unicode="deviantart" d="m419 231-216.002-62c-10.667 26-15.334 51.333-14.001 76 .667 10.667 2.5 21.5 5.5 32.5s8 21.667 15 32 16.333 20.333 28 30 26.5 18.167 44.5 25.5l-27 56 67 7 23-45h3c58.667 10 107.834 11.333 147.501 4s71.834-17.666 96.501-30.999c28.667-15.333 51.334-34 68.001-56l-216-62-50 101c12 2.667 23.667 3.667 35 3s22-1.667 32-3l21-40 73 20c-18 11.333-37.333 20.666-58 27.999-18 6-38.667 10-62 12s-48.333-.667-75-8zm-85.002 28-33 65.999c-15.333-10-25.833-20-31.5-30s-9.167-19-10.5-27c-1.333-9.333-.333-18.666 3-27.999z"/><glyph glyph-name="diggalt" unicode="diggalt" d="M242 470h52V209H163v183h79v78zm0-209v78h-27v-78h27zm130 157h-52v52h52v-52zm0-209h-52v183h52V209zm26 183h131V130H398v53h79v26h-79v183zm53-131h26v78h-26v-78zm104 131h131V130H555v53h79v26h-79v183zm53-131h26v78h-26v-78z"/><glyph glyph-name="digg" unicode="digg" d="m686 417-.002-153.006h-52v-156h-231v156h-109v-26c18-1.333 34.167-8.166 48.5-20.499s21.5-27.166 21.5-44.499v-49c0-4.667-1.667-8.5-5-11.5s-7.666-4.5-12.999-4.5h-139c-5.333 0-9.666 1.5-12.999 4.5s-5 6.833-5 11.5v49c0 8.667 2.333 16.834 7 24.501s10.834 14.334 18.501 20.001 16.167 10.334 25.5 14.001S258.667 237.333 268 238v26H163v156c13.333 11.333 27 21.666 41 30.999 12 7.333 24.833 14.333 38.5 21s26.5 10 38.5 10c11.333 0 24-3.333 38-10s26.667-13.667 38-21c13.333-9.333 27-19.666 41-30.999v-3h27v109h183V417h78zM319.998 172.994c0 6-2.5 11.167-7.5 15.5s-11.167 6.5-18.5 6.5h-35c-7.333 0-13.5-2.167-18.5-6.5s-7.5-9.5-7.5-15.5v-22h87v22zm26 228c-12.667 11.333-25 20.5-37 27.5s-21.333 10.5-28 10.5-16-3.5-28-10.5-24.667-16.167-38-27.5v-84h131v84zm131-6h78v79h-78v-79zm157-22h-26v-30h-183v26h-27v-52h53v-157h56v78h22v-78h52v157h53v56z"/><glyph glyph-name="dribble" unicode="dribble" d="M425 63c-32.667 0-63.334 6.167-92.001 18.5s-53.667 29.166-75 50.499-38.166 46.333-50.499 75S189 266.333 189 299c0 32 6.167 62.333 18.5 91s29.166 53.667 50.499 75 46.333 38.166 75 50.499 59.334 18.5 92.001 18.5c32 0 62.333-6.167 91-18.5s53.667-29.166 75-50.499 38.166-46.333 50.499-75 18.5-59 18.5-91c0-32.667-6.167-63.334-18.5-92.001s-29.166-53.667-50.499-75-46.333-38.166-75-50.499S457 63 425 63zm-114 76c32.667-24 70.668-36 114.001-36 21.333 0 41.666 3.333 60.999 10-4 48.667-13.667 96-29 142-30-10-57.5-24.833-82.5-44.5S328.333 167 311 139zm185.001 126c6.667-21.333 12.333-43.333 17-66s8.334-45.667 11.001-69c24 14 44.167 32.167 60.5 54.5s27.166 47.5 32.499 75.5c-12 3.333-23.833 5.833-35.5 7.5s-23.167 2.5-34.5 2.5c-15.333 0-32.333-1.667-51-5zM229 290c2-48 19.334-89.332 52.001-123.999 19.333 30 43 55.667 71 77s58.667 37.666 92 48.999c-2.667 8.667-6.334 18-11.001 28-28.667-10.667-57.834-18.5-87.501-23.5s-59.5-7.5-89.5-7.5h-12.5c-4.333 0-9.166.333-14.499 1zm318.001 19.001c24 0 48.665-3.002 73.998-9.002 0 40-11.667 76.333-35 109-36-31.333-75-56.333-117-75 2.667-5.333 5-10.666 7-15.999s4.333-10.666 7-15.999c10.667 2.667 21.334 4.5 32.001 5.5s21.334 1.5 32.001 1.5zm-316.002 19.998c4-.667 8.001-1 12.001-1h13c54.667 0 107.667 9 159 27-22.667 42-49.334 81.333-80.001 118-28-14.667-51.167-34.667-69.5-60s-29.833-53.333-34.5-84zm143.001 159c15.333-18.667 29.5-37.833 42.5-57.5s24.833-39.834 35.5-60.501c19.333 8.667 38 18.834 56 30.501s35.667 24.5 53 38.5c-18.667 18-39.667 31.833-63 41.5s-47.666 14.5-72.999 14.5c-8.667 0-17.334-.667-26.001-2s-17-3-25-5z"/><glyph glyph-name="drupal" unicode="drupal" d="M529 478c3.333-2.667 10.667-8.002 22-16.002s23.166-19.5 35.499-34.5 23.333-33.5 33-55.5 14.5-48 14.5-78-5.667-57.333-17-82-26.5-45.667-45.5-63-41-30.833-66-40.5-51.5-14.5-79.5-14.5-54.667 5.167-80 15.5-47.666 24.5-66.999 42.5-34.833 39.5-46.5 64.5-17.5 52.167-17.5 81.5 5 54.833 15 76.5 21.333 39.667 34 54 25 25.666 37 33.999 20 13.5 24 15.5c10 5.333 19.333 10 28 14s19 10.667 31 20c5.333 4.667 10.166 10.834 14.499 18.501s7.5 19.167 9.5 34.5l25.5-29c9-10 17.167-17.667 24.5-23 11.333-7.333 22.833-13.166 34.5-17.499S516.333 485.333 529 478zm-264.999-88.002c1.333-.667 5.832-.334 13.499.999s20.167 6.666 37.5 15.999c17.333 10 30.5 18.667 39.5 26s18.167 16 27.5 26c5.333 5.333 8.666 9.5 9.999 12.5s2 5.167 2 6.5c0 2-2 3.667-6 5-2.667 1.333-2.667 2.333 0 3l7 3.5c3.333 1.667 5.666 3.167 6.999 4.5 1.333.667 3.833 2.834 7.5 6.501s5.834 8.167 6.501 13.5c0 10.667-1.333 21-4 31-2-15.333-5.167-26-9.5-32s-9.833-11.667-16.5-17c-10-7.333-19.5-13.333-28.5-18s-14.5-7.667-16.5-9c-3.333-1.333-8.166-3.833-14.499-7.5s-13.333-8.167-21-13.5-15.334-11.5-23.001-18.5-14.167-14.833-19.5-23.5c-3.333-5.333-4.166-9.166-2.499-11.499s2.834-3.833 3.501-4.5zm266.999-250c1.333 1.333 1.999 2.667 1.999 4v4c-1.333 3.333-3.666 3.666-6.999.999-4.667-3.333-12-6.666-22-9.999s-22.333-5-37-5c-15.333 0-26.833 1.333-34.5 4s-13.834 5.667-18.501 9c-.667.667-2 1-4 1s-4.333-1-7-3c-1.333-1.333-2-2.833-2-4.5s.667-3.167 2-4.5c10.667-9.333 23.334-14.5 38.001-15.5s28.334-.833 41.001.5 23.667 4.5 33 9.5 14.666 8.167 15.999 9.5zm-80.001 38.001c-5.333-4-6.332-7.667-2.999-11 1.333-2.667 5.666-1 12.999 5 4 3.333 7.833 6 11.5 8s9.5 3 17.5 3 13.333-1.167 16-3.5 4.667-4.833 6-7.5c2.667-4.667 5-6.334 7-5.001 4 .667 5.333 3.667 4 9-1.333 2-2.666 4.667-3.999 8s-3.666 6-7 8c-2.666 2-5.833 3.167-9.5 3.5s-7.5.5-11.5.5c-3.333 0-6.333-.167-9-.5s-6-1.166-10-2.499-7.833-3.5-11.5-6.5-6.834-5.833-9.501-8.5zm120.001 11c6-.667 11.168.667 15.501 4s9.166 8.666 14.499 15.999c5.333 8 9.333 17.5 12 28.5s4 20.167 4 27.5-2 15.333-6 24-11.667 13-23 13c-5.333 0-12-2.333-20-7l-24.5-15-24-15.5c-7.667-5-14.5-7.5-20.5-7.5-7.333 0-15 2.833-23 8.5l-26.5 18c-9.667 6.333-20.334 12.333-32.001 18s-24.167 8.5-37.5 8.5c-10.667 0-20.5-2-29.5-6s-17-9.167-24-15.5-12.5-13.666-16.5-21.999-6-16.833-6-25.5c-1.333-20 5.334-34.667 20.001-44 4.667-3.333 10-5.833 16-7.5s15.667-2.5 29-2.5c11.333 0 23.333 2.833 36 8.5s24.834 12 36.501 19l33 19c10.333 5.667 18.833 8.5 25.5 8.5 5.333 0 11.166-2.833 17.499-8.5l19.5-18 19-18c6-5.667 11-8.5 15-8.5z"/><glyph glyph-name="ebay" unicode="ebay" d="m738 431-84-156v-82h-64v82l-19 39v40c0 13.333-2.833 25-8.5 35s-19.167 16.667-40.5 20l-11 22h69l45-101 49 101h64zM499 264c6.667 0 11.833 1.999 15.5 5.999s6 9 7 15 1.5 12.167 1.5 18.5v16.5c-6-.667-11.5-1.167-16.5-1.5S497 317.333 493 316s-7-4-9-8-3-9.667-3-17c0-6 1-12 3-18s7-9 15-9zm1.999 145.999 11.002-.002a50.84 50.84 0 0 0 9.999-1l49-95v-44c0-5.333.167-10.666.5-15.999s.833-10.666 1.5-15.999h-46l-2 22c-5.333-8-11.5-14.167-18.5-18.5s-16.167-6.5-27.5-6.5c-5.333 0-9 .333-11 1v22c0 12-.667 25.333-2 40s-6 26.334-14 35.001c8 6.667 18.333 10.667 31 12s26 1.666 40 1v13c0 7.332-1 13.332-3 18s-7.667 7-17 7c-8.667 0-13.834-2.668-15.501-8s-2.5-11.334-2.5-18h-48c0 20 6 33.666 18 41 10 7.332 25.333 11 46 11zm-80.998-151.002c0 16.667-.667 30.334-2 41.001s-7.333 16-18 16c-10 0-15.833-5.333-17.5-16s-2.5-24.334-2.5-41.001c0-21.333 1.167-36.666 3.5-45.999s7.833-14 16.5-14 14.167 4.667 16.5 14 3.5 24.666 3.5 45.999zm13 30c0-13.333 2.667-24.832 8-34.499s14.333-15.834 27-18.501c-.667-8-1.667-15.833-3-23.5s-3.666-14.667-6.999-21-8-11.5-14-15.5-14-6-24-6c-20 0-33.667 7.333-41 22h-1v-18h-46v34c.667 0 1 .333 1 1 21.333 8.667 32.666 21.334 33.999 38.001h-35v17h36c1.333 15.333 0 29-4 41s-14.667 21.667-32 29v80h48v-89h1c5.333 7.333 11 12.333 17 15s13.333 4 22 4c7.333 0 13.5-1 18.5-3s9.5-4.667 13.5-8c-12.667-8.667-19-23.334-19-44.001zm-194 33.001c-10 0-17.669-1.334-23.002-4.001s-9.166-5.667-11.499-9-3.666-7.166-3.999-11.499-.5-7.833-.5-10.5h80c0 3.333-.167 7-.5 11s-1.666 7.833-3.999 11.5-6.333 6.667-12 9-13.834 3.5-24.501 3.5zm92.998-75.001v-39.001c-8-3.333-16.333-6-25-8-9.333-2-19.666-3.667-30.999-5s-23.666-2-36.999-2c-28.667 0-51.334 2-68.001 6s-29.5 9.5-38.5 16.5-14.833 15.333-17.5 25-4 20.167-4 31.5c0 10 1.167 19.667 3.5 29s8 17.333 17 24 21.833 12 38.5 16 39.667 6 69 6c14 0 26.5-.5 37.5-1.5s20.833-2.167 29.5-3.5c9.333-2 18-4.667 26-8v-70H200c0-4.667.167-9.5.5-14.5s1.833-9.667 4.5-14 6.667-8 12-11 12.666-4.5 21.999-4.5c16 0 26.333 2.833 31 8.5s7 11.834 7 18.501h55z"/><glyph glyph-name="email" unicode="email" d="m315 298-126-90v180zm345 168L425 298 189 466v61h471v-61zm0-78V208l-126 90zM507 279l153-110v-60H189v60l153 110 83-59z"/><glyph glyph-name="emberapp" unicode="emberapp" d="m593 249 14.002 16.001c-3.333-14-7.833-28-13.5-42s-13.5-27-23.5-39c-31.333-40.667-80-62-146-64-72.667 2.667-126.667 37.334-162 104.001v5c1.333 12 3.833 27.167 7.5 45.5s12.167 36.166 25.5 53.499c11.333 15.333 24.5 29.833 39.5 43.5l44.5 39.5c14 11.333 26.667 22.166 38 32.499s20.333 20.5 27 30.5l43-35.5c16-13.667 31.167-28.5 45.5-44.5s26.666-32.333 36.999-49 16.166-32.667 17.499-48zm33.002 138.001c-.667 3.333.328-1.831 2.995-15.498s4.167-31.834 4.5-54.501-1.667-47.667-6-75-13.833-53-28.5-77-36-44.5-64-61.5-65-26.167-111-27.5c-12.667.667-28.5 2.834-47.5 6.501s-38.5 11.667-58.5 24-39.167 30.5-57.5 54.5-33.5 56.333-45.5 97c2-2.667 4.333-4.667 7-6 4.667-3.333 9.334-4 14.001-2 2.667.667 4.334 5.167 5.001 13.5s2 18.833 4 31.5 5.333 26.5 10 41.5 12.334 29.833 23.001 44.5c13.333 18 28.833 34.667 46.5 50l50.5 43.5c16 13.667 29.833 26.5 41.5 38.5s17.834 23.333 18.501 34c30-22 57.333-44.667 82-68 21.333-20 41-42.333 59-67s28.667-48.667 32-72c4 5.333 7.333 10.666 10 15.999 2.667 4.667 4.834 9.667 6.501 15s2.167 10.666 1.5 15.999zm-18.005-115.997c0 8 .664 15.499 1.997 22.499s1.666 14.167 1 21.5l2-1-20-24-6 48c-1.334 15.333-7.167 31.333-17.5 48s-22.666 33-36.999 49-29.5 31-45.5 45-30.333 26-43 36c-6.667-10-15.667-20.333-27-31s-24-21.667-38-33l-44-39c-14.667-13.333-27.667-27.666-39-42.999-13.333-18-21.833-36.167-25.5-54.5s-6.167-33.5-7.5-45.5c-1.333-7.333-2.166-13.5-2.499-18.5s-2.166-9.167-5.499-12.5v-1c-1.333-1.333-2-2.333-2-3s-1-1.667-3-3c2-4.667 5.5-9.167 10.5-13.5s7.5-8.833 7.5-13.5c13.333-34.667 33.833-61.167 61.5-79.5s60.5-28.166 98.5-29.499c33.333 1.333 61.166 7.333 83.5 18s41.5 26 57.5 46c12.666 16 22.333 33.667 29 53s10 38.666 10 57.999z"/><glyph glyph-name="etsy" unicode="etsy" d="m346 496 .004-182.997h116c14 0 25.5 1.333 34.5 4s16.167 6.334 21.5 11.001c6 5.333 10.667 13.833 14 25.5s5.333 24.167 6 37.5h17v-183h-17c-2.667 25.333-6 41.666-10 48.999-4 8.667-11 15.667-21 21-10 6-25 9-45 9h-116v-148c0-12 .833-21.5 2.5-28.5s3.167-11.833 4.5-14.5 3.166-5.167 5.499-7.5 4.5-4.166 6.5-5.499c5.333-3.333 15.333-5 30-5h83c13.333 0 25 .667 35 2s18.333 3 25 5c6 2 12 5.167 18 9.5s12 9.5 18 15.5c7.333 8 14.833 18.667 22.5 32l22.5 40h15l-42-131h-377v27h18c5.333 0 10.833-.333 16.5-1s11.167.666 16.5 3.999c3.333 2 7.166 4 11.499 6s7.166 5 8.499 9 3 9.667 5 17 3 17.666 3 30.999v287c0 16.667-1.5 29.167-4.5 37.5s-6.167 14.166-9.5 17.499c-4 5.333-10.333 8.333-19 9s-18 1-28 1h-18v26h377l5-105h-14c-2.667 13.333-5.334 24-8.001 32s-5.667 14.667-9 20c-6 9.333-15 16.666-27 21.999-7.333 3.333-24.333 5-51 5H346z"/><glyph glyph-name="facebook" unicode="facebook" d="M491 409c-4.667 0-10.333-2.168-17-6.501s-10-10.833-10-19.5v-26h79v-104h-79v-210H360v210h-79v104h79v52c0 13.333 3 26.333 9 39s14.5 23.834 25.5 33.501S418.333 499 433 505s30.667 9 48 9h88V409h-78z"/><glyph glyph-name="feedburner" unicode="feedburner" d="M607 239c16.667-9.333 29.666-19.331 38.999-29.998s14-22.334 14-35.001c0-14-6.167-27.167-18.5-39.5S612.333 111.335 591 102.002s-46.333-16.666-75-21.999-59-8-91-8c-32.667 0-63.334 2.667-92.001 8s-53.667 12.666-75 21.999-38.166 20.166-50.499 32.499-18.5 25.5-18.5 39.5c0 13.333 5.167 25.5 15.5 36.5s24.5 21.167 42.5 30.5c13.333-44 34.833-78.167 64.5-102.5s64.5-36.833 104.5-37.5c20.667 0 41.167 3.667 61.5 11s39 17.166 56 29.499 32 27 45 44S601 220.333 607 239zM482.999 437.002c14-8 27.333-16.667 40-26s23.834-20.333 33.501-33 17.5-27.667 23.5-45 9-38 9-62c0-21.333-5-42-15-62s-23-38-39-54-34.5-28.833-55.5-38.5-42.5-14.5-64.5-14.5c-22.667 0-43.667 5.167-63 15.5s-36 24.833-50 43.5-25 41.167-33 67.5-12 55.833-12 88.5c0 23.333 3.667 48.333 11 75s16.833 52.334 28.5 77.001 25.167 47.334 40.5 68.001 31 36.667 47 48c-7.333-18.667-10.166-34.5-8.499-47.5s5.167-25.167 10.5-36.5 11.166-22.333 17.499-33 10.666-22.834 12.999-36.501 1.5-29.5-2.5-47.5-13.667-39.667-29-65c16-4.667 30.833-5 44.5-1s25.167 11.333 34.5 22 15.833 24.167 19.5 40.5 3.5 35.166-.5 56.499zm-68-301c34 .667 61.499 8.666 82.499 23.999s35.5 33.833 43.5 55.5 9.167 44 3.5 67-18.834 42.5-39.501 58.5c-7.333-31.333-18.666-57.833-33.999-79.5s-35.666-32.167-60.999-31.5c-11.333 0-22.5 3.5-33.5 10.5s-20.333 16.833-28 29.5-13 27.667-16 45-2.167 36 2.5 56c-21.333-35.333-33.333-67.5-36-96.5s.833-53.833 10.5-74.5 24-36.667 43-48 39.833-16.666 62.5-15.999z"/><glyph glyph-name="flickr" unicode="flickr" d="M660 299c0-14.667-2.833-28.334-8.5-41.001s-13.167-23.834-22.5-33.501-20.333-17.167-33-22.5-26.334-8-41.001-8c-14 0-27.333 2.667-40 8s-23.834 12.833-33.501 22.5-17.167 20.834-22.5 33.501-8 26.334-8 41.001 2.667 28.334 8 41.001 12.833 23.667 22.5 33 20.834 16.666 33.501 21.999 26 8 40 8c14.667 0 28.334-2.667 41.001-8s23.667-12.666 33-21.999 16.833-20.333 22.5-33S660 313.667 660 299zm-261 0c0-14.667-2.833-28.334-8.5-41.001s-13.167-23.834-22.5-33.501-20.333-17.167-33-22.5-26.334-8-41.001-8-28.334 2.667-41.001 8-23.834 12.833-33.501 22.5-17.167 20.834-22.5 33.501-8 26.334-8 41.001 2.667 28.334 8 41.001 12.833 23.667 22.5 33 20.834 16.666 33.501 21.999 26.334 8 41.001 8 28.334-2.667 41.001-8 23.667-12.666 33-21.999 16.833-20.333 22.5-33S399 313.667 399 299z"/><glyph glyph-name="foodspotting" unicode="foodspotting" d="M242 267h-53v262h53V267zM201 61v154h95v-26h-67v-36h58v-27h-58V61h-28zm112 57c0 10 2 19.666 6 28.999 5.333 9.333 11.666 16.333 18.999 21s16.333 7 27 7c14.667 0 27-5.333 37-16 10-11.333 15-25.333 15-42 0-17.333-5-31.333-15-42-10-11.333-22.333-17-37-17-7.333 0-16.333 2.333-27 7-7.333 4.667-13.666 11.667-18.999 21-4 8.667-6 19.334-6 32.001zm27-1.001c0-10.667 2.333-19.333 7-26 4.667-6 10.667-9 18-9s13 3 17 9c4.667 5.333 7 14 7 26 0 11.333-2.333 19.666-7 24.999-4 6-9.667 9-17 9s-13.333-3-18-9c-4.667-7.333-7-15.666-7-24.999zM432 118c0 10 2 19.666 6 28.999 4 8.667 10.333 15.667 19 21 7.333 4.667 16 7 26 7 15.333 0 28-5.333 38-16 10-11.333 15-25.333 15-42 0-17.333-5-31.333-15-42-10-11.333-22.333-17-37-17-5.333 0-10 .667-14 2s-8.333 3-13 5c-8.667 5.333-15 12.333-19 21s-6 19.334-6 32.001zm27-1.001c0-12 2.333-20.667 7-26 4.667-6 10.667-9 18-9 6 0 11.667 3 17 9 4.667 5.333 7 14 7 26 0 11.333-2.333 19.666-7 24.999-5.333 6-11 9-17 9-7.333 0-13.333-3-18-9-4.667-5.333-7-13.666-7-24.999zm190-56L624 61v16c-4.667-6.667-9.667-11.334-15-14.001-5.333-3.333-11-5-17-5-11.333 0-21 5.333-29 16-8.667 10.667-13 25-13 43 0 18.667 4 33 12 43s18.333 15 31 15c11.333 0 21-5 29-15v55h27v-154zM578 119c0-12 1.333-20.668 4-26.001 3.333-7.333 9.333-11 18-11 6.667 0 12 2.667 16 8 4 6 6 14.667 6 26 0 12.667-2 22-6 28s-9.333 9-16 9-12-3-16-9c-4-5.333-6-13.666-6-24.999zm30 409.999c14.667 0 27-5.167 37-15.5s15-22.5 15-36.5v-157c0-14.667-5-27.167-15-37.5s-22.333-15.5-37-15.5H346c-14 0-26.167 5.167-36.5 15.5s-15.5 22.833-15.5 37.5v157c0 14 5.167 26.167 15.5 36.5s22.5 15.5 36.5 15.5h53l26 52h104l26-52h53zm-131-235c14.667 0 28.334 2.667 41.001 8s23.667 12.666 33 21.999 16.833 20.333 22.5 33 8.5 26.334 8.5 41.001-2.833 28.334-8.5 41.001-13.167 23.667-22.5 33-20.333 16.833-33 22.5S491.667 503 477 503s-28.334-2.833-41.001-8.5-23.834-13.167-33.501-22.5-17.167-20.333-22.5-33-8-26.334-8-41.001 2.667-28.334 8-41.001 12.833-23.667 22.5-33 20.834-16.666 33.501-21.999 26.334-8 41.001-8zm52 104c0-14.667-5-27-15-37s-22.333-15-37-15-27 5-37 15-15 22.333-15 37 5 27 15 37 22.333 15 37 15 27-5 37-15 15-22.333 15-37z"/><glyph glyph-name="forrst" unicode="forrst" d="M640 85H446v86l87 43v21l-87-43v43l43 22v21l-43-21v42h-43v-85l-65 21v-21l65-22V85H209l216 471L640 85z"/><glyph glyph-name="foursquare" unicode="foursquare" d="m660 505 .003-7V328l-100-80 15-16-150-158-130 137c-14.667 0-28.334 3.167-41.001 9.5S230.168 235 220.5 245s-17.334 21.833-23.001 35.5-8.5 28.167-8.5 43.5c0 16 2.833 30.833 8.5 44.5s13.5 25.667 23.5 36 21.5 18.5 34.5 24.5 26.833 9 41.5 9c23.333 0 44.333-7.167 63-21.5s31.667-32.833 39-55.5l26 28 65-67 153 164zm-16.997-42L421.002 222l-38 68c4 10 6 21.333 6 34 0 13.333-2.333 26-7 38s-11.167 22.5-19.5 31.5-18.166 16-29.499 21-23.333 7.5-36 7.5-24.667-2.5-36-7.5-21.166-12-29.499-21-14.833-19.5-19.5-31.5-7-24.667-7-38 2.333-25.833 7-37.5 11.167-22 19.5-31 18.166-16 29.499-21 23.333-7.5 36-7.5c5.333 0 10.5.667 15.5 2l15.5 4 90-86 225 187v129z"/><glyph glyph-name="friendsfeed" unicode="friendsfeed" d="M455 384c0 16 2.67 30.833 8.003 44.5s12.666 25.667 21.999 36 20.333 18.5 33 24.5 26 9 40 9h68v-76h-68c-6.667 0-12.834-3.5-18.501-10.5S531 395.333 531 384v-45h76v-76h-76V80h-76v183h-78V80h-77v183h-76v76h76v45c0 16 2.667 30.833 8 44.5s12.666 25.667 21.999 36 20.333 18.5 33 24.5 26 9 40 9h69v-76h-69c-6.667 0-12.667-3.5-18-10.5s-8-16.167-8-27.5v-45h78v45z"/><glyph glyph-name="friendstar" unicode="friendstar" d="M647 394c6-7.333 10-18.167 12-32.5s1.333-30.833-2-49.5c-2-12.667-7.333-28-16-46s-21.334-35.5-38.001-52.5-37.334-31.833-62.001-44.5-53.667-19.334-87-20.001h-5c-42 0-76.833 13.167-104.5 39.5s-47.167 65.166-58.5 116.499c-3.333 16.667-10.333 29.834-21 39.501s-19.667 14.5-27 14.5h-49v49h67c12.667 0 24.334-2.667 35.001-8s20.167-12 28.5-20 15.5-16.667 21.5-26 10.667-18 14-26c1.333-2.667 2.333-5.167 3-7.5s1.667-5.166 3-8.499c4-10 6.833-20.667 8.5-32s5.334-22 11.001-32 14.5-18.667 26.5-26 30.333-12 55-14c23.333-1.333 42.5 2.667 57.5 12s27 21 36 35 15.5 28.5 19.5 43.5 6.667 27.5 8 37.5c4 21.333 8.333 37.333 13 48s14.667 16.667 30 18h3c7.333 0 13.333-2.667 18-8zm-221-87.001c-5.333.667-9.667 2.332-13 4.999s-6 5.667-8 9c-5.333 8.667-8.833 18.834-10.5 30.501s-.834 23.167 2.499 34.5c4.667 15.333 9.834 24.333 15.501 27s10.834 4 15.501 4c5.333 0 10.666-2.667 15.999-8s10.166-12.5 14.499-21.5 6.166-18.5 5.499-28.5c-.667-13.333-3.667-25.5-9-36.5s-13.666-16.5-24.999-16.5c-1.333 0-2.666.333-3.999 1zm84.999 9.998c-3.333 0-6.668 1.667-10.001 5s-6.166 8.166-8.499 14.499-4.166 13-5.499 20-2.166 14.167-2.5 21.5-.5 14-.5 20c1.334 15.333 3.667 26.333 7 33s8.666 10.667 15.999 12h2c4.667 0 9.334-2 14.001-6s8.667-9.167 12-15.5 6.166-13.5 8.499-21.5 3.5-16.333 3.5-25c0-37.333-11.667-56.666-35-57.999h-1z"/><glyph glyph-name="gdgt" unicode="gdgt" d="m216 486 26 26h287l26-26V332l79 154V329l-79-131V68l-26-27H268l-26 27v52h235v78H242l-26 26v262zm78-209h183v157H294V277z"/><glyph glyph-name="github" unicode="github" d="M425 266c20 0 38.667-3.002 56-9.002s32.5-14 45.5-24 23.333-21.667 31-35 11.5-27.666 11.5-42.999-3.833-29.666-11.5-42.999-18-25-31-35-28.167-17.833-45.5-23.5-36-8.5-56-8.5-38.667 2.833-56 8.5S336.5 67 323.5 77s-23.333 21.667-31 35-11.5 27.666-11.5 42.999c0 18 5.333 34.667 16 50s24.667 28 42 38c-3.333 7.333-5.833 14.833-7.5 22.5S329 281 329 289c0 17.333 3.667 34.333 11 51-13.333 10.667-24 23.834-32 39.501s-12 32.834-12 51.501c0 16 3 31.167 9 45.5s14.333 26.833 25 37.5 23.167 19.167 37.5 25.5 29.833 9.5 46.5 9.5c22.667 0 43.667-6.667 63-20l85 47v-79l-41-22c4.667-4 8.5-10.5 11.5-19.5s4.5-17.167 4.5-24.5c0-16-3.167-31.167-9.5-45.5s-15-26.833-26-37.5-23.667-19.167-38-25.5-29.833-9.5-46.5-9.5h-4c-1.333 0-2.333-2.833-3-8.5s-1-10.834-1-15.501.333-9 1-13 1.667-7.667 3-11c2 0 4 .167 6 .5s4 .5 6 .5zm-8 219.998c-15.333 0-28.5-5.333-39.5-16s-16.5-23.667-16.5-39 5.5-28.333 16.5-39 24.167-16 39.5-16 28.5 5.333 39.5 16 16.5 23.667 16.5 39-5.5 28.333-16.5 39-24.167 16-39.5 16zm8-373c18 0 33.167 4.167 45.5 12.5s18.5 18.166 18.5 29.499c0 12-6.167 22.167-18.5 30.5s-27.5 12.5-45.5 12.5c-17.333 0-32.333-4.167-45-12.5s-19-18.5-19-30.5c0-11.333 6.333-21.166 19-29.499s27.667-12.5 45-12.5z"/><glyph glyph-name="githubalt" unicode="githubalt" d="M536 285c9.333 0 17.499-4 24.499-12s11.833-16.667 14.5-26c4.667-14 6.167-28.333 4.5-43s-7.834-28-18.501-40c-7.333-8-15.666-12-24.999-12-10 0-18.5 4-25.5 12s-12.167 16.667-15.5 26c-3.333 14-4.166 28.333-2.499 43s7.5 28 17.5 40c8 8 16.667 12 26 12zm-222.001 0c9.333 0 17.499-4 24.499-12s12.167-16.667 15.5-26c4-14 5.167-28.333 3.5-43s-7.834-28-18.501-40c-7.333-8-15.666-12-24.999-12-10 0-18.5 4-25.5 12s-12.167 16.667-15.5 26c-3.333 14-4.166 28.333-2.499 43s7.5 28 17.5 40c8 8 16.667 12 26 12zm351.999 122C697.331 371 713 325.002 713 269.002c0-48-7-86.333-21-115-9.333-17.333-21.666-32.5-36.999-45.5s-31.666-22.833-48.999-29.5c-8.667-3.333-17.834-6.5-27.501-9.5s-20.167-5.5-31.5-7.5-21.833-3.5-31.5-4.5-18.834-1.833-27.501-2.5-17.834-1.167-27.501-1.5-19.834-.5-30.501-.5h-26c-8 0-15.667.333-23 1s-15.333 1.167-24 1.5-17.667 1.166-27 2.499c-18 2-35.667 5.667-53 11-24 6.667-47.167 16.667-69.5 30s-38.833 31.666-49.5 54.999c-14.667 28.667-22 67-22 115 0 54.667 15.667 100.667 47 138-6 18.667-9 38-9 58 0 26.667 6 52 18 76 25.333 0 47-4.667 65-14 10-4.667 20.333-10.5 31-17.5s22.334-15.167 35.001-24.5c34 8 69.667 12 107 12 33.333 0 65.666-3.667 96.999-11 23.333 18.667 45 32.667 65 42 18 8.667 40 13 66 13 11.333-24.667 17-50 17-76 0-20-3-39.333-9-58zM596 129.002c11.333 9.333 20.668 21.5 28.001 36.5s11 32.5 11 52.5c0 28-8 51.667-24 71-14.667 19.333-36 29-64 29-5.333 0-13.5-.5-24.5-1.5s-25.5-2.833-43.5-5.5c-8-1.333-16.667-2.333-26-3s-18.666-1-27.999-1c-10 0-19.667.333-29 1s-18 1.667-26 3c-17.333 2.667-31.5 4.5-42.5 5.5s-19.167 1.5-24.5 1.5c-28 0-49.667-9.667-65-29-16-19.333-24-43-24-71 0-20 3.667-37.5 11-52.5s16.666-27.167 27.999-36.5c12-8.667 26-15.334 42-20.001 17.333-5.333 33.666-8.833 48.999-10.5s32.333-2.5 51-2.5h59c19.333 0 36.5.833 51.5 2.5s31.167 5.167 48.5 10.5c16 4.667 30 11.334 42 20.001z"/><glyph glyph-name="googlebuzz" unicode="googlebuzz" d="M223 394c21.333 28 49.833 49.999 85.5 65.999s74.5 24 116.5 24c23.333 0 46.5-2.667 69.5-8S538.667 462.333 558 451L358 267zm41-302.001c-7.333 0-13.832.335-19.499 1.002s-10.5 1.667-14.5 3c8.667 5.333 16.167 12.666 22.5 21.999s11.833 18.666 16.5 27.999l1 3 165 151 147-140c-21.333-15.333-45.5-27-72.5-35s-55.167-12-84.5-12c-11.333 0-22.333.5-33 1.5s-21.334 2.833-32.001 5.5l-5 1-5-2c-27.333-18-56-27-86-27zm191.001 227.002 127.001 117c25.333-17.333 44.666-38 57.999-62s20-49 20-75c0-46.667-19-87-57-121zm-200.999-148c-43.333 36-65 78.667-65 128 0 24 6.333 48 19 72l130-123z"/><glyph glyph-name="googleplus" unicode="googleplus" d="M388 311c0-10 5.001-19.17 15.001-27.504l32.5-27.5c11.667-10 22.5-22.167 32.5-36.5s15-32.5 15-54.5c0-34-14.667-64-44-90-32.667-27.333-77-41-133-41-15.333 0-31.333 1.667-48 5S225.667 47.83 211 55.496s-26.667 17.834-36 30.501-14 28.334-14 47.001c0 14 3.667 28.333 11 43 7.333 13.333 17.666 24.833 30.999 34.5s28.666 17.167 45.999 22.5c32.667 10 65 15.333 97 16-14 16.667-21 32.334-21 47.001 0 5.333 1 10 3 14 .667 1.333 1.334 3.5 2.001 6.5s1.334 5.167 2.001 6.5c-4 0-7.833-.167-11.5-.5s-7.167-.5-10.5-.5c-32.667 0-59.667 10.333-81 31-22.667 20.667-34 46.667-34 78 0 29.333 10 55.666 30 79 20 24 45 39 75 45 10 2 19.833 3.666 29.5 5s19.5 2 29.5 2h139l-43-25h-43c16-10.668 27.667-24 35-40 8-17.334 12-35.334 12-54 0-15.334-2.333-29.167-7-41.5S441.333 379.333 434 372c-10.667-11.333-21-21.5-31-30.5s-15-19.167-15-30.5zm-46.999 26.996c20.667 0 35.499 6.332 44.499 18.999s13.5 29.667 13.5 51c0 26.667-6.667 54-20 82-6.667 13.333-15.667 24.333-27 33s-24 13-38 13c-19.333 0-34.333-7.333-45-22s-16-32-16-52c0-12 1.833-25.333 5.5-40s9.334-28.167 17.001-40.5 17-22.666 28-30.999 23.5-12.5 37.5-12.5zm-4.001-278c12 0 23.999 1.332 35.999 4s22.833 6.833 32.5 12.5 17.334 13.167 23.001 22.5 8.5 21 8.5 35c0 4.667-.333 9.167-1 13.5s-1.667 8.166-3 11.5-3.333 7-6 11c-2.667 3.332-4.834 6.332-6.501 9s-4.5 6-8.5 10c-2.667 2-5.667 4.666-9 8-1.333.666-2.666 1.666-3.999 3s-3.333 3-6 5l-10 7-10 7-10 7c-1.333 0-3.5.166-6.5.5s-6.167.5-9.5.5c-22.667 0-45-3.334-67-10-17.333-5.334-32-13.834-44-25.5s-18-27.5-18-47.5c0-14.668 3.667-27.5 11-38.5s17.333-19.834 30-26.5c23.333-12.668 49.333-19 78-19zm351.999 420.999v-41h-82v-81h-40v81h-81v41h81v81h40v-81h82z"/><glyph glyph-name="googletalk" unicode="googletalk" d="M425 525c36 0 69.83-4.997 101.496-14.997s59.334-23.5 83.001-40.5 42.334-36.833 56.001-59.5 20.5-47 20.5-73c0-36.667-13.167-69.834-39.5-99.501s-60.5-52.167-102.5-67.5c34.667 15.333 61.334 36.5 80.001 63.5s28 57.5 28 91.5c0 25.333-5.667 49.166-17 71.499s-27.166 42-47.499 59-44.333 30.5-72 40.5-57.5 15-89.5 15-62.333-4.833-91-14.5-53.5-23-74.5-40-37.667-36.667-50-59S192 351.668 192 327c0-14.667 2-28.334 6-41.001 13.333-28.667 35-54 65-76s65-37.667 105-47h1c-2-8-4.333-16.667-7-26-3.333-8-7.333-17-12-27s-11-20.333-19-31c27.333 2 51.166 7.333 71.499 16s37.166 17.667 50.499 27c16 11.333 29.333 23.666 40 36.999-15.333-31.333-35.5-54.5-60.5-69.5s-49.167-24.833-72.5-29.5c-27.333-6-56-7.333-86-4 18.667 12 33.334 26.667 44.001 44s18.667 33 24 47c-42 9.333-77.667 26.333-107 51s-49.666 53-60.999 85c0 .667-.667 2.334-2 5-2.667 8-4.834 16-6.501 24s-2.5 16.334-2.5 25c0 26 6.833 50.334 20.5 73s32.334 42.5 56.001 59.5S291 500 323 510s66 15 102 15zm-15.004-47.997c28 0 54.333-3.836 79-11.503s46-18.167 64-31.5 32.333-28.833 43-46.5 16-36.5 16-56.5c0-28.667-10-54.5-30-77.5s-46.333-40.5-79-52.5c22.667 14.667 40.667 32.334 54 53.001s20 43.334 20 68.001c0 19.333-4.5 37.833-13.5 55.5s-21.167 33.334-36.5 47.001-33.5 25-54.5 34-43.833 14.833-68.5 17.5c1.333.667 3.333 1 6 1z"/><glyph glyph-name="gowallapin" unicode="gowallapin" d="M425 523c23.333 0 45.169-4.5 65.502-13.5s38.166-21.167 53.499-36.5 27.5-33.166 36.5-53.499 13.5-42.166 13.5-65.499c0-20-3.333-39.167-10-57.5s-16-34.666-28-48.999-26-26.666-42-36.999-33.333-17.5-52-21.5l-37-144-37 144c-19.333 4-37 11.167-53 21.5s-29.833 22.666-41.5 36.999-20.834 30.666-27.501 48.999-10 37.5-10 57.5c0 23.333 4.333 45.166 13 65.499s20.667 38.166 36 53.499 33.333 27.5 54 36.5 42.667 13.5 66 13.5zm.003-295c17.333 0 33.666 3.333 48.999 10s28.666 15.667 39.999 27 20.333 24.666 27 39.999 10 31.666 10 48.999-3.333 33.666-10 48.999-15.667 28.666-27 39.999-24.666 20.333-39.999 27-31.666 10-48.999 10-33.666-3.333-48.999-10-28.666-15.667-39.999-27-20.333-24.666-27-39.999-10-31.666-10-48.999 3.333-33.666 10-48.999 15.667-28.666 27-39.999 24.666-20.333 39.999-27 31.666-10 48.999-10zm69 126c0-19.333-6.667-35.833-20-49.5S444.337 284 425.004 284s-35.833 6.833-49.5 20.5-20.5 30.167-20.5 49.5 6.833 35.833 20.5 49.5 30.167 20.5 49.5 20.5 35.666-6.833 48.999-20.5 20-30.167 20-49.5z"/><glyph glyph-name="gowalla" unicode="gowalla" d="M363 170c-3.333-14.667-5.002-31.338-5.002-50.005s2.667-36 8-52h-25c-4.667 17.333-7 35.333-7 54s1.333 35.334 4 50.001c-6 1.333-11.833 2.333-17.5 3s-10.834 1.667-15.501 3c0-11.333-1.667-22-5-32-2-6.667-6.5-11.5-13.5-14.5s-14.167-4.5-21.5-4.5c-12 0-21.667 3.5-29 10.5s-11 16.167-11 27.5c0 19.333 7.667 35.833 23 49.5s34 28.5 56 44.5l11 7c11.333 8 17.666 17.5 18.999 28.5s1 21.167-1 30.5c-14-19.333-27-35-39-47s-23.167-21.167-33.5-27.5-19.5-10.5-27.5-12.5-14.667-3-20-3c-16 0-28.667 5.667-38 17-10.667 12.667-14.334 27.667-11 45 2 11.333 7 22.833 15 34.5s17.332 22.667 28 33 21.5 20 32.5 29 20.166 16.167 27.5 21.5c-10 8-20.834 17.333-32.5 28s-22.335 21.834-32.002 33.501-17.5 23.5-23.5 35.5-9 23.333-9 34c0 15.333 6.333 26.333 19 33 12.667 8 25.334 12 38.001 12 9.333 0 18-2 26-6s15.333-8.667 22-14c6.667 27.333 16 45.5 28 54.5s23.333 13.5 34 13.5h5c12.667-1.333 23-7 31-17 6.667-8.667 11-20 13-34s2.833-29 2.5-45-1.5-32.667-3.5-50-4-33.333-6-48l-1-5c80-13.333 141.833-38 185.5-74s71.834-86.333 84.501-151c2-8 3-16 3-24 2.667-2.667 5.334-5.167 8.001-7.5s5.334-4.5 8.001-6.5c3.333-3.333 6.5-6.166 9.5-8.499s6.167-5.166 9.5-8.499c-1.333-10-3.666-18.667-6.999-26-4.667 3.333-9.334 7.166-14.001 11.5l-14 12.5-1 1c-4.667-25.334-14.667-45.167-30-59.5S589.332 74.666 573.999 68h-40l-15 13 26 5c.667 0 5.167 1.167 13.5 3.5s17.5 6.833 27.5 13.5 19.167 16 27.5 28 12.833 27.667 13.5 47c-8 6.667-15.333 11-22 13-9.333 2.667-20 5.167-32 7.5s-24.333 3.5-37 3.5c-34 0-56.333-11-67-33-8-16-12.833-33.167-14.5-51.5s-.167-34.833 4.5-49.5h-25c-4.667 17.333-5.834 36-3.501 56s7.833 38.667 16.5 56c15.333 31.333 45 47 89 47 13.333 0 26.5-1.167 39.5-3.5s24.833-5.166 35.5-8.499l6-2c2-.667 4.333-1.667 7-3-11.333 60.667-38 107.5-80 140.5s-102.667 55.167-182 66.5l-12 1 4 31c2 12 4 25.833 6 41.5s3.333 31 4 46 .334 28.667-.999 41-4.666 21.833-9.999 28.5c-2.667 4-7 6.667-13 8-6.667.667-12.5-1-17.5-5s-9.333-9.333-13-16-6.5-13.834-8.5-21.501-3.667-14.834-5-21.501l11-11c26-27.333 37-49.333 33-66-.667-3.333-2.167-7-4.5-11s-6.833-7.667-13.5-11c-5.333-2-10.333-3-15-3-13.333 0-23.333 5.5-30 16.5s-10 23.167-10 36.5c0 2.667.167 7.667.5 15s1.166 16 2.499 26c-12 11.333-23.167 18.833-33.5 22.5s-22.166 1.5-35.499-6.5c-4.667-2.667-7-7-7-13 0-7.333 3.167-16.333 9.5-27s14.333-21.667 24-33 20.5-22.333 32.5-33 23.667-19.667 35-27l17-10-17-11-27-19.5c-11.333-8.333-22.666-17.833-33.999-28.5s-21.333-21.5-30-32.5-14-21.5-16-31.5c-1.333-9.333.334-17.333 5.001-24 5.333-5.333 12-8 20-8 2.667 0 7.5.833 14.5 2.5s15.333 5.834 25 12.501 20.667 16.5 33 29.5 25.833 31.167 40.5 54.5l11 18 10-19c3.333-6 6.333-13.833 9-23.5s3.834-19.667 3.5-30-2.832-20.666-7.5-30.999-12.333-19.5-23-27.5l-11-8-21-15c-6.667-4.667-12.667-9.334-18-14.001l15-3c.667 0 6-1.167 16-3.5s21-4.166 33-5.499c.667 2.667 2.334 6.667 5 12 5.334 11.333 12.834 19.833 22.5 25.5s18.5 8.5 26.5 8.5c13.334 0 21.667-5.667 25-17 2-5.333 2.667-10.5 2-15.5s-2.334-9.833-5.001-14.5c-8-13.333-21-21.333-39-24-6.667-1.333-12.334-2-17.001-2zm6.998 27.996c0-1.333-.333-2-1-2h7c10 2 17.333 6.333 22 13 2 2.667 2.333 5.667 1 9h-2c-3.333 0-7.833-1.5-13.5-4.5s-10.167-8.167-13.5-15.5zm-78 303c0-6.667 1.332-13 3.999-19s6.334-9 11.001-9c1.333 0 2.333.167 3 .5s1.667.5 3 .5l2.5 2.5 1.5 1.5c0 2-1.5 6.333-4.5 13s-9.833 15.667-20.5 27v-17zm-17.001-346c1.333 5.333 2.001 12.166 2.001 20.499v31.5c-18-14.667-27-28.667-27-42 0-8.667 5-13 15-13 3.333 0 5.666.333 6.999 1s2.333 1.334 3 2.001z"/><glyph glyph-name="grooveshark" unicode="grooveshark" d="M425 560c36 0 69.833-6.833 101.5-20.5s59.334-32.334 83.001-56.001 42.334-51.334 56.001-83.001 20.5-65.5 20.5-101.5-6.833-70-20.5-102-32.334-59.833-56.001-83.5-51.334-42.334-83.001-56.001-65.5-20.5-101.5-20.5-70 6.833-102 20.5-59.833 32.334-83.5 56.001-42.334 51.5-56.001 83.5-20.5 66-20.5 102 6.833 69.833 20.5 101.5 32.334 59.334 56.001 83.001S291 525.833 323 539.5 389 560 425 560zm0-26c-32.667 0-63.169-6.166-91.502-18.499s-53.166-29.166-74.499-50.499-38.166-46.166-50.499-74.499-18.5-58.833-18.5-91.5c0-28 4.667-55.333 14-82 16-1.333 34 .5 54 5.5s36.333 13.167 49 24.5c13.333 12 23 25.833 29 41.5s10 32.334 12 50.001 2.667 36 2 55-.667 38.167 0 57.5c36-10.667 66.5-25.334 91.5-44.001s50.167-42 75.5-70c5.333-5.333 12.166-14.5 20.499-27.5s17.666-26.833 27.999-41.5 21.333-29.167 33-43.5 23.5-25.833 35.5-34.5c8 16.667 14.333 34.167 19 52.5s7 37.166 7 56.499c0 32.667-6.167 63.167-18.5 91.5s-29.166 53.166-50.499 74.499-46.166 38.166-74.499 50.499S457.667 534 425 534z"/><glyph glyph-name="heart" unicode="heart" d="M655 411c6.667-20.667 6.999-43.167.999-67.5s-15.5-48.333-28.5-72-28.5-46.5-46.5-68.5-36.5-41.5-55.5-58.5-36.833-30.5-53.5-40.5-30.334-15-41.001-15c-10 0-23.833 5-41.5 15s-36.334 23.5-56.001 40.5-39.167 36.5-58.5 58.5-36 44.833-50 68.5-24.333 47.5-31 71.5-6.667 46.667 0 68c10.667 34.667 27.334 59.334 50.001 74.001s46.334 22 71.001 22c20 0 36.833-4.167 50.5-12.5s24.667-17.5 33-27.5 14.5-19.167 18.5-27.5 6.667-12.5 8-12.5 4 4.167 8 12.5 10.333 17.5 19 27.5 19.834 19.167 33.501 27.5 30.5 12.5 50.5 12.5c24-.667 47.333-8.334 70-23.001s39-39 49-73z"/><glyph glyph-name="hyves" unicode="hyves" d="m559 531 33 .014c2.667 0 5.834-1.667 9.501-5s6.834-7.5 9.501-12.5 4.667-10 6-15 1.333-9.167 0-12.5c-.667-2.667-2.5-4.834-5.5-6.501s-6.333-3.334-10-5.001-7.167-3.167-10.5-4.5-5.666-3-7-5c-2.666-2.667-4.5-6.834-5.5-12.501s-1.5-11.834-1.5-18.501.168-13.667.5-21 .5-14 .5-20v-194c0-5.333-.166-12.333-.5-21s.5-13.667 2.5-15c1.334-2 4.5-2.833 9.5-2.5s8.834.166 11.5-.501c6-2 11.5-7.5 16.5-16.5s5.168-17.167.5-24.5c-1.332-2-4.332-3.833-9-5.5s-9.333-3.167-14-4.5c-9.333-4.667-21.5-9.167-36.5-13.5s-29.5-5.833-43.5-4.5c-4 .667-8.167 2.334-12.5 5s-8.5 6-12.5 10-7.333 8.168-10 12.5-3.667 8.5-3 12.5c.667 5.334 6 10.334 16 15 2.667 1.334 6.5 2 11.5 2s8.833 1 11.5 3c3.333 3.334 4.5 9.834 3.5 19.5s-1.833 18.168-2.5 25.5v24c0 4 .167 8.5.5 13.5s-.167 8.168-1.5 9.5-4.166 2.167-8.5 2.5-9 .333-14 0-10-.833-15-1.5-8.5-1-10.5-1l-45-6.5c-12-1.667-25.666-5.167-41-10.5-4.666-1.333-11-3-19-5s-13.666-5.333-17-10c-1.332-2-2.165-5.333-2.498-10s-.333-9.834 0-15.501.833-11.167 1.5-16.5 1-9.666 1-13c.667-3.332.667-7.5 0-12.5s-.334-8.832.999-11.5c2-3.332 6.167-4.665 12.5-3.998s10.166.667 11.499 0c5.333-2 10.666-6 15.999-12s7.333-12.667 6-20c-.667-6-4.5-11.167-11.5-15.5s-15.333-7.833-25-10.5-19.667-4.667-30-6-19.166-2.333-26.5-3c-5.332-.667-9.5-1-12.5-1s-6.5.667-10.5 2c-6.666 1.333-13.333 5.5-20 12.5s-9.667 13.833-9 20.5c.667 5.333 4 9.666 10 12.999s11.667 5.666 17 6.999c1.333.667 3.333 1.167 6 1.5s4.334 1.166 5 2.499c2 2.667 2.834 7.834 2.5 15.5s-1.165 14.5-2.498 20.5c-2 17.334-3.333 36-4 56s-1 39-1 57c-.667 21.334-1.334 40.667-2.001 58s-1 37-1 59v21.5c0 8.333-.667 13.5-2 15.5-2 2-5.5 3.167-10.5 3.5s-9.167 1.166-12.5 2.499c-6 2.667-10.667 6.167-14 10.5s-6.666 10.166-10 17.499v9c5.334 9.333 14 15.833 26 19.5s25 6.834 39 9.5c10 2 20 3.668 30 5s19 1.667 27 1 15-2.834 21-6.501 10.334-9.5 13-17.5c1.334-3.333 2.167-7.333 2.5-12s-.5-8.667-2.5-12c-2-2.667-4.833-4.667-8.5-6s-7.667-2.5-12-3.5-8.333-2.167-12-3.5-6.167-3-7.5-5-2-6-2-12v-18c0-18.667-.667-35.334-2-50.001s-1.333-31.667 0-51c.667-2.667 1.334-7.167 2-13.5s2-10.166 4-11.5c3.334-1.332 7-1.332 11 0s7.668 2.334 11 3l50 10.5c14 3 31.668 5.5 53 7.5 2.668.668 6.168 1.168 10.5 1.5l13 1c4.334.334 8.334.667 12 1s6.168 1.166 7.5 2.499c4 3.333 5.5 8.833 4.5 16.5s-1.832 13.834-2.5 18.5c-1.332 14.668-2 27.668-2 39s.668 23.667 2 37l2.5 20c1 8-.166 13.333-3.5 16-1.332 2-4.665 3.167-9.998 3.5s-9 1.166-11 2.499c-7.333 3.333-14.5 8.5-21.5 15.5s-8.833 15.833-5.5 26.5c1.333 2.667 3.666 5.167 6.999 7.5s6.666 4.166 9.999 5.499c11.333 5.333 23.166 9 35.499 11s25.166 4.333 38.499 7z"/><glyph glyph-name="icondock" unicode="icondock" d="M425 57c-8 0-15.337 3.334-22.004 10.001l-141 155c-6 6.667-10.667 10.667-14 12l-6 5-3-7c-1.333-3.333-3.666-7.5-6.999-12.5s-7-9.5-11-13.5-7.333-6-10-6c-3.333 0-6.166 1.333-8.499 4s-3.833 7.667-4.5 15l-8 75c-1.333 8.667.667 15.667 6 21 4.667 5.333 11.334 8 20.001 8h4l77-7c10.667-1.333 17-4.666 19-9.999.667-1.333.834-3 .501-5s-2.166-4.333-5.499-7c-8.667-9.333-17.667-15.333-27-18l-7-3 4-6c1.333-1.333 3.166-3 5.499-5s5.166-4.667 8.5-8l65-56c5.332-4 10-6 14-6 7.332 0 11 5.667 11 17v150l-3 1c-15.334 8-27.334 19-36 33s-13 29.333-13 46c0 12 2.332 23.5 7 34.5s11.166 20.5 19.5 28.5 18.165 14.333 29.498 19 23.333 7 36 7 24.667-2.333 36-7 21.166-11 29.5-19 14.832-17.5 19.5-28.5 7-22.5 7-34.5c0-16-4-30.667-12-44s-19.334-24.333-34-33l-3-1v-149c0-11.333 4-17 12-17 2.666 0 5.166.667 7.5 2s4.165 2.666 5.498 3.999l62 53c6.667 6 11 10.333 13 13l5 6-8 3c-8.667 2.667-17.667 8.667-27 18-4.667 4.667-6 8.667-4 12 1.333 5.333 7.333 8.666 18 9.999l78 7h3c8.667 0 15.334-2.667 20.001-8 6-6 8.333-13 7-21l-8-75c-2-12.667-6.333-19-13-19-3.333 0-6.666 2-9.999 6-4.667 4-8.667 8.5-12 13.5s-5.666 9.167-6.999 12.5l-2 7-7-5c-3.333-1.333-7.666-5.333-12.999-12L447 67c-6.667-6.667-14-10-22-10zm-.004 436.001c-15.333 0-28.5-5.333-39.5-16s-16.5-23.334-16.5-38.001c0-15.333 5.5-28.166 16.5-38.499s24.167-15.5 39.5-15.5 28.333 5.167 39 15.5 16 23.166 16 38.499c0 14.667-5.333 27.334-16 38.001s-23.667 16-39 16z"/><glyph glyph-name="icq" unicode="icq" d="M651 281c9.333-17.333 11.333-36.666 6-57.999-6-20.667-18.333-36-37-46-18-9.333-37.667-10.666-59-3.999-7.333 2-14.666 5-21.999 9 4-16 4-31 0-45s-11.667-24.667-23-32c-12-7.333-25.333-9-40-5-12 4-24.667 13-38 27l-1-4c-6-21.333-18.333-36.666-37-45.999-19.333-9.333-39.333-11-60-5-11.333 2.667-21.666 7.667-30.999 15-2.667 3.333-5.167 6.666-7.5 9.999s-4.833 6.666-7.5 9.999c-10 19.333-11.667 39-5 59l3 9 12 19c-15.333-4.667-31-5.334-47-2.001-8.667 1.333-15.334 4.333-20.001 9-3.333 1.333-5.833 3.166-7.5 5.5l-5.5 7.5c-6.667 12.666-8 24.333-4 35 1.333 5.333 3.333 10.333 6 15s6.667 9 12 13l10 9-5 1c-12 2-22 7-30 15-6.667 4.667-12 10.334-16 17.001-9.333 17.333-10 35-2 53 7.333 18.667 20.333 33 39 43 19.333 10 39 12.667 59 8l16-5-5 7c-10 17.333-13.333 36-10 56 2.667 18.667 11.334 32.334 26.001 41.001 12.667 6.667 26 8 40 4 16.667-4 30.334-14.333 41.001-31l6-12 3-5 1 5v1c0 10 4 18.833 12 26.5s16.667 14.167 26 19.5c18.667 8.667 38.667 10.667 60 6 20.667-5.333 35.667-16 45-32l2-3c12-18.667 14.333-39 7-61l-7-17 22 5c5.333.667 10.833 1 16.5 1s11.167-.667 16.5-2c8-2.667 13.667-6.167 17-10.5s9.666-9.833 18.999-16.5v-1c0-6 1.167-12.167 3.5-18.5s2.166-13.166-.501-20.499c-6.667-16.667-21.334-30.334-44.001-41 4-2 8-3.834 12-5.5s7.667-3.835 11-6.502c4-2.667 7.333-5.834 10-9.5l8-11.5zm-166 55-3.001-2.999 1-3 2-4 83 10 11.5 2c3.667.667 7.167 2 10.5 4 16.667 6.667 27.334 16 32.001 28l1 7-3 9c-4 8-11.667 12.667-23 14-13.333 1.333-25.333-.334-36-5.001l-8-3zm-48.001 133.001L438 442l7-75c6.667-3.333 13-7 19-11l61 73 5.5 9.5c1.667 3 3.167 6.5 4.5 10.5l2 14c0 8.667-1.667 16.334-5 23.001-6 12-16.333 19.333-31 22-12.667 5.333-25.334 4.333-38.001-3-6-3.333-11.333-7.5-16-12.5s-7.667-10.833-9-17.5zM322 473c-.667-10.667 2.002-22.332 8.002-34.999l3-7 60-64 10 3-13 79c-.667 4-1.834 7.667-3.501 11s-3.167 6.666-4.5 9.999c-8 15.333-18.333 24.666-31 27.999-5.333 3.333-10.333 3.333-15 0-8.667-5.333-13.334-13.666-14.001-24.999zm-98.998-139.998c4.667-10 13.333-16.001 26-18.001l6-1 98 12c2 6.667 5.333 13.334 10 20.001l-59 42-18 8c-13.333 2.667-26 .667-38-6-13.333-5.333-22-14.666-26-27.999-4-10.667-3.667-20.334 1-29.001zm87.999-104.001 20 17c4 3.333 8 7 12 11s8.667 8 14 12l-2 5-5 13-54-10c-4.667-.667-11.334-3.334-20.001-8.001-15.333-6.667-24.666-15.667-27.999-27l-1-6 2-7c2.667-5.333 9.667-8.666 21-9.999 12-1.333 23.667 1 35 7zm100-66c0 13.333-.997 25.998-2.997 37.998s-3.333 23.667-4 35c-3.333 0-6.833.833-10.5 2.5s-7.167 3.167-10.5 4.5l-57-66c-4.667-5.333-8-11.666-10-18.999l-3-15c0-4 .667-8 2-12s2.666-7.667 3.999-11c5.333-10.667 15-18 29-22 13.333-3.333 25.666-1.666 36.999 5.001 11.333 4.667 19.666 13.667 24.999 27l1 7v26zm-21.997 105.998c8.667-8.667 18.999-12.999 30.999-12.999s22.333 4.333 31 13c5.333 4 9 8.833 11 14.5s3 11.5 3 17.5c0 11.333-4.667 21.666-14 30.999-8 8-18.333 12-31 12-11.333 0-21.666-4-30.999-12-4.667-5.333-8.167-10.333-10.5-15s-3.5-10-3.5-16c0-13.333 4.667-24 14-32zM514.003 153c.667 12-2 23.667-8 35l-4 6-17 22-29 28-9-4-11-4 10-58 8-22c8-16.667 18.333-26.334 31-29.001 6-1.333 11-.666 15 2.001 7.333 3.333 12 11.333 14 24zm118 91c0 12-3.336 21.667-10.003 29-5.333 9.333-13.666 15.666-24.999 18.999l-7 1-27-1-76-7-2-8-5-10 71-57c3.333-5.333 9.333-9 18-11 12.667-4.667 25.334-3.667 38.001 3s20.334 16.334 23.001 29.001z"/><glyph glyph-name="identica" unicode="identica" d="M383 523c20.667 0 40.167-4.168 58.5-12.501s34.333-19.5 48-33.5 24.5-30.333 32.5-49 12-38.667 12-60-4-41.5-12-60.5-18.833-35.5-32.5-49.5-29.667-25-48-33-37.833-12-58.5-12c-22.667 0-42.667 4.333-60 13l-107-35 28 115c-8 18.667-12 39.334-12 62.001 0 21.333 4 41.333 12 60s18.833 35 32.5 49 29.667 25.167 48 33.5S362.333 523 383 523zm2-262.001c14 0 27.167 2.667 39.5 8s23 12.666 32 21.999 16.167 20.333 21.5 33 8 26.334 8 41.001c0 14-2.667 27.333-8 40s-12.5 23.834-21.5 33.501-19.667 17.167-32 22.5-25.5 8-39.5 8-27.167-2.667-39.5-8-23-12.833-32-22.5-16.167-20.834-21.5-33.501-8-26-8-40c0-14.667 2.333-27 7-37l-23-85 72 29c13.333-7.333 28.333-11 45-11zm148 70c14 0 27.167-2.667 39.5-8s23-12.666 32-21.999 16.167-20.333 21.5-33 8-26.334 8-41.001c0-19.333-5-37.166-15-53.499s-23-28.833-39-37.5l-23-69-45 60c-23.333 5.333-42.333 17.166-57 35.499s-22 39.833-22 64.5c0 14.667 2.667 28.334 8 41.001s12.5 23.667 21.5 33 19.5 16.666 31.5 21.999 25 8 39 8zm25-149c8.667 4.667 15.5 11 20.5 19s7.5 17.333 7.5 28c0 15.333-5.167 28.166-15.5 38.499s-22.833 15.5-37.5 15.5-27-5.167-37-15.5-15-23.166-15-38.499c0-13.333 4-25 12-35s18.333-16 31-18l20-34z"/><glyph glyph-name="imessage" unicode="imessage" d="M425 534c32.667 0 63.169-5.332 91.502-15.999s53.166-25.167 74.499-43.5 38.166-40 50.499-65 18.5-51.5 18.5-79.5-6.167-54.5-18.5-79.5-29.166-46.833-50.499-65.5-46.166-33.334-74.499-44.001-58.833-16-91.5-16c-14 0-27.667 1.167-41 3.5s-26.333 5.5-39 9.5c-20.667-14.667-47-22-79-22-12 0-23 1-33 3 13.333 1.333 25 6.166 35 14.499s16.333 18.833 19 31.5c-30 18.667-53.667 42.334-71 71.001s-26 60-26 94c0 28 6.167 54.5 18.5 79.5s29.166 46.667 50.499 65 46.166 32.833 74.499 43.5 58.833 16 91.5 16z"/><glyph glyph-name="itunes" unicode="itunes" d="M425 560c36 0 69.833-6.833 101.5-20.5s59.334-32.334 83.001-56.001 42.334-51.334 56.001-83.001 20.5-65.5 20.5-101.5-6.833-70-20.5-102-32.334-59.833-56.001-83.5-51.334-42.334-83.001-56.001-65.5-20.5-101.5-20.5-70 6.833-102 20.5-59.833 32.334-83.5 56.001-42.334 51.5-56.001 83.5-20.5 66-20.5 102 6.833 69.833 20.5 101.5 32.334 59.334 56.001 83.001S291 525.833 323 539.5 389 560 425 560zm0-497c32.667 0 63.167 6.167 91.5 18.5s53.166 29.166 74.499 50.499 38.166 46.333 50.499 75 18.5 59.334 18.5 92.001-6.167 63.167-18.5 91.5-29.166 53.166-50.499 74.499-46.166 38.166-74.499 50.499-58.833 18.5-91.5 18.5-63.167-6.167-91.5-18.5-53.166-29.166-74.499-50.499-38.166-46.166-50.499-74.499-18.5-58.833-18.5-91.5 6.167-63.334 18.5-92.001 29.166-53.667 50.499-75S305.167 93.833 333.5 81.5 392.333 63 425 63zm104 160c1.333-13.333-2.168-24.672-10.501-34.005s-18.833-14.666-31.5-15.999-23.667 2-33 10-14.666 18.333-15.999 31c-.667 12.667 3.166 24.167 11.499 34.5s18.833 16.166 31.5 17.5c4 .666 8.667.833 14 .5s8-1.166 8-2.499v125l-131-30v-165 3c1.333-13.333-2.167-24.666-10.5-33.999s-18.833-14.666-31.5-15.999-23.667 2-33 10-14.666 18.667-15.999 32c-1.333 12.667 2.167 24.167 10.5 34.5s18.833 16.166 31.5 17.5c4 .666 8.833.833 14.5.5s8.5-1.166 8.5-2.499v180l183 37V220v3z"/><glyph glyph-name="lastfm" unicode="lastfm" d="m473 228-5.003 11.003-45 102c-7.333 18-19.5 32.667-36.5 44s-35.833 17-56.5 17c-14 0-27.333-2.667-40-8s-23.5-12.666-32.5-22-16.167-20.165-21.5-32.498-8-25.5-8-39.5c0-28.667 9.833-52.834 29.5-72.501s43.834-29.5 72.501-29.5c19.333 0 37 5 53 15s28.333 23.333 37 40l18-42c-13.333-16-29.333-28.667-48-38s-38.667-14-60-14c-19.333 0-37.5 3.667-54.5 11s-31.833 17.333-44.5 30-22.667 27.667-30 45-11 35.666-11 54.999 3.667 37.5 11 54.5 17.333 31.833 30 44.5 27.5 22.667 44.5 30 35.167 11 54.5 11c29.333 0 55.166-7.5 77.5-22.5s39.5-36.5 51.5-64.5c.666-1.333 2.5-5.333 5.5-12l11-25 14-33 15.5-36c6.666-14.667 13.833-26.334 21.5-35.001s20.167-13.334 37.5-14.001 31.333 3.5 42 12.5 16 20.167 16 33.5-4.167 22.5-12.5 27.5S589.332 281.668 574 287c-28 9.333-49 19.5-63 30.5s-21 27.167-21 48.5 6.833 38.5 20.5 51.5S542.666 437 566 437c30.667 0 53.334-13.667 68.001-41l-30-15c-10 14.667-23.333 22-40 22-11.333 0-20.333-3.333-27-10S527 377.667 527 367c0-14 5.833-23.5 17.5-28.5S571 328 589 322c24.667-8 42.667-17.5 54-28.5s17-27.833 17-50.5c0-23.333-9-42.833-27-58.5S592.667 161 566 161c-24.667 0-44 5.833-58 17.5s-25.667 28.167-35 49.5z"/><glyph glyph-name="linkedin" unicode="linkedin" d="M190 441h104V101H190v340zm399-21c20.667-11.333 37.665-28.499 50.998-51.499s20-46.5 20-70.5v-197h-105v197c0 5.333-2 11.333-6 18s-7.667 11-11 13c-5.333 3.333-12.666 5-21.999 5s-16.666-1.333-21.999-4l-43-21v-208H346v340h105v-16c20.667 9.333 44 13.666 70 12.999s48.667-6.667 68-18zM241.998 572.001c14.667 0 27-5 37-15s15-22.333 15-37-5-27.167-15-37.5-22.333-15.5-37-15.5-27 5.167-37 15.5-15 22.833-15 37.5 5 27 15 37 22.333 15 37 15z"/><glyph glyph-name="meetup" unicode="meetup" d="M246 233c-6 16.667-11.334 32.999-16.001 48.999s-8.667 32-12 48c-3.333-5.333-5.333-11.5-6-18.5s-1-14.167-1-21.5c-.667-8-1.167-16-1.5-24s-1.833-14.667-4.5-20l-2 1c-2.667 0-4.834-.167-6.501-.5s-3.5-.5-5.5-.5c-2.667-.667-6.667-1-12-1h-5c-1.333 2.667-2.833 5.334-4.5 8.001s-3.167 5.334-4.5 8.001c-3.333 4.667-6.333 9.167-9 13.5s-5.667 8.833-9 13.5c-1.333-3.333-1.333-7.666 0-12.999.667-4 1.167-7.833 1.5-11.5s.166-8.167-.501-13.5c-2-1.333-5.167-2.833-9.5-4.5s-9.166-2.5-14.499-2.5h-5c-4.667 15.333-7.167 30.833-7.5 46.5s-.166 32.834.501 51.501v21c4 1.333 8 2.333 12 3s8.333 1 13 1c2.667 0 4.667-.333 6-1 4-5.333 7.667-11.333 11-18l10-21 6-12c2-4 4-7.667 6-11 4 15.333 7.833 31.333 11.5 48s9.834 30.667 18.501 42c0-.667.667-1 2-1h1c4.667 0 8-.333 10-1 1.333 0 2.833-.167 4.5-.5s3.5-.5 5.5-.5h4c5.333-11.333 9.5-24.333 12.5-39l9.5-45c2.667-11.333 5.167-22.833 7.5-34.5s5.5-22.834 9.5-33.501c-.667.667-1.667 1-3 1-2 0-5-.667-9-2-2-.667-4.167-1.334-6.5-2.001s-4.833-1.334-7.5-2.001zm157.999-6.001c-10 0-20 2.668-30 8.001s-16 12.666-18 21.999c-.667 42 11.333 73 36 93 11.333-1.333 20.666-5 27.999-11 0-6-.333-11.5-1-16.5l-2-15.5c-1.333-5.333-2.333-11-3-17s-.667-13 0-21c-2 0-4-.167-6-.5s-4.333-.5-7-.5c-3.333 0-6.666.167-9.999.5s-6.666.833-9.999 1.5c-2.667-4.667-3.667-9-3-13s2-7.667 4-11c6.667-8 14-12 22-12s14.667 3.667 20 11c5.333-2 8.333-4.667 9-8-6.667-6.667-16.334-10-29.001-10zm-11 91.001c-.667-1.333-1.331-2.998-1.998-4.998s-1.334-3.667-2.001-5l-4.5-11c-1.667-4-2.5-8.667-2.5-14 1.333-2 3.666-3 6.999-3h4c2 5.333 3.167 11.666 3.5 18.999s-.167 13.666-1.5 18.999l-1 4zm-73.997-94.998c-6.667 0-12.33 1.003-16.996 3.003-11.333 4.667-18.5 13-21.5 25s-3.833 24-2.5 36c1.333 13.333 5.166 25.666 11.499 36.999s14.166 17.666 23.499 18.999h3c3.333 0 6.166-.333 8.499-1s4.5-1.334 6.5-2.001l9-3c2-8 3.333-18.333 4-31s-.333-24-3-34c-.667.667-2.667 1-6 1h-2c-10 0-19 1-27 3-4-15.333-3.333-27 2-35 3.333-4 7-6.667 11-8h3c3.333 0 7.666.667 12.999 2s9.333 2 12 2c4 0 7.667-2 11-6-5.333-2-11.5-3.833-18.5-5.5s-13.833-2.5-20.5-2.5zm-10.995 66.003c.667 0 1.167-.167 1.5-.5s.833-.5 1.5-.5 1.167-.167 1.5-.5 1.166-.5 2.499-.5h1l2 1c1.333 4.667 1.833 9.5 1.5 14.5s-1.166 10.167-2.499 15.5c-7.333-8-11.333-17.333-12-28v-1h3zm364-141c-4 1.333-7.664 2-10.997 2h-17c-2 5.333-3.5 11.833-4.5 19.5s-1.833 15.167-2.5 22.5c-1.333 10-2.833 19.667-4.5 29s-5.167 17.333-10.5 24c1.333.667 4 1.667 8 3 .667.667 2 1 4 1l2.5 22.5c1 9 2.5 18 4.5 27s4.5 17.667 7.5 26 6.833 15.5 11.5 21.5c10 12.667 21.667 19 35 19 10 0 21.667-4 35-12 7.333-14.667 10.166-28.167 8.499-40.5s-4.167-22.5-7.5-30.5c-6.667-13.333-15.834-24.833-27.501-34.5s-24.834-16.167-39.501-19.5c-2-36 .667-62.667 8-80zm27.003 195c-10.667-10.667-18.333-24.001-23-40.001s-8.334-31.667-11.001-47c8.667 2.667 16.5 7.834 23.5 15.501s12.167 16.167 15.5 25.5c2 5.333 3.333 12 4 20s-1.666 16.667-6.999 26l-1 1zM562.011 228.004c-8 0-14.335 3.002-19.002 9.002-12.667 14-17 43-13 87 4.667-.667 8.5-1.834 11.5-3.501s6.167-3.167 9.5-4.5c1.333-1.333 3.333-2.666 6-4v-9.5c0-3.666.333-7.5 1-11.5 0-16 1-32 3-48 12 4.668 19.167 14.168 21.5 28.5s3.833 28.167 4.5 41.5v8c0-.667.667-1 2-1h2c4.667 0 8.834-1.167 12.501-3.5s7.167-4.833 10.5-7.5c1.333-11.333.5-20.5-2.5-27.5s-6.5-13.833-10.5-20.5c-1.333-1.333-2.166-2.833-2.499-4.5s-1.166-3.167-2.499-4.5c-3.333-2.667-5.833-5.334-7.5-8.001s-3.834-5.667-6.501-9l-2-3c-5.333-2.667-11.333-4-18-4zm-98.002-7.998c.667 7.333.835 14.17.502 20.504s-.833 12.833-1.5 19.5c-.667 4-1.167 8.167-1.5 12.5s-.5 8.833-.5 13.5l-6 1c-5.333.667-10.333 1.167-15 1.5s-8.667 1.5-12 3.5c0 4.667 1 8 3 10 .667 2 3.334 3 8 3 1.334 0 2.667-.167 4-.5s2.666-.5 3.999-.5h9c1.333 7.333 1.666 15 .999 23s-1.667 16.333-3 25c-2 14.667-3.5 29.167-4.5 43.5s.5 27.833 4.5 40.5c.667-.667 1.667-1 3-1h1c7.333 0 13.166-1.333 17.499-4s7.833-5.667 10.5-9c-2-10.667-3-21.834-3-33.501s.333-23.5 1-35.5c1.333-8.667 2-16.834 2-24.501s-.333-14.834-1-21.501v-2h3c2.667 0 4.167 1 4.5 3s.5 3.667.5 5c0 2.667.667 4 2 4 4-1.333 7.333-3 10-5s5.334-4.667 8.001-8c1.333-1.333 2.666-2.833 3.999-4.5s2.666-3.167 3.999-4.5c-2-1.333-5-2.333-9-3s-8-1-12-1c-4.667 0-9.667-.667-15-2a361.093 361.093 0 0 1 0-38.001v-29c-2-.667-4.167-1-6.5-1h-6.5c-1.333 0-2.666-.167-3.999-.5s-2.666-.5-3.999-.5z"/><glyph glyph-name="metacafe" unicode="metacafe" d="m548 137-69-53 27 86-69 52h85l26 80 27-80h85l-69-52 26-86zm-62 28-8.001-24.5-13-38.5-275 198h274l84 255 106-314h-67c-1.333 0-4.166 6-8.499 18s-8.833 25.333-13.5 40c-5.333 17.333-11 37-17 59-6-22-11.667-41.667-17-59l-13-40c-4-12-6.667-18-8-18H385c16.667-12 31.667-23.333 45-34 11.333-9.333 22.5-18 33.5-26s18.5-13.333 22.5-16z"/><glyph glyph-name="mixx" unicode="mixx" d="M565 264c0-2 .166-4.002.499-6.002s.5-4 .5-6c0-21.333-4-41.166-12-59.499s-18.667-34.333-32-48-29.166-24.5-47.499-32.5-37.833-12-58.5-12c-30 0-57 8.167-81 24.5s-42 37.5-54 63.5c9.333-31.333 26.833-57 52.5-77s55.167-30 88.5-30c20 0 39 3.833 57 11.5s33.667 18.334 47 32.001 23.833 29.5 31.5 47.5 11.5 37.333 11.5 58c0 12.667-1.333 24-4 34zM427.999 138.998c-20.667-3.333-40.333-2.335-59 2.998s-34.667 13.666-48 24.999c11.333-13.333 25-23.666 41-30.999s33.667-11 53-11c28 0 52.5 7.833 73.5 23.5s35.167 35.167 42.5 58.5c-9.333-17.333-23-32.166-41-44.499s-38.667-20.166-62-23.499zM425 181.996c-11.333-4.667-22.834-7.333-34.501-8s-22.167.333-31.5 3c6-3.333 12.833-6.166 20.5-8.499s15.834-3.5 24.501-3.5c21.333 0 39.5 6.5 54.5 19.5s22.833 28.833 23.5 47.5c-5.333-10.667-12.833-20.334-22.5-29.001s-21.167-15.667-34.5-21zm-18.001 39.001c-1.333 0-3.334 1.833-6.001 5.5s-5.334 9.167-8.001 16.5l-99 277c-2 6-1.333 12.333 2 19 2.667 6 7.334 10 14.001 12 2 .667 4.667 1 8 1 12 0 19.667-6.333 23-19l67-285c2-7.333 2.833-13.5 2.5-18.5s-1.166-7.833-2.499-8.5h-1z"/><glyph glyph-name="mobileme" unicode="mobileme" d="M625 304c14-4.667 27.669-11.999 41.002-21.999s20-25.333 20-46c0-10-2.333-20.833-7-32.5s-10.834-22.5-18.501-32.5-16.834-18.167-27.501-24.5-22-9.5-34-9.5H251c-12 0-23.333 2.833-34 8.5s-20 13.167-28 22.5-14.333 20-19 32-7 24-7 36c0 12.667 2.833 23.5 8.5 32.5s12.667 16.5 21 22.5 17.333 10.333 27 13 18.5 4 26.5 4c6 0 10.333-.333 13-1v5c0 22.667 7.167 42 21.5 58s31.5 24 51.5 24c10.667 0 20.5-2.333 29.5-7s17.167-11 24.5-19c7.333 24 22 43.833 44 59.5s47 23.5 75 23.5c16.667 0 32.667-3.167 48-9.5s28.5-14.833 39.5-25.5 19.833-23.167 26.5-37.5 10-29.5 10-45.5c0-5.333-.333-10.333-1-15s-1.667-9.334-3-14.001z"/><glyph glyph-name="mrwong" unicode="mrwong" d="m526 205 16.001-10.505c5.333-3.667 10-9.167 14-16.5s7-17.166 9-29.499 2.333-28.5 1-48.5c-.667-12-2.667-21.333-6-28s-6.666-10.167-9.999-10.5-6.5 2.5-9.5 8.5-4.5 15.333-4.5 28c-.667 28.667-3.834 49-9.501 61s-14.5 18.333-26.5 19c-4.667 0-11 .167-19 .5s-17 .5-27 .5v-51.5c0-15.667-.333-27.167-1-34.5 0-8-1.667-14.167-5-18.5s-6.833-6.833-10.5-7.5-7 .333-10 3-4.5 7-4.5 13v97h-33c-10 0-16.667-.333-20-1-8-1.333-16.5-9-25.5-23s-12.5-35.333-10.5-64c.667-10.667-.5-18.5-3.5-23.5s-6.5-7.5-10.5-7.5-7.5 2.667-10.5 8-4.5 13.333-4.5 24c-.667 10-.667 19.667 0 29 .667 8 1.5 16.167 2.5 24.5s2.5 15.166 4.5 20.5c4 10.666 12.667 21.166 26 31.5s30.333 15.832 51 16.5h34v64c-13.333 1.332-26.166 5.165-38.499 11.498s-20.166 16.833-23.499 31.5c-1.333 8-2.5 17.333-3.5 28s-2.167 22.334-3.5 35.001c-10 0-20.167-.333-30.5-1s-20.166-1-29.499-1h-24.5c-7 0-11.833.333-14.5 1-3.333.667-5.333 2.834-6 6.501s-.5 7.5.5 11.5 2.833 7.667 5.5 11 6 5 10 5c9.333 1.333 22.333 1.833 39 1.5s32.667-.5 48-.5c-1.333 20-1.833 38.333-1.5 55s.833 26.667 1.5 30c1.333 7.333 3.333 14 6 20s6.667 8.333 12 7 10.166-5 14.499-11 5.5-17.667 3.5-35c-.667-7.333-1.334-17-2.001-29s-1.334-24.667-2.001-38h96v87c0 6.667 3 12.334 9 17.001s11.333 2.334 16-6.999c1.333-2.667 2.5-7.334 3.5-14s1.833-14.5 2.5-23.5 1.167-18.668 1.5-29 .5-20.5.5-30.5c15.333 0 28.666-.168 39.999-.5s18.666-.834 21.999-1.5c9.333-.668 17.166-1.835 23.499-3.502s9.5-5.5 9.5-11.5c0-3.333-1.5-5.833-4.5-7.5s-7-3-12-4-10.333-1.667-16-2-10.5-.5-14.5-.5h-17.5c-8.333 0-18.166-.333-29.499-1 0-9.333-.167-17.5-.5-24.5s-.5-12.167-.5-15.5c-1.333-13.333-5.166-26.166-11.499-38.499s-16.5-20.5-30.5-24.5c-4.667-1.333-11-2.666-19-3.999 0-6.667.167-15.667.5-27s.5-23.666.5-36.999c16-.667 30.833-1.667 44.5-3s23.167-3.666 28.5-6.999zM384.001 384.995c.667-15.333 2.332-29 4.999-41s6.667-19.667 12-23c6.667-4 14.5-6.333 23.5-7s17.5-.167 25.5 1.5 15 4.667 21 9 9 9.833 9 16.5v45c-18 0-35.667-.167-53-.5s-31.666-.5-42.999-.5zm-172.002-184c-11.333-2.667-18.168-2.497-20.501.503s-2.833 6.833-1.5 11.5c2 5.333 6 11.666 12 18.999l45 19 34.5 15c11 4.667 19.167 8 24.5 10 4.667 2 10.5 4 17.5 6s13 3.333 18 4 8.333-.333 10-3-.5-7.334-6.5-14.001c-5.333-7.333-13.166-14.5-23.499-21.5s-21.833-13.5-34.5-19.5-25.5-11.333-38.5-16-25.167-8.334-36.5-11.001zm447.998 26.003c.667-4.667-.165-7.668-2.498-9.001s-5.333-1.833-9-1.5-7.834 1-12.501 2-9 1.833-13 2.5-9.667 2.5-17 5.5-15 6.333-23 10l-22.5 10c-7 3-11.833 4.833-14.5 5.5l-10 2.5c-4 1-7.833 2.5-11.5 4.5s-6.334 4.5-8.001 7.5-1.834 6.833-.501 11.5c2.667 7.333 8.167 10.833 16.5 10.5s21.833-4.166 40.5-11.499l29-12.5c10-4.333 19.167-8.5 27.5-12.5s15.333-8 21-12 8.834-8.333 9.501-13z"/><glyph glyph-name="msn" unicode="msn" d="M522 130c-11.333 8-22.001 19.67-32.001 35.003-.667 7.333-1.5 15.666-2.5 24.999s-3.167 19.666-6.5 30.999c7.333-4 17.5-8 30.5-12s29.167-6 48.5-6c5.333 0 10.5.167 15.5.5s10.167.833 15.5 1.5c17.333 2.667 32.5 9.5 45.5 20.5s24.167 24.833 33.5 41.5c2-14 2-28.333 0-43s-5.333-28.834-10-42.501-10.5-26.167-17.5-37.5-13.833-21-20.5-29c-8-9.333-14.667-15.166-20-17.5S592.333 94 589 94c-7.333 0-16.333 3.168-27 9.5s-24 15.167-40 26.5zM421.999 258.003c-8.667 19.333-15.001 36.999-19.001 52.999s-6.667 29.667-8 41c-1.333 4.667-2 8.834-2 12.501v10.5c0 1.333.167 2.333.5 3s.5 1.667.5 3c.667 2 1.334 3 2.001 3 1.333 0 3.333-1.5 6-4.5s6.667-8.5 12-16.5 11.5-19 18.5-33 15.167-31.667 24.5-53c10-24.667 16.667-47.167 20-67.5s5.333-35.833 6-46.5v-8c-5.333 3.333-13.5 13.333-24.5 30s-23.167 41-36.5 73zm166.999-40.001c-5.333-.667-10.167-1.167-14.5-1.5s-9.166-.5-14.499-.5c-25.333 0-44.833 3.333-58.5 10s-21.834 11-24.501 13c-2 6.667-4.167 13.167-6.5 19.5l-7.5 20.5c-5.333 13.333-10.666 25.333-15.999 36l-15 30c23.333 13.333 50.666 20 81.999 20 16 0 31.833-1.833 47.5-5.5s30.167-8.5 43.5-14.5 25-13 35-21 17-16.667 21-26c1.333-1.333 2.166-3 2.499-5s1.166-4 2.499-6c-9.333-18.667-20.166-34.167-32.499-46.5s-27.166-19.833-44.499-22.5zm-198.001-34c-8 0-17.166 1.666-27.499 4.999s-21.833 9.333-34.5 18c-3.333 14.667-4.333 29.667-3 45s6.666 30 15.999 44c9.333 13.333 18.166 22.5 26.499 27.5s15.833 8.167 22.5 9.5c2.667-11.333 6-23.666 10-36.999s9-27 15-41c2.667-7.333 5.334-14 8.001-20s5.667-12 9-18c-3.333-6.667-7.5-13-12.5-19s-10.833-10-17.5-12c-2.667-1.333-6.667-2-12-2zm-1.999 161.999c-8-1.333-16.997-5.002-26.997-11.002s-20.333-16.667-31-32c-8.667-13.333-14.167-27.333-16.5-42s-2.5-29-.5-43c-19.333 14.667-40.333 36.334-63 65.001-27.333 36.667-47.833 66.667-61.5 90s-23.334 42-29.001 56-8.334 23.833-8.001 29.5.833 9.167 1.5 10.5c.667 2 4 3 10 3 8 0 17.833-1.833 29.5-5.5s24.167-8.334 37.5-14.001 26.666-12.167 39.999-19.5 26-14.666 38-21.999l41.5-28c13.667-9.333 26.167-20.666 37.5-33.999 0-1.333.333-2.333 1-3zm308.003 79.998c-1.333-20.667-3.835-41.502-7.502-62.502s-9.167-40.833-16.5-59.5c-5.333 10.667-13.166 20.5-23.499 29.5s-22.666 16.833-36.999 23.5-30 11.834-47 15.501-34.167 5.5-51.5 5.5c-32.667 0-62.334-7-89.001-21-1.333 2.667-2.666 4.667-3.999 6 6 20.667 16.667 41.834 32 63.501s32.333 41.5 51 59.5 37.834 33.5 57.501 46.5 37.167 21.167 52.5 24.5c3.333.667 6.166 1.167 8.5 1.5s4.832.5 7.5.5c14 0 26.332-5.333 37-16 10.666-11.333 18.666-27.5 24-48.5s7.332-43.833 6-68.5zM473.999 147.997c.667-7.333.499-15.668-.501-25.001s-2.167-18.333-3.5-27-3-16-5-22-4-9.667-6-11c-.667-.667-2-1-4-1-8.667 0-17.834 3.333-27.501 10s-19 14.5-28 23.5-17.333 18.167-25 27.5-13.5 17-17.5 23c-8.667 10.667-16 24.667-22 42 20.667-12 39.334-18 56.001-18 6 0 11.667 1 17 3 7.333 3.333 13.5 7.666 18.5 12.999s9.5 11.333 13.5 18c6-11.333 11.833-21 17.5-29s10.834-14.333 15.501-19c0-1.333.167-2.666.5-3.999s.5-2.666.5-3.999z"/><glyph glyph-name="myspace" unicode="myspace" d="M279 431c-11.333 0-21 4-29 12s-12 17.667-12 29 4 21 12 29 17.667 12 29 12 21-4 29-12 12-17.667 12-29-4-21-12-29-17.667-12-29-12zm104-13c-15.333 0-28.166 5.167-38.499 15.5s-15.5 23.166-15.5 38.499 5.167 28.166 15.5 38.499 23.166 15.5 38.499 15.5 28.166-5.167 38.499-15.5 15.5-23.166 15.5-38.499-5.167-28.166-15.5-38.499S398.333 418 383 418zm137-17c-19.333 0-36 7-50 21s-21 30.667-21 50 7 35.833 21 49.5 30.667 20.5 50 20.5 35.833-6.833 49.5-20.5S590 491.333 590 472s-6.833-36-20.5-50-30.167-21-49.5-21zm2-27c13.333 0 25.997-2.5 37.997-7.5s22.5-11.833 31.5-20.5 16.167-18.834 21.5-30.501 8-24.167 8-37.5v-180h-209v105h-104v78h-79v81c0 13.333 5 25 15 35s22 15 36 15c11.333 0 21.5-3.5 30.5-10.5s14.833-16.167 17.5-27.5c14 17.333 32.667 26 56 26 16.667 0 31.334-5.167 44.001-15.5S449.332 361.333 454 346c8.667 8.667 18.834 15.5 30.501 20.5s24.167 7.5 37.5 7.5z"/><glyph glyph-name="newsvine" unicode="newsvine" d="m451 37-52-.002v110l-63 47c-5.333-3.333-11-5-17-5-10.667 0-19.5 3.5-26.5 10.5s-10.5 15.833-10.5 26.5c0 10 3.5 18.667 10.5 26s15.833 11 26.5 11c10 0 18.5-3.667 25.5-11s10.5-16 10.5-26c0-1.333-.167-2.333-.5-3s-.5-1.667-.5-3l45-34v110l-63 47c-5.333-3.333-11-5-17-5-10.667 0-19.5 3.5-26.5 10.5s-10.5 15.833-10.5 26.5c0 10 3.5 18.667 10.5 26s15.833 11 26.5 11c10 0 18.5-3.667 25.5-11s10.5-16 10.5-26c0-1.333-.167-2.333-.5-3s-.5-1.667-.5-3l45-34v104l-64 46c-4.667-2.667-10-4-16-4-10.667 0-19.5 3.5-26.5 10.5s-10.5 15.833-10.5 26.5c0 10 3.5 18.667 10.5 26s15.833 11 26.5 11c10 0 18.5-3.667 25.5-11s10.5-16 10.5-26c0-1.333-.167-2.5-.5-3.5s-.5-2.167-.5-3.5l45-33v82h52v-156l44 33c0 1.333-.167 2.166-.5 2.5s-.5 1.165-.5 2.498c0 10 3.5 18.667 10.5 26s15.833 11 26.5 11c10 0 18.667-3.667 26-11s11-16 11-26-3.5-18.667-10.5-26-15.833-11-26.5-11c-6.667 0-12.667 1.667-18 5l-62-45v-103l44 33c0 .667-.167 1.334-.5 2.001s-.5 1.334-.5 2.001c0 10.667 3.5 19.5 10.5 26.5s15.833 10.5 26.5 10.5c10 0 18.667-3.5 26-10.5s11-15.833 11-26.5c0-10-3.5-18.667-10.5-26s-15.833-11-26.5-11c-6.667 0-13 2-19 6l-61-46v-109l44 33c0 .667-.167 1.334-.5 2.001s-.5 1.334-.5 2.001c0 10 3.5 18.667 10.5 26s15.833 11 26.5 11c10 0 18.667-3.667 26-11s11-16 11-26-3.5-18.667-10.5-26-15.833-11-26.5-11c-6.667 0-13 2-19 6l-61-45V37z"/><glyph glyph-name="paypal" unicode="paypal" d="m480 399-62.001.001-27-123h20l22 99h62c10.667 0 20-3 28-9-2.667 9.333-7.667 17.166-15 23.499S491.333 399 480 399zm154.999 20.001c10-12 17.331-26.498 21.998-43.498s4.334-37.167-.999-60.5c-4.667-22-12.5-42.5-23.5-61.5s-24.5-35.333-40.5-49-33.667-24.5-53-32.5-40-12-62-12h-90l-30-132h-127l5 25h107l30 132h91c21.333 0 41.833 3.833 61.5 11.5s37.334 18.5 53.001 32.5 29 30.333 40 49 18.833 39 23.5 61c3.333 17.333 4.5 32.166 3.5 44.499s-4.167 24.166-9.5 35.499zM499.997 523.003c16 0 32.001-3.168 48.001-9.501s29.833-15.666 41.5-27.999 20.167-28 25.5-47 5.333-41.167 0-66.5c-4.667-22-12.5-42-23.5-60s-24.333-33.333-40-46-33.334-22.5-53.001-29.5-40.167-10.5-61.5-10.5h-90l-31-124h-127l96 421h215zm-3.999-136.001c4.667 16.667 2.668 31.167-5.999 43.5s-20.667 18.5-36 18.5h-62l-27-124h59c16 0 31.167 6.167 45.5 18.5s23.166 26.833 26.499 43.5z"/><glyph glyph-name="photobucket" unicode="photobucket" d="M660 456c7.333 0 13.499-2.667 18.499-8s7.5-11.666 7.5-18.999v-261c0-7.333-2.5-13.5-7.5-18.5s-11.167-7.5-18.5-7.5h-141c-28.667-17.333-60-26-94-26-35.333 0-66.666 8.667-93.999 26H190c-7.333 0-13.666 2.5-18.999 7.5s-8 11.167-8 18.5v261c0 7.333 2.667 13.666 8 18.999s11.666 8 18.999 8c0 7.333 2.5 13.5 7.5 18.5s11.167 7.5 18.5 7.5h52c7.333 0 13.5-2.5 18.5-7.5s7.5-11.167 7.5-18.5h37c13.333 8 28 14.333 44 19s32.667 7 50 7 33.833-2.333 49.5-7 30.5-11 44.5-19h141zM296.999 168c-17.333 16.667-30.833 36.334-40.5 59.001s-14.5 46.667-14.5 72 4.833 49.166 14.5 71.499 23.167 41.833 40.5 58.5h-107V168h107zm107-25c3.333-.667 6.828-.997 10.495-.997h21c3.667 0 7.167.333 10.5 1 1.333.667 3 1 5 1l10 2c3.333.667 6.666 1.667 10 3 8 2 14.332 4.333 19 7 .666.667 1.333 1 2 1s1.334.333 2.001 1c3.333 1.333 6.333 2.833 9 4.5s5.334 3.5 8.001 5.5c21.333 14 38.5 32.333 51.5 55s19.5 48 19.5 76c0 27.333-6.5 52.333-19.5 75s-30.167 41-51.5 55c-2.667 2-5.334 3.833-8 5.5s-5.668 3.167-9 4.5c-1.334 1.333-2.667 2-4 2-3.333 1.333-6.5 2.666-9.5 3.999s-6.167 2.666-9.5 3.999c-5.333 1.333-12 2.666-20 3.999-1.333 0-2.166.167-2.499.5s-1.166.5-2.499.5c-3.333.667-6.833 1.167-10.5 1.5s-7.167.5-10.5.5-6.833-.167-10.5-.5-7.167-.833-10.5-1.5c-1.333 0-2.333-.167-3-.5s-1.334-.5-2.001-.5c-3.333-.667-6.666-1.167-9.999-1.5s-6.666-1.166-9.999-2.499l-10-4-10-4c-.667 0-1.667-.667-3-2-3.333-1.333-6.333-2.833-9-4.5l-9-5.5c-21.333-14-38.333-32.333-51-55s-19-47.667-19-75c0-28 6.333-53.333 19-76s29.667-41 51-55l9-5.5c2.667-1.667 5.667-3.167 9-4.5.667-.667 1.167-1 1.5-1s.833-.333 1.5-1c6-2.667 12.667-5 20-7 7.333-2.667 14-4.334 20-5.001 2 0 3.667-.333 5-1zm255.995 286.003h-107c17.333-16.667 30.833-36.167 40.5-58.5s14.5-46.166 14.5-71.499-4.833-49.333-14.5-72-23.167-42.334-40.5-59.001h107v261zm-131-130c0 29.333-10 54-30 74s-44.667 30-74 30v26c18 0 34.833-3.333 50.5-10s29.5-16 41.5-28 21.333-25.833 28-41.5 10-32.5 10-50.5h-26z"/><glyph glyph-name="picasa" unicode="picasa" d="m531 536-.002-174.999c0 1.333-4.667 6.666-14 15.999s-21.166 20.5-35.499 33.5l-47 42-47.5 42-37 33c-10 9-15.667 13.833-17 14.5 30 11.333 60.333 17 91 17 18.667 0 37.834-2 57.501-6s36.167-9.667 49.5-17zM294.998 74.001l-.001 225.002-53-48-37-34c-11.333-10.667-17.333-16.334-18-17.001 10.667-26 24.834-49.833 42.501-71.5s39.5-39.834 65.5-54.501zM163.997 297.003c0-11.333.832-22.669 2.499-34.002s4.167-22.666 7.5-33.999c1.333.667 7.833 6.334 19.5 17.001l43 39.5 54.5 50 54 49.5 42.5 38.5c11.667 10.333 17.834 15.833 18.501 16.5-1.333.667-7 5.667-17 15l-33 30.5-33 30c-10 9-15.333 13.833-16 14.5-44-22.667-78.833-54.667-104.5-96s-38.5-87-38.5-137zM320.996 193V58c26.667-12 53.667-19.333 81-22h48c45.333 4.667 86.833 19 124.5 43s66.5 62 86.5 114h-340zm236 328-.001-301.999h116c4.667 13.333 7.834 26.666 9.501 39.999s2.5 27.333 2.5 42c0 46-11.5 88.167-34.5 126.5s-54.167 69.5-93.5 93.5z"/><glyph glyph-name="pinterest" unicode="pinterest" d="M407 159c-2.667 2-5.001 5.172-7.001 9.505s-4.667 5.166-8 2.499c-6-24-13-49-21-75s-17.667-48.667-29-68h-32v1c-2 10-2.5 23-1.5 39s2.167 28.667 3.5 38c2 12 5 24.833 9 38.5s8.333 27.5 13 41.5 8.5 28 11.5 42 4.5 27 4.5 39c0 10.667-1.667 21.5-5 32.5s-4 22.167-2 33.5c1.333 10.667 5.833 20.667 13.5 30s16.334 16.333 26.001 21 19.167 5.834 28.5 3.5 16.666-9.5 21.999-21.5c6-14 6.833-28.666 2.5-44s-9.166-30.332-14.499-45-9-28.333-11-41 2.333-24 13-34c4.667-4 11.667-7.167 21-9.5s18.666-2.5 27.999-.5c14.667 2.667 27.334 9.667 38.001 21s19.167 24.666 25.5 39.999 10.333 32.166 12 50.499 1.167 36-1.5 53-7.834 32.333-15.501 46-17.5 24.167-29.5 31.5c-26.667 15.333-53.334 21.666-80.001 18.999s-50.5-11-71.5-25-37.5-32.167-49.5-54.5-16.667-45.833-14-70.5c.667-9.333 3.334-17.833 8.001-25.5s8.5-15 11.5-22 4.333-14 4-21-4.833-14.5-13.5-22.5c-24.667 9.333-42.167 22.666-52.5 39.999S228.333 292 229 320c0 29.333 6.5 55.666 19.5 78.999s30.333 42.833 52 58.5 46.667 27 75 34 57.833 8.833 88.5 5.5c20-2 39-7.167 57-15.5s34-18.833 48-31.5 25.5-27.167 34.5-43.5 14.5-33.166 16.5-50.5c2-16 2-32.5 0-49.5s-5.667-33.832-11-50.5-12.333-32-21-46-19-26-31-36c-8-6.666-18.333-12.666-31-18s-26-9-40-11-28-2.166-42-.5-26.333 6.5-37 14.5z"/><glyph glyph-name="podcast" unicode="podcast" d="M425 456c-32 0-61.996-5-89.996-15s-52.5-23.833-73.5-41.5-37.833-38.834-50.5-63.501-19.667-51.667-21-81v9c0 30 6.167 58.167 18.5 84.5s29.166 49.5 50.499 69.5 46.166 35.667 74.499 47 58.833 17 91.5 17 63.167-5.667 91.5-17 53.166-27 74.499-47 38.166-43.167 50.499-69.5 18.5-54.5 18.5-84.5v-9c-1.333 29.333-8.333 56.333-21 81s-29.5 45.834-50.5 63.501S543 431 515 441s-58 15-90 15zm.004-79c-20 0-38.835-3-56.502-9s-33.167-14.167-46.5-24.5-24-23-32-38-12.667-31.5-14-49.5v8c0 18.667 3.833 36.5 11.5 53.5s18.334 31.833 32.001 44.5 29.5 22.667 47.5 30 37.333 11 58 11 40-3.667 58-11 33.667-17.333 47-30 24-27.5 32-44.5 12-34.833 12-53.5c0-3.333-.333-6-1-8-1.333 18-6 34.5-14 49.5s-18.667 27.667-32 38-28.666 18.5-45.999 24.5-36 9-56 9zm-.002-120c-13.333 0-24.5 4.167-33.5 12.5s-13.5 18.5-13.5 30.5 4.5 22.167 13.5 30.5 20.167 12.5 33.5 12.5c12.667 0 23.5-4.167 32.5-12.5s13.5-18.5 13.5-30.5-4.5-22.167-13.5-30.5-19.833-12.5-32.5-12.5zm0-193c-19.333 0-35.664 11.5-48.997 34.5s-20 50.833-20 83.5c0 16.667 1.833 29.5 5.5 38.5s8.667 15.667 15 20 13.666 6.833 21.999 7.5 17.166 1 26.499 1 18.166-.333 26.499-1 15.666-3.167 21.999-7.5 11.333-11 15-20 5.5-21.833 5.5-38.5c0-32.667-6.667-60.5-20-83.5S444.335 64 425 64z"/><glyph glyph-name="posterous" unicode="posterous" d="m250 34 .001 394.999c0 23.333-.333 44.666-1 63.999l-2 56h54l4-65h5l3 2c27.333 47.333 71.333 71 132 71 23.333 0 44.666-4.667 63.999-14s36-22.166 50-38.499 24.833-36 32.5-59 11.5-48.5 11.5-76.5c0-34.667-5-64.667-15-90s-23-46.166-39-62.499-34.167-28.5-54.5-36.5-40.833-12-61.5-12c-25.333 0-47.833 5.167-67.5 15.5S330.333 208 319 226l-1 2h-6l-1-4V34h-61zm174.001 475.999c-26 0-49.002-8.168-69.002-24.501s-33.333-37.5-40-63.5c-2.667-10.667-4-20-4-28v-66c0-11.333 1-21 3-29 6.667-25.333 19.834-45.666 39.501-60.999s42.167-23 67.5-23c36 0 64.833 13.5 86.5 40.5s32.5 63.5 32.5 109.5c0 21.333-2.833 40.833-8.5 58.5s-13.667 33-24 46-22.666 23-36.999 30-29.833 10.5-46.5 10.5z"/><glyph glyph-name="qik" unicode="qik" d="M587 298c3.333-5.333 6.502-11.005 9.502-17.005s6.5-11.833 10.5-17.5 8.5-10.5 13.5-14.5 11.5-7 19.5-9c-.667-6-3.5-11-8.5-15s-10.667-7-17-9-13-2.667-20-2-13.167 3-18.5 7c-4.667 2.667-8.834 7.334-12.501 14.001s-7.167 12.667-10.5 18c-4 6-7.667 11.833-11 17.5l-10 16.5c-2-11.333-3.833-23.166-5.5-35.499s-3.834-24.5-6.501-36.5c-7.333 0-14.333.167-21 .5s-12.5 1.5-17.5 3.5-8.833 5-11.5 9-3.667 9.667-3 17c0 3.333 1.167 12.5 3.5 27.5l8 50 9 54.5c3 18 5.167 32 6.5 42 0 1.333.333 2 1 2 16 1.333 29.167.5 39.5-2.5s14.833-12.167 13.5-27.5c-1.333-13.333-3.5-28-6.5-44s-5.167-30-6.5-42c6 4.667 11.333 10 16 16l14 15.5 15 15.5c2.667 2.667 5.5 5.334 8.5 8.001s6.167 4.667 9.5 6c8 3.333 17.5 4.333 28.5 3s22.167-1.666 33.5-.999c-2.667-3.333-7.5-8.166-14.5-14.499l-22-20-22-20.5c-7-6.667-11.833-11.667-14.5-15zM446.002 428.995c10.667-2 17.002-6.998 19.002-14.998 3.333-8.667 2.666-15.834-2.001-21.501s-10-9.834-16-12.501c-8-3.333-16.333-3.833-25-1.5s-13.667 7.5-15 15.5c-3.333 10.667-1.833 18.5 4.5 23.5s14.166 8.833 23.499 11.5h11zm-42.998-64.998c11.333 0 21.836-.333 31.503-1s16.167-4.334 19.5-11.001c2-4.667 2.667-10.167 2-16.5s-1.334-12.166-2.001-17.499l-8-52.5c-2.667-17.667-5.334-34.167-8.001-49.5-10-.667-19.833-.667-29.5 0s-16.5 3.667-20.5 9c-2.667 4-3.834 9.333-3.501 16s1.166 13 2.499 19l8 52.5c2.667 17.667 5.334 34.167 8.001 49.5v2zm-93.997 9c20-1.333 35.668-8.001 47.001-20.001s16.333-29.333 15-52c-1.333-11.333-3-22.333-5-33s-3.667-21.667-5-33c-2-11.333-3.833-22.333-5.5-33s-3.167-22-4.5-34h-27c-8 0-13.833 2.167-17.5 6.5s-5.834 9.5-6.501 15.5-.5 12.667.5 20 2.167 14 3.5 20c-3.333-2-6.333-4.5-9-7.5s-6-5.167-10-6.5c-3.333-1.333-6.333-2.333-9-3l-8-2c-25.333-2.667-45 2.833-59 16.5s-20.333 30.834-19 51.501c.667 13.333 3.334 24.833 8.001 34.5s10.667 18.5 18 26.5c9.333 10.667 21.666 19.167 36.999 25.5s34 8.833 56 7.5zm-11.999-114.001c4 3.333 7.667 8.167 11 14.5s5.5 13 6.5 20 .833 13.667-.5 20-4.333 11.166-9 14.499c-2.667 1.333-6.167 2.5-10.5 3.5s-8.166 1.167-11.499.5c-6-.667-11.667-2.667-17-6-4-3.333-7.5-8-10.5-14s-5.167-12.5-6.5-19.5-1.333-13.833 0-20.5 4.666-11.667 9.999-15c6-3.333 12.833-4.666 20.5-3.999s13.5 2.667 17.5 6z"/><glyph glyph-name="quora" unicode="quora" d="M634 311c-1.333-37.333-11.004-71.332-29.004-101.999s-41.667-55.667-71-75c7.333-10 14.333-17.5 21-22.5s12.667-8.5 18-10.5c6-2.667 11.333-3.334 16-2.001V62c-10-4.667-20.333-7.667-31-9-9.333-1.333-19.166-.5-29.499 2.5S508.331 65.667 498.998 77c-8.667 10.667-16 21-22 31-19.333-6-39.333-9-60-9-28.667 0-55.5 5.5-80.5 16.5s-46.5 26.167-64.5 45.5-32.167 41.833-42.5 67.5-14.833 53.167-13.5 82.5c.667 29.333 7 56.833 19 82.5s27.833 48.167 47.5 67.5 42.334 34.5 68.001 45.5S403.333 523 432 523s55.667-5.5 81-16.5 47-26.167 65-45.5 32-41.833 42-67.5 14.667-53.167 14-82.5zm-97.004 4.001c.667 21.333-1.502 41.498-6.502 60.498s-12.167 35.5-21.5 49.5-20.5 25.167-33.5 33.5-26.833 12.5-41.5 12.5c-15.333 0-29.666-4.167-42.999-12.5s-25.166-19.5-35.499-33.5-18.666-30.5-24.999-49.5-9.833-39.167-10.5-60.5 1.5-41.5 6.5-60.5 12.167-35.5 21.5-49.5 20.333-25.167 33-33.5 26.667-12.5 42-12.5c10.667 0 19.334 1.667 26.001 5-1.333 3.333-2.833 6.333-4.5 9s-3.167 5.334-4.5 8.001c-4 5.333-8.167 9.166-12.5 11.499s-8.5 3.833-12.5 4.5c-4.667.667-9 .334-13-.999v37c10.667 4 21.667 5.667 33 5 9.333-.667 19.666-3.667 30.999-9s21.666-15.333 30.999-30c11.333 14.667 20.5 31.834 27.5 51.501s11.167 41.167 12.5 64.5z"/><glyph glyph-name="reddit" unicode="reddit" d="M525 505c0 8 1.667 15.333 5 22l-89 21c-4.667 0-7.667-.667-9-2-3.333-2-5-4.667-5-8l-18-118c0-8 3.333-12.667 10-14h2c6 0 9.667 3.333 11 10l15 106zm49-64c-17.333 0-32 6.333-44 19s-18 27.667-18 45 6 32.333 18 45 26.667 19 44 19 31.833-6.333 43.5-19 17.5-27.667 17.5-45-5.833-32.333-17.5-45-26.167-19-43.5-19zm0 102c-10 0-18.5-3.667-25.5-11S538 515.667 538 505s3.5-19.667 10.5-27 15.5-11 25.5-11 18.5 3.667 25.5 11 10.5 16.333 10.5 27-3.5 19.667-10.5 27-15.5 11-25.5 11zm45-132c-12 0-23-2.834-33-8.501s-18-13.167-24-22.5l10.5-6.5a119.211 119.211 0 0 0 10.5-7.5c3.333 5.333 8.166 9.833 14.499 13.5s13.5 5.5 21.5 5.5c11.333 0 21.166-3.833 29.499-11.5s12.5-17.167 12.5-28.5c0-10-3.167-18.667-9.5-26s-14.166-12-23.499-14l4-12c1.333-4 2.333-8.333 3-13 14.667 3.333 26.834 11 36.501 23s14.5 26 14.5 42c0 18.667-6.5 34.334-19.5 47.001s-28.833 19-47.5 19zM214 306.999c-7.333 3.333-13.499 8.334-18.499 15.001s-7.5 14.334-7.5 23.001c0 11.333 4.167 20.833 12.5 28.5s18.166 11.5 29.499 11.5c13.333 0 24.333-5.333 33-16l21 15c-6 8-13.667 14.5-23 19.5s-19.666 7.5-30.999 7.5c-18.667 0-34.5-6.333-47.5-19s-19.5-28.334-19.5-47.001c0-14.667 4-27.5 12-38.5s18.667-19.167 32-24.5c1.333 9.333 3.666 17.666 6.999 24.999zM421.001 98c-31.333 0-60.833 4.333-88.5 13S280.667 131.667 260 147s-37 33-49 53-18 41.667-18 65c0 22.667 6 44.167 18 64.5s28.333 38 49 53 44.834 26.833 72.501 35.5 57.167 13 88.5 13 60.833-4.333 88.5-13 51.667-20.5 72-35.5 36.5-32.667 48.5-53 18-41.833 18-64.5c0-23.333-6-45-18-65s-28.167-37.667-48.5-53-44.333-27.333-72-36-57.167-13-88.5-13zm0 307c-28 0-54.333-3.667-79-11s-46.167-17.333-64.5-30-32.833-27.5-43.5-44.5-16-35.167-16-54.5 5.333-37.5 16-54.5 25.167-31.833 43.5-44.5 39.833-22.667 64.5-30 51-11 79-11 54.167 3.667 78.5 11 45.666 17.333 63.999 30 32.833 27.5 43.5 44.5 16 35.167 16 54.5-5.333 37.5-16 54.5-25.167 31.833-43.5 44.5-39.666 22.667-63.999 30-50.5 11-78.5 11zm79-187c-6-6-15.335-11-28.002-15-7.333-2-15-3.667-23-5s-16.667-2-26-2-17.833.667-25.5 2-15.167 3-22.5 5c-14 4.667-23.333 9.667-28 15-6 6-12 6-18 0-2.667-2.667-4-5.834-4-9.501s1.333-6.834 4-9.501c4.667-5.333 10.334-9.666 17.001-12.999s14-6.333 22-9 16.667-4.5 26-5.5 19-1.5 29-1.5c22.667 0 41.334 2.333 56.001 7 16.667 5.333 29.667 12.666 39 21.999 2.667 2.667 4 5.834 4 9.501s-1.333 6.834-4 9.501c-6 6-12 6-18 0zm-129.002 86c0-8.667-2.833-15.834-8.5-21.501s-12.5-8.5-20.5-8.5-15 2.833-21 8.5-9 12.834-9 21.501 3 15.834 9 21.501 13 8.5 21 8.5 14.833-2.833 20.5-8.5 8.5-12.834 8.5-21.501zm164 0c0-8.667-2.833-15.834-8.5-21.501s-12.5-8.5-20.5-8.5-15 2.833-21 8.5-9 12.834-9 21.501 3 15.834 9 21.501 13 8.5 21 8.5 14.833-2.833 20.5-8.5 8.5-12.834 8.5-21.501z"/><glyph glyph-name="retweet" unicode="retweet" d="M346 457h236c7.333 0 13.5-2 18.5-6s7.5-9.667 7.5-17V274h78L555 143 425 274h78v104h-78zm-78-314c-6.667 0-12.667 2.667-18 8s-8 11.333-8 18v157h-79l131 131 131-131h-79V221h79l78-78H268z"/><glyph glyph-name="rss" unicode="rss" d="M242 169c14.667 0 27-5.167 37-15.5s15-22.5 15-36.5c0-14.667-5-27.167-15-37.5S256.667 64 242 64s-27 5.167-37 15.5-15 22.833-15 37.5c0 14 5 26.167 15 36.5s22.333 15.5 37 15.5zm-52 366c64.667 0 125.5-12.332 182.5-36.999S479.333 439.667 522 397s76.334-92.667 101.001-150 37-118.333 37-183h-98c0 51.333-9.833 99.666-29.5 144.999s-46.334 84.833-80.001 118.5-73 60.334-118 80.001S241.333 437 190 437v98zm0-182.999c39.333 0 76.499-7.499 111.499-22.499s65.5-35.5 91.5-61.5 46.5-56.5 61.5-91.5 22.5-72.5 22.5-112.5h-96c0 26.667-5 51.667-15 75s-23.667 43.666-41 60.999-37.666 31-60.999 41-48 15-74 15v96z"/><glyph glyph-name="scribd" unicode="scribd" d="M483 158c0-18 4.667-35.333 14-52-2-2-4-4.167-6-6.5s-4-4.5-6-6.5c-26.667-27.333-60-41-100-41-38 0-71.667 10.667-101 32-30 22.667-52.333 55-67 97l1 1c-1.333 5.333-2 10-2 14 0 15.333 5 28.166 15 38.499s22.333 15.5 37 15.5 27-5.167 37-15.5 15-23.166 15-38.499-5.333-28.333-16-39c20.667-24.667 47-37 79-37 22.667 0 41.667 7 57 21 14.667 14 22 31.667 22 53 0 12.667-4 25.667-12 39-4 6-8.333 11.667-13 17s-10 10-16 14c-10.667 8-29.334 17.667-56.001 29-26 11.333-45.667 21.333-59 30-7.333 4.667-13.833 9.667-19.5 15s-11.167 11-16.5 17-9.666 12.167-12.999 18.5-6.333 12.5-9 18.5c-2 6-3.667 12.333-5 19s-2 13.667-2 21c0 33.333 13.333 62 40 86 26 24 57.667 36 95 36 24 0 49.333-5.667 76-17 20-8.667 38-22 54-40 12-10.667 18-24 18-40 0-15.333-5-28.333-15-39s-22.333-16-37-16-27 5.333-37 16-15 23.667-15 39c0 8.667 1.333 16 4 22-10.667 5.333-24.667 8-42 8-23.333 0-41.666-5.333-54.999-16-14-10-21-23.333-21-40 0-14 6.333-26.667 19-38 12-10.667 32.667-22.667 62-36 30-13.333 52.667-25.333 68-36 8.667-5.333 16.167-11.166 22.5-17.499s12.166-12.833 17.499-19.5c11.333-14 19.333-28.333 24-43 0-1.333.333-2.333 1-3-11.333-9.333-20.333-20.833-27-34.5S483 174.667 483 158zm151 0c0-17.333-5.833-32-17.5-44s-25.834-18-42.501-18c-17.333 0-31.833 6-43.5 18s-17.5 26.667-17.5 44 5.833 32.166 17.5 44.499 26.167 18.5 43.5 18.5c16.667 0 30.834-6.167 42.501-18.5S634 175.333 634 158z"/><glyph glyph-name="sharethis" unicode="sharethis" d="M577 231c23.333 0 43-8.169 59-24.502s24-36.166 24-59.499c0-22.667-8-42.167-24-58.5s-35.667-24.5-59-24.5-43 8.167-59 24.5-24 35.833-24 58.5c0 2.667.333 4.334 1 5.001l-169 85c-15.333-13.333-33-20-53-20-23.333 0-43 8-59 24s-24 35.667-24 59 8 43 24 59 35.667 24 59 24c10 0 19.5-1.833 28.5-5.5S318.667 369 326 363l169 84c-.667 1.333-1 3-1 5 0 23.333 8 43 24 59s35.667 24 59 24 43-8 59-24 24-35.667 24-59-8-43-24-59-35.667-24-59-24c-20 0-37.667 6.667-53 20l-169-85c0-.667.167-1.334.5-2.001s.5-1.334.5-2.001c0-1.333-.167-2.166-.5-2.499s-.5-1.166-.5-2.499l169-84c15.333 13.333 33 20 53 20z"/><glyph glyph-name="skype" unicode="skype" d="M380 541c42.667 4 78.501 1.337 107.501-7.996s54.5-23.666 76.5-43c12.667-11.332 20.834-22.5 24.501-33.5s4.334-21 2.001-30-6.833-16.666-13.5-23-14-9.832-22-10.5c-8-1.332-16.333 1.835-25 9.502l-29.5 25.5c-11 9.333-23.333 18-37 26s-29.5 12.333-47.5 13c-18 0-34.167-4.167-48.5-12.5s-24-18-29-29-4.333-22.167 2-33.5 20.833-19.666 43.5-25l68-15.5c22.667-5 43.834-11.332 63.501-19s37.334-17.833 53.001-30.5 27.834-29.334 36.501-50.001c8.667-21.333 10.167-42.333 4.5-63s-16-39.334-31-56.001-33.667-30.5-56-41.5-45.833-17.167-70.5-18.5-46.334-1-65.001 1-35.334 5.5-50.001 10.5-27.834 11.5-39.501 19.5-22.834 17-33.501 27c-12 11.333-20 22.666-24 33.999s-5 21.833-3 31.5 6.333 17.667 13 24 15 9.833 25 10.5c9.333.667 18-1.5 26-6.5s15.333-10.667 22-17 12.667-12.833 18-19.5 10.666-11.667 15.999-15 13.666-7.166 24.999-11.5 23.833-7.332 37.5-9 27.5-.833 41.5 2.5 26 11 36 23c11.333 13.333 15.833 25 13.5 35s-8.5 18.667-18.5 26-22.333 13.166-37 17.499-29 7.5-43 9.5c-19.333 2.667-39.5 7.5-60.5 14.5s-39.833 16.333-56.5 28-30 25.5-40 41.5-14 34.667-12 56 7.167 40.166 15.5 56.499 18.666 30 30.999 41 26.333 19.667 42 26S363.333 539.667 380 541z"/><glyph glyph-name="slashdot" unicode="slashdot" d="M529 505 346 87H242l183 418h104zm13-288c18.667 0 34.334-6.333 47.001-19s19-28 19-46-6.333-33.333-19-46S560.667 87 542 87c-18 0-33.333 6.333-46 19s-19 28-19 46 6.333 33.333 19 46 28 19 46 19z"/><glyph glyph-name="slideshare" unicode="slideshare" d="M504 100c-14 0-25.833 1.836-35.5 5.503s-17.5 8-23.5 13-10.167 10-12.5 15-3.5 9.167-3.5 12.5v155c0 5.333 5.5 9.333 16.5 12s21.5 4 31.5 4h83c2.667 0 8.834 1.5 18.501 4.5s20.167 6.667 31.5 11 22.166 9.166 32.499 14.499S660.333 357.668 665 363c6.667 7.333 12 11 16 11 1.333 0 2.666-.667 3.999-2 .667-1.333 1-4 1-8s-2.667-11.333-8-22c-7.333-15.333-17.833-27.166-31.5-35.5s-28.167-16.5-43.5-24.5l-13.5-6c-4.333-2-8.833-4.332-13.5-7l-1-1v-87c0-2.666-1-8.333-3-17s-5.667-17.834-11-27.501S548.333 118.333 539 111s-21-11-35-11zm1 249.003c-15.333 0-28.5 5.667-39.5 17s-16.5 25-16.5 41c0 16.667 5.5 30.667 16.5 42s24.167 17 39.5 17 28.5-5.667 39.5-17 16.5-25.333 16.5-42c0-16-5.5-29.667-16.5-41s-24.167-17-39.5-17zm-144-235c-6.667 0-14.667 2.17-24 6.503s-18.166 9.833-26.499 16.5-15.5 14-21.5 22-9 15.333-9 22v95h-2c-14.667 5.333-28 11.333-40 18-10.667 5.333-21 11.166-31 17.499s-17 12.166-21 17.499l-5 5c-7.333 9.333-12.333 16.5-15 21.5s-3 10.167-1 15.5c0 .667.333 1 1 1 3.333 0 8.166-1.833 14.499-5.5s13.166-7.834 20.499-12.501c9.333-6 19-11.833 29-17.5s19-9.5 27-11.5c14.667-3.333 32.5-6 53.5-8s39.167-3 54.5-3h11c11.333 0 20.5-2.167 27.5-6.5s13.5-9.5 19.5-15.5c5.333-4.667 12.833-9.667 22.5-15s20.167-8 31.5-8c12 0 22 4 30 12 12.667 11.333 22 17 28 17l2-1c.667-1.333 1-3.5 1-6.5s-1.667-8.167-5-15.5c-5.333-12-16.333-23.167-33-33.5s-34.667-15.5-54-15.5c-12 0-23.333 2.667-34 8l-3 2v-90c0-6.667-4.667-13.667-14-21s-20.666-11-33.999-11zm-9 235.003c-15.333 0-28.666 5.667-39.999 17s-17 25-17 41c0 16.667 5.667 30.667 17 42s24.666 17 39.999 17 28.5-5.667 39.5-17 16.5-25.333 16.5-42c0-16-5.5-29.667-16.5-41s-24.167-17-39.5-17z"/><glyph glyph-name="smugmug" unicode="smugmug" d="M378 519c0-9.333-4.5-17.5-13.5-24.5S344.333 484 331 484s-24.666 3.5-33.999 10.5-14 15.167-14 24.5c0 10 4.667 18.5 14 25.5S317.667 555 331 555s24.5-3.5 33.5-10.5S378 529 378 519zm165 36c-13.333 0-24.5-3.5-33.5-10.5S496 529 496 519c0-9.333 4.5-17.5 13.5-24.5S529.667 484 543 484s24.5 3.5 33.5 10.5S590 509.667 590 519c0 10-4.5 18.5-13.5 25.5S556.333 555 543 555zm91-142-403.002-.004c-2.667-.667-5.334-2-8.001-4s-5.167-4.667-7.5-8-5.166-8-8.499-14c-14-29.333-22.667-61.5-26-96.5s1.167-68 13.5-99 33.333-56.833 63-77.5 70.5-31 122.5-31c34.667 0 65.834 6.333 93.501 19s52.167 28.834 73.5 48.501 39.833 41.334 55.5 65.001 28.334 46.334 38.001 68.001 16.834 40.834 21.501 57.501 7 28 7 34c0 8.667-1.833 15.5-5.5 20.5S655.667 404.333 651 407c-5.333 2.667-11 4.667-17 6zM379.998 129.996c-10.667 0-22.168.832-34.501 2.499s-24.5 4.667-36.5 9-23.333 10.333-34 18-19.667 17.5-27 29.5c-8 13.333-13.667 27.833-17 43.5s-4.666 31.5-3.999 47.5 3.167 31.333 7.5 46 9.5 28 15.5 40h370c-2-8-5.667-19.333-11-34s-12.5-30.667-21.5-48-20-35.166-33-53.499-28-35-45-50-36.333-27.167-58-36.5-45.5-14-71.5-14z"/><glyph glyph-name="soundcloud" unicode="soundcloud" d="M165 252c0 17.333 7 32 21 44v-87c-14 10.667-21 25-21 43zm43 55c2.667.667 5.167 1.167 7.5 1.5s5.166.5 8.499.5h5V195h-5c-3.333 0-6.166.167-8.499.5s-4.833.833-7.5 1.5v110zm48-7c2 14.667 7.666 27.667 16.999 39V195h-22v107c.667 0 2.334-.667 5.001-2zm38.999 59c5.333 4 12.333 7.667 21 11V195h-21v164zm43 15h7.999c6.667 0 11.334-.333 14.001-1V195h-22v179zm55.999-13c2.667 4.667 6 9 10 13V195h-33v176c9.333-2 17-5.333 23-10zm20 24c10 8.667 21.332 15.499 33.999 20.499s26 7.5 40 7.5c28.667 0 53.334-9.5 74.001-28.5s32.667-42.167 36-69.5c4 1.333 7.833 2.5 11.5 3.5s8.167 1.5 13.5 1.5c17.333 0 31.833-6.167 43.5-18.5s17.5-27.166 17.5-44.499c0-16-5-30-15-42s-26-18.667-48-20h-207v190z"/><glyph glyph-name="spotify" unicode="spotify" d="M427 236c28.667 0 56-3.833 82-11.5s50.167-18.334 72.5-32.001 42.333-30.167 60-49.5S674 102.333 686 79c-19.333-18-42-27-68-27h-46c-16 22.667-36.667 40.667-62 54s-53 20-83 20-57.5-6.667-82.5-20S299 74.667 283 52h-65c-20 0-38.333 5.667-55 17 11.333 24.667 26 47.167 44 67.5s38.5 37.833 61.5 52.5 47.833 26.167 74.5 34.5 54.667 12.5 84 12.5zm-182 32c-2.667 7.333-2.666 12.833.001 16.5s5 6.167 7 7.5c25.333 11.333 51.833 20.333 79.5 27s56.5 10 86.5 10c29.333 0 57.666-2.833 84.999-8.5s53.333-14.834 78-27.501c4-1.333 7.333-4.5 10-9.5s2.667-10.167 0-15.5c-4.667-10.667-12.667-13.334-24-8.001-22.667 10-46.5 17.833-71.5 23.5s-50.833 8.5-77.5 8.5c-54 0-104.667-11.333-152-34-2.667-1.333-6.167-1.666-10.5-.999S247.667 261.333 245 268zm411.001 197c0-8-2.833-14.833-8.5-20.5s-12.5-8.5-20.5-8.5c-1.333 0-2.333.167-3 .5s-1.667.5-3 .5c-32 12.667-64.833 22.334-98.5 29.001s-68.5 10-104.5 10-70.833-3.333-104.5-10-66.5-16.334-98.5-29.001c-1.333 0-2.333-.167-3-.5s-1.667-.5-3-.5c-8 0-14.667 2.833-20 8.5s-8 12.5-8 20.5c0 10.667 4.333 18.667 13 24 35.333 13.333 71.5 23.666 108.5 30.999s75.5 11 115.5 11c39.333 0 77.5-3.667 114.5-11s72.833-17.666 107.5-30.999c10.667-4.667 16-12.667 16-24zm-39-86c4.667-4.667 6.998-9.334 6.998-14.001l-4-12c-4-5.333-9.333-8-16-8-1.333 0-2.166.167-2.499.5s-1.166.5-2.499.5c-28 12-57 21.333-87 28s-61.333 10-94 10c-63.333 0-123.333-12.333-180-37-1.333-.667-3.333-1-6-1-6.667 0-12 2.667-16 8l-4 11c0 4.667 2.333 9.334 7 14.001 30.667 13.333 62.5 23.666 95.5 30.999s67.5 11 103.5 11 70.5-3.667 103.5-11 64.833-17.666 95.5-30.999z"/><glyph glyph-name="squidoo" unicode="squidoo" d="M658 231c3.333-24 1.334-46.492-5.999-67.492s-17.833-39.333-31.5-55-29.167-28.167-46.5-37.5-34.333-14-51-14c-32 0-59.833 5.667-83.5 17S397.667 106.674 385 138.007c-4.667 11.333-7 23.333-7 36s-.833 24.167-2.5 34.5-5.834 19-12.501 26-19 10.167-37 9.5c-22.667-1.333-46.5-2.666-71.5-4s-46.833.668-65.5 6v55c0-2.666 1.833-4.833 5.5-6.5s7.5-2.834 11.5-3.501c11.333-1.333 24.833-1.166 40.5.5s30.834 3.835 45.501 6.502c17.333 2.667 34.666 6 51.999 10-21.333 8-40.666 18.333-57.999 31-15.333 11.333-30.333 25.666-45 42.999s-25 38.666-31 63.999l-5.5 20.5c-1.667 6.333-3.5 12.166-5.5 17.499 6.667 10.667 15 20 25 28 3.333-10 6.166-20 8.499-30s5.333-19.5 9-28.5 8.5-17.333 14.5-25 14.333-13.834 25-18.501c14-6 26.833-10.833 38.5-14.5s22.167-6.5 31.5-8.5c10-2.667 19.333-4 28-4-.667 14-2.334 27.333-5.001 40-2.667 11.333-6.667 22.5-12 33.5s-13.666 19.5-24.999 25.5c-9.333 5.333-19.666 11.666-30.999 18.999s-22.333 16.333-33 27c2 0 4-.333 6-1s4.333-1 7-1h41c21.333-8.667 39.166-19.334 53.499-32.001s26-25.334 35-38.001 15.667-24.334 20-35.001 6.5-18.667 6.5-24c12 9.333 22 19.333 30 30 7.333 8.667 12.833 18.334 16.5 29s2.834 21-2.499 31-12 19-20 27-16.667 12-26 12h54c10.667-4.666 19.334-11 26.001-19s11.5-16.832 14.5-26.5 3.833-19.833 2.5-30.5-4.333-20.334-9-29.001c-13.333-24-21.5-43.5-24.5-58.5s3.833-22.833 20.5-23.5c8-.667 18.833-2.167 32.5-4.5s27.5-7.166 41.5-14.5 26.667-18 38-32 18.666-33 21.999-57zm-52.999-56.992c4.667 12.667 6.834 25.333 6.501 38s-2.833 24.5-7.5 35.5-11.334 20.5-20.001 28.5-19 14-31 18-24 5.333-36 4-23.5-5-34.5-11-20.667-14-29-24-14.833-21.333-19.5-34c-4.667-13.333-6.834-26.333-6.501-39s2.833-24.5 7.5-35.5 11.334-20.5 20.001-28.5 19-14 31-18 24-5.167 36-3.5 23.5 5.5 34.5 11.5 20.667 13.833 29 23.5 14.833 21.167 19.5 34.5zm-54 68.999c8.667-2.667 15.833-7.83 21.5-15.497s8.5-16.5 8.5-26.5c0-12-3.667-22.167-11-30.5s-16.666-12.5-27.999-12.5-20.833 4.167-28.5 12.5-11.5 18.5-11.5 30.5c0 5.333 1 10.666 3 15.999 6-.667 12-.834 18-.501s11 2.166 15 5.499c5.333 3.333 9.666 10.333 12.999 21z"/><glyph glyph-name="stackoverflow" unicode="stackoverflow" d="M529 270V35H215v235h-52V-18h418v288h-52zm111 125-89 190 48 22 88-190-47-22zm-62-48L449 512l41 32 129-165-41-32zm-50-61L366 418l33 40 162-131-33-41zm-34-70-188 91 23 47 188-91-23-47zm-18-77-203 47 11 51 204-47-12-51zm0-78H267v52h209V61z"/><glyph glyph-name="star" unicode="star" d="M202 361c-12 13.333-15.667 25-11 35s16 15 34 15h117l55 116c7.333 16.667 16.5 25 27.5 25s20.167-8.333 27.5-25l56-116h116c18.667 0 30.167-5 34.5-15s.5-21.667-11.5-35l-1-1-88-108 45-131c6-17.333 5.167-29.166-2.5-35.499s-19.5-5.5-35.5 2.5l-140 70-140-70c-16.667-8-28.667-8.833-36-2.5s-8 18.166-2 35.499l45 131-89 108-1 1z"/><glyph glyph-name="stumbleupon" unicode="stumbleupon" d="M584 131h-33.999c-12 0-23.833 2.833-35.5 8.5s-22.334 13.334-32.001 23.001-17.334 20.5-23.001 32.5-8.5 24-8.5 36v121c0 6-.667 9.667-2 11-.667 0-2 .333-4 1-4 1.333-9.667 2-17 2h-143c-5.333-4-9-9.333-11-16 1.333-1.333 3.333-3.166 6-5.499s7-5.166 13-8.499l65-26c17.333-10 31.833-24.5 43.5-43.5s17.5-37.167 17.5-54.5c0-10.667-2.333-20.834-7-30.501s-11-18.334-19-26.001-17.333-13.667-28-18-22-6.5-34-6.5h-168v78h168c2 0 3.667.5 5 1.5s2.666 2.167 3.999 3.5c-1.333 3.333-3.666 7.833-6.999 13.5s-7.666 10.5-12.999 14.5l-65 25-18.5 12c-7 4.667-13.5 10.334-19.5 17.001s-11.167 14.167-15.5 22.5-6.5 18.166-6.5 29.499c0 10 2.167 20.5 6.5 31.5s10.5 21.333 18.5 31 17.333 17.667 28 24 22.334 9.5 35.001 9.5h145c22.667 0 40.667-3.5 54-10.5s23.5-15.333 30.5-25 11.5-19.834 13.5-30.501 3-19.334 3-26.001v-121c.667-3.333 3.667-7.666 9-12.999s9.666-8.333 12.999-9h33c3.333 1.333 7.833 5 13.5 11s9.167 11 10.5 15v262h78V234c0-12-3-24.167-9-36.5s-14-23.333-24-33-21-17.667-33-24-24-9.5-36-9.5z"/><glyph glyph-name="technorati" unicode="technorati" d="M425 501c32.667 0 63.17-5.333 91.503-16s53.166-25 74.499-43 38.166-39.333 50.499-64 18.5-51 18.5-79-6.167-54.167-18.5-78.5S612.335 175 591 157s-46.165-32.333-74.498-43-58.833-16-91.5-16c-28.667 0-55.334 4-80.001 12l-111-80 17 134c-19.333 18-34.333 38.5-45 61.5s-16 47.5-16 73.5c0 28 6.167 54.333 18.5 79s29.166 46 50.499 64 46.166 32.333 74.499 43 58.833 16 91.5 16zm.003-314c20 0 38.833 3 56.5 9s33 14 46 24 23.333 21.833 31 35.5 11.5 28.167 11.5 43.5-3.833 29.833-11.5 43.5-18 25.5-31 35.5-28.333 18-46 24-36.5 9-56.5 9-39-3-57-9-33.5-14-46.5-24-23.333-21.833-31-35.5-11.5-28.167-11.5-43.5 3.833-29.833 11.5-43.5 18-25.5 31-35.5 28.5-18 46.5-24 37-9 57-9z"/><glyph glyph-name="tumblr" unicode="tumblr" d="m451 546-.001-105h104v-78h-104V233c0-14-.333-25-1-33s-.334-14 .999-18c4.667-9.333 10.667-16.333 18-21 10.667-6 23.334-9 38.001-9 24.667 0 49.667 7.667 75 23v-74c-11.333-4.667-21.666-8.667-30.999-12s-18.333-6-27-8c-18-4-36.667-6-56-6-11.333 0-21 .667-29 2s-16.333 3.666-25 6.999c-9.333 2.667-17.833 5.834-25.5 9.501s-14.167 8.167-19.5 13.5c-11.333 10.667-18 22.5-20 35.5s-3 28.167-3 45.5v175h-78v57c10 3.333 20 7 30 11s18.667 9 26 15c15.333 12 26.666 25.333 33.999 40 8.667 16.667 14.334 36.667 17.001 60h76z"/><glyph glyph-name="twitterbird" unicode="twitterbird" d="M686 328c-5.333-7.333-12.993-13.498-22.993-18.498s-23-7.5-39-7.5c-7.333-31.333-20.666-59.333-40-84s-42.5-45.167-69.5-61.5-56.332-27.833-88-34.5-63.333-7.5-95-2.5-62.167 16.5-91.5 34.5-55 43.333-77 76c12.667-13.333 27.334-23.5 44-30.5s33.835-10.5 51.502-10.5 35 3.833 52 11.5 32.5 19.167 46.5 34.5c-8-1.333-15.167-.333-21.5 3s-10.833 7.5-13.5 12.5-2.667 10.667 0 17 9 11.833 19 16.5c-18-2-32.167.833-42.5 8.5s-17.5 16.167-21.5 25.5c4 5.333 8.667 9 14 11s12.666 3.667 21.999 5c-20 5.333-34.333 12.833-43 22.5s-14 20.834-16 33.501c5.333 1.333 11.166 2.666 17.499 3.999s11.166 1.666 14.499.999c-17.333 9.333-29.5 20.666-36.5 33.999s-9.833 25.666-8.5 36.999c31.333-12.667 57.5-24.167 78.5-34.5s39.5-20.166 55.5-29.499c10.667-6 24-17.667 40-35 9.333 27.333 20.333 53.666 33 78.999s29 45 49 59c-.667-6-3.334-11.667-8.001-17 12 12 25.667 19 41 21-1.333-6-5-10.833-11-14.5s-11.667-6.5-17-8.5c2 .667 5.667 2 11 4l16 6c5.333 2 10.333 3.333 15 4s7.667-.333 9-3c1.333-3.333.666-6.166-2.001-8.499s-6-4.333-10-6-8-3-12-4-6.667-1.833-8-2.5l-6-2-6-2c12 1.333 24-.334 36-5.001s22.833-11.334 32.5-20.001 18.167-19 25.5-31 12.666-25 15.999-39c1.333-5.333 2.333-9.666 3-12.999 4.667-2 10-3 16-3s12 .5 18 1.5 11.5 2.167 16.5 3.5 8.833 3 11.5 5c-4-9.333-10.833-17.333-20.5-24s-21.834-10.667-36.501-12c7.333-3.333 16.666-5.666 27.999-6.999s21.666-1.333 30.999 0z"/><glyph glyph-name="twitter" unicode="twitter" d="M608 117c0-13.333-5.499-25.5-16.499-36.5S568.334 64 555.001 64h-156c-20 0-39.333 3.333-58 10S305.667 90.5 291 103.5s-26.5 29.333-35.5 49S242 195 242 221v262c0 13.333 5.333 25.333 16 36s22.667 16 36 16 25.333-5.333 36-16 16-22.667 16-36v-79h209c13.333 0 25.5-5.333 36.5-16s16.5-22.667 16.5-36-5.5-25.333-16.5-36-23.167-16-36.5-16H346v-79c0-13.333 5.5-25.333 16.5-36s22.833-16 35.5-16h157c13.333 0 25.5-5.333 36.5-16s16.5-22.667 16.5-36z"/><glyph glyph-name="viddler" unicode="viddler" d="M546 514c16 0 30.833-3.001 44.5-9.001s25.667-14.333 36-25 18.5-23 24.5-37 9-29.333 9-46-3-32.167-9-46.5-14.167-26.666-24.5-36.999-22.333-18.5-36-24.5-28.5-9-44.5-9h-91l56-183H320v56l-130-41v159l130-37v46h-26c-13.333 0-26 3-38 9s-22.667 14-32 24-16.833 22-22.5 36-8.5 29-8.5 45c0 16.667 3.5 32.167 10.5 46.5s16.333 27 28 38 25 19.667 40 26S302 514 318 514c14 0 27.333-2.833 40-8.5s24-13.334 34-23.001 18.333-20.667 25-33 11-25.166 13-38.499h4c2 13.333 6.333 26.166 13 38.499s15 23.333 25 33 21.333 17.334 34 23.001 26 8.5 40 8.5zM318 360.999c9.333 0 17 3.333 23 10s9 14.667 9 24-3 17.166-9 23.499-13.667 9.5-23 9.5-17-3.167-23-9.5-9-14.166-9-23.499 3-17.333 9-24 13.667-10 23-10zm231 0c9.333 0 17 3.333 23 10s9 14.667 9 24-3 17.166-9 23.499-13.667 9.5-23 9.5-17-3.167-23-9.5-9-14.166-9-23.499 3-17.333 9-24 13.667-10 23-10z"/><glyph glyph-name="vimeo" unicode="vimeo" d="M189 351c15.333 17.333 31.002 33 47.002 47 13.333 12 28.333 23.333 45 34s32.667 17.667 48 21c16 2.667 28.5-1 37.5-11s16-23 21-39 8.833-33.667 11.5-53 6-36.333 10-51c7.333-28.667 14-50.834 20-66.501s12.333-23.5 19-23.5 15.834 7.333 27.501 22 24.167 34.334 37.5 59.001c6.667 12 10.167 23.5 10.5 34.5s-2.167 19.833-7.5 26.5-13 10.5-23 11.5-21.667-2.5-35-10.5c3.333 20.667 11.333 38.5 24 53.5s27 26.833 43 35.5 32.833 14 50.5 16 33.167 0 46.5-6 23.5-16.333 30.5-31 8.5-33.667 4.5-57c-6.667-35.333-19.667-69-39-101s-40.333-60.667-63-86-44.834-46.833-66.501-64.5-38.167-29.834-49.5-36.501c-11.333-7.333-22-10.666-32-9.999s-19.333 3.334-28 8.001-16.334 10.834-23.001 18.501-12 15.167-16 22.5c-2.667 5.333-6.334 14.333-11.001 27s-9.5 27-14.5 43l-16 50.5-16 49c-5 15-9.5 27.667-13.5 38s-7 16.833-9 19.5c-3.333 3.333-8 4.666-14 3.999s-11.667-2.334-17-5.001c-6.667-2.667-13.667-7-21-13l-19 24z"/><glyph glyph-name="virb" unicode="virb" d="M176 461h101l81-236 79 236h105L411 95H307zm497-53c0-14-5.167-26.167-15.5-36.5S634.667 356 620 356s-27 5.167-37 15.5-15 22.5-15 36.5c0 14.667 5 27.167 15 37.5s22.333 15.5 37 15.5 27.167-5.167 37.5-15.5S673 422.667 673 408z"/><glyph glyph-name="www" unicode="www" d="m364 467 62.001-222.999 63 223h152v-23l-55-115c11.333-4 21.833-9.333 31.5-16s17.5-15 23.5-25c5.333-10 9.833-20.833 13.5-32.5s5.5-24.167 5.5-37.5c0-16.667-1.833-32-5.5-46s-9.834-26.667-18.501-38c-17.333-22-39-33-65-33-20.667 0-38 6.667-52 20-15.333 12.667-26.333 30.667-33 54l35 15c3.333-6.667 6.5-12.667 9.5-18s6.833-10 11.5-14c8-8 18-12 30-12s22 7 30 21c8.667 13.333 13 30.333 13 51 0 11.333-1.167 22.333-3.5 33s-5.833 19-10.5 25c-5.333 7.333-11.833 13.666-19.5 18.999s-17.167 8-28.5 8h-30v9l73 114h-77l-88-306h-5l-64 226-65-226h-4L190 467h45l62-223 42 150-20 73h45z"/><glyph glyph-name="wikipedia" unicode="wikipedia" d="M367 399c-1.333 3.333-2.665 6.327-3.998 8.994s-2.333 5-3 7-1.334 3.667-2.001 5l-9.5 20.001s-4.5 8.334-6.5 11.001-4.167 4.5-6.5 5.5-5.5 1.833-9.5 2.5c-4 0-6 1-6 3v11l1 2h93l3-1v-11c0-2.667-1.667-4-5-4l-7-1c-8.667-1.333-12.667-4.166-12-8.499s3.667-12.833 9-25.5l108-244 4-1 95 251c4 9.333 3.667 16.333-1 21-2.667 2-5.167 3.667-7.5 5s-6.166 2-11.499 2l-9 1c-1.333 0-2.333.333-3 1s-1 1.667-1 3v11l1 1h108l1-1v-11c0-2.667-1.333-4-4-4-14.667-1.333-25.334-4.666-32.001-9.999-3.333-3.333-6.333-7.166-9-11.499s-4.667-9.166-6-14.499l-48-120-20-49.5-19.5-49-17.5-43.5-14-34c-10.667-24.667-21.334-24.667-32.001 0-5.333 12-12.333 28.833-21 50.5L436 242l-33 79zm173.001 75.994-87.992-.001-1-1v-11c0-1.333.333-2.333 1-3s1.667-1 3-1l5-1c9.333 0 15-1.667 17-5 1.333-2 2.166-4.5 2.499-7.5s-1.167-8.167-4.5-15.5l-114-251-3 1-43 103-18 42.5-17 41.5-15 37c-4.667 11.333-8.334 21-11.001 29-2.667 6-4 11-4 15 0 6.667 5.333 10 16 10l12 1c3.333 0 5 1.333 5 4v10l-1 1h-118l-1-1v-11c0-2 2.333-3 7-3 13.333-1.333 21.666-3.666 24.999-6.999 1.333-2 3.166-5.167 5.499-9.5s4.833-10.166 7.5-17.499c7.333-20 16.5-43 27.5-69l33.5-80 33.5-80.5 28.5-69.5c4.667-11.333 9.667-17.333 15-18s11.333 5.666 18 18.999l23 50 29 64 35 79 49 103c3.333 5.333 6.166 10.333 8.499 15s4.166 8 5.499 10c3.333 4.667 6.166 7.5 8.499 8.5s7.166 1.833 14.499 2.5c2.667 0 4 1.333 4 4v11z"/><glyph glyph-name="windows" unicode="windows" d="M352 136c-11.333 7.333-23.83 13.832-37.497 19.499s-29.834 8.5-48.501 8.5c-23.333 0-48.666-5.333-76-16l41 143 6 2 6 2c7.334 2.667 16.667 5.334 28 8.001s23.333 4.667 36 6c2 .667 5 1 9 1 19.333 0 40.333-5.667 63-17 3.333-1.333 6.166-3 8.499-5s5.166-3.667 8.499-5l-8.5-29-12-41-13-43zm124.003-52.001c-8 0-16.334 1.168-25.001 3.501s-17 5.166-25 8.499-15.167 6.5-21.5 9.5-10.833 5.5-13.5 7.5l41 144c10-7.333 22.833-13.833 38.5-19.5s34.5-8.5 56.5-8.5c25.333 0 51 4.333 77 13l-40-138c-31.333-13.333-60.666-20-87.999-20zM407.002 331c-10.667 6.667-22.669 12.832-36.002 18.499s-29 8.5-47 8.5c-23.333 0-49.666-5.333-78.999-16l41 142c14.667 6 28.5 10.333 41.5 13s25.5 4.334 37.5 5.001c13.333 0 25-1.333 35-4 9.333-2 18.833-5.5 28.5-10.5s16.834-8.833 21.501-11.5zM537 275.998c-33.333 0-63.667 9.333-91 28l42 145c10-7.333 22.833-13.833 38.5-19.5s34.167-8.5 55.5-8.5c24.667 0 50.667 5 78 15l-41-140h-1v-1c-27.333-12.667-54.333-19-81-19z"/><glyph glyph-name="wordpress" unicode="wordpress" d="M190 301c0 33.333 6.666 65.332 19.999 95.999l112-308c-39.333 19.333-71.166 47.833-95.499 85.5S190 254.333 190 301zm393.999 11.999c0-20.667-6-46.001-18-76.001l-24-79-85 253c3.333 0 6.666.167 9.999.5s6.333.5 9 .5 5.334.333 8.001 1c6.667 1.333 9.667 5 9 11s-4 9-10 9l-23-2c-6.667-.667-13.5-1-20.5-1h-39c-7 0-13.833.333-20.5 1l-22 2c-6.667 0-10.167-3.167-10.5-9.5s2.5-9.833 8.5-10.5c2.667-.667 5.334-1 8.001-1s5.334-.167 8.001-.5 5.667-.5 9-.5l37-100-52-155-85 255c3.333 0 6.666.167 9.999.5s6.333.5 9 .5 5.334.333 8.001 1c6 1.333 8.833 5 8.5 11s-3.833 9-10.5 9l-22-2c-6.667-.667-13.667-1-21-1h-35c21.333 32 49.166 57.667 83.499 77s72.166 29 113.499 29c30.667 0 59.5-5.5 86.5-16.5s51.167-26.167 72.5-45.5h-3c-11.333 0-20.833-4.167-28.5-12.5s-11.5-17.833-11.5-28.5c0-10 2.333-19.333 7-28s10-18 16-28c4.667-7.333 9.167-16.166 13.5-26.499s6.5-22.833 6.5-37.5zm-83-231.001c.667-.667.999-1.167.999-1.5s.333-.833 1-1.5c-26-9.333-52-14-78-14-11.333 0-22.666.833-33.999 2.5s-22.333 4.167-33 7.5l71 205zm129.999 332c19.333-34.667 28.998-72.332 28.998-112.999 0-44-10.667-83.833-32-119.5s-49.666-63.834-84.999-84.501l72 208c6.667 17.333 11.334 32.833 14.001 46.5s4 26.167 4 37.5c0 4.667-.167 9-.5 13s-.833 8-1.5 12z"/><glyph glyph-name="xing" unicode="xing" d="M594 49H490L385 232l157 288h105L490 232zM202 180l78 131-52 104h105l52-104-78-131H202z"/><glyph glyph-name="yahoobuzz" unicode="yahoobuzz" d="M425 355c21.333 0 41.5-4.167 60.5-12.5s35.667-19.5 50-33.5 25.666-30.5 33.999-49.5 12.5-39.5 12.5-61.5c0-21.333-4.167-41.5-12.5-60.5s-19.666-35.667-33.999-50-31-25.666-50-33.999-39.167-12.5-60.5-12.5c-22 0-42.5 4.167-61.5 12.5S328 73.167 314 87.5s-25.167 31-33.5 50S268 176.667 268 198v314h78V198c0-21.333 7.833-39.666 23.5-54.999s34.167-23 55.5-23 39.666 7.667 54.999 23 23 33.666 23 54.999c0 22-7.667 40.667-23 56S446.333 277 425 277h-52v78h52z"/><glyph glyph-name="yahoo" unicode="yahoo" d="M585 381c-3.333-1.333-11.998-7.498-25.998-18.498s-29-23.5-45-37.5-30.667-27.833-44-41.5-21-23.5-23-29.5c-.667-2-1-8-1-18s.167-20.667.5-32l1-32.5c.333-10.333.833-16.833 1.5-19.5 2-.667 6.5-1 13.5-1h45.5c7.333 0 12.333-.333 15-1l-2-25c-2.667 0-8.5.167-17.5.5s-19.5.5-31.5.5h-72c-5.333 0-12.833-.167-22.5-.5s-19.834-.666-30.501-.999-21-.5-31-.5h-23l4 24c2.667 0 7.167.167 13.5.5s13 .666 20 .999 13.667 1.166 20 2.499 10.833 3.666 13.5 6.999c1.333 1.333 2.333 6.666 3 15.999s1 19.5 1 30.5-.167 21.5-.5 31.5-.833 16.667-1.5 20c-.667 2-3.834 7.333-9.501 16l-21 31-28 38.5-30 39.5-26.5 33.5c-8 9.667-14.333 16.834-19 21.501h-69v26h236v-26h-73l25.5-40.5 26.5-39 24.5-35L421 296l94 89h-55l-8 26h208l-19-19c-.667 0-1 .333-1 1l-6-8h-37c-2.667 0-5-.667-7-2s-3.667-2-5-2zm33.002-34.998c2 0 6.331-.499 12.998-1.499s13.834-1.833 21.501-2.5 14.834-1.334 21.501-2.001 10.667-1 12-1l-36-154-32 3v158zM633 161.003l18-1-5-37-17 2-16 1v38z"/><glyph glyph-name="yelp" unicode="yelp" d="M293 483c-2 2.667-4.003 5.168-6.003 7.501s-3.167 4.833-3.5 7.5.834 6 3.501 10 8 9 16 15c6 4.667 13.333 8.667 22 12s17.334 5.833 26.001 7.5 17 2.667 25 3 14.333.166 19-.501c20-4 30-13.333 30-28l1-170c.667-6.667-.5-12.5-3.5-17.5s-6.833-8.167-11.5-9.5c-4.667-.667-9.667.833-15 4.5S386.333 332.667 383 338zm177.997-191.999c-2.667 5.333-3.501 11.333-2.501 18s3.833 12.667 8.5 18l50 60c4.667 5.333 10.334 8 17.001 8s13.667-2.667 21-8c3.333-3.333 7.166-7.5 11.499-12.5s8.5-10.333 12.5-16 7.5-11.167 10.5-16.5 5.167-9.333 6.5-12c2-5.333 2.333-12 1-20s-6-12.667-14-14l-88-17c-6.667-1.333-13.167-.833-19.5 1.5s-11.166 5.833-14.499 10.5zm7.999-95c-3.333 6-5.332 11.834-5.999 17.501s.333 9.5 3 11.5 7 3 13 3 12.333-.667 19-2l79-23c6.667-1.333 11.667-5.333 15-12s3.666-14.334.999-23.001c-1.333-4-4-9.333-8-16l-12-20-16-24c-3.333-6-9.833-9.333-19.5-10s-16.167 2-19.5 8zm-95.999-.999c4 5.333 9.167 9.5 15.5 12.5s11.833 4.5 16.5 4.5c4.667-.667 8.5-3.5 11.5-8.5s4.5-10.833 4.5-17.5l-2-105c-.667-7.333-5.167-13.5-13.5-18.5s-15.5-6.167-21.5-3.5l-66 22c-6 2.667-10 8.5-12 17.5s-.667 16.167 4 21.5zm-15 94c6.667-2.667 11.999-6.667 15.999-12s5.667-10.666 5-15.999c-1.333-5.333-4.333-10.666-9-15.999s-10-9.333-16-12l-91-31c-6-2.667-12.167-1.834-18.5 2.499s-10.166 10.166-11.499 17.499c-.667 3.333-1 9.166-1 17.499v26.5c0 10.667.333 22.334 1 35.001 2 9.333 6 16.5 12 21.5s12 6.167 18 3.5z"/><glyph glyph-name="youtube" unicode="youtube" d="M214 546h43l28-97h3l27 97h43l-50-142V304h-43v96zm147-104c0 14 5.335 25 16.002 33 10 8 23.667 12 41 12 16.667 0 29.667-4.333 39-13 10-9.333 15-20.333 15-33v-93c0-15.333-4.667-27-14-35-10.667-9.333-24.334-14-41.001-14s-30.334 4.667-41.001 14c-10 8.667-15 20.667-15 36v93zm40.002-96c0-5.333 1.333-9.333 4-12 1.333-1.333 2.833-2.333 4.5-3s4.167-1 7.5-1c4.667 0 8.667 1.667 12 5 2.667 2 4 5.667 4 11v97c0 4-1.333 7-4 9-2.667 2.667-6.667 4-12 4s-9.333-1.333-12-4c-2.667-2-4-5-4-9v-97zm212 137-.001-179h-39v20c-6-7.333-13.333-13-22-17-7.333-4-14.666-6-21.999-6-8 0-14.667 2.667-20 8-4.667 6.667-7 14.667-7 24v150h39V346c0-5.333.667-8.333 2-9 2-2 4.667-3 8-3 2 0 5.667 1 11 3 5.333 4 9 7.333 11 10v136h39zM307.001 299h-117v-31h39V80h38v188h40v31zm78-180c-2.667-4-6.333-7-11-9-3.333-2-6.333-3-9-3-2 0-4.333.667-7 2-1.333 2.667-2 5.667-2 9v124h-34V106c0-9.333 2-16.333 6-21 4-5.333 10-8 18-8 6.667 0 13 2 19 6 7.333 3.333 14 8.333 20 15V80h34v162h-34V119zm149.001 115c-6.667 6.667-15.001 10.002-25.001 10.002-5.333 0-10.666-1.333-15.999-4-3.333-1.333-8-5-14-11v70h-34v-219h34v12c2-2.667 4.167-4.834 6.5-6.501s4.833-3.167 7.5-4.5c6-2 12-3 18-3 10 0 17.667 3 23 9 5.333 5.333 8 14 8 26v90c0 13.333-2.667 23.666-8 30.999zm-27.001-115.998c0-5.333-1-9.001-3-11.001-2-2.667-5-4-9-4-1.333 0-4 .667-8 2-2 .667-4.667 2.667-8 6v101c2 2 4.333 3.667 7 5 1.333.667 3.666 1 6.999 1 4.667 0 8.334-1.333 11.001-4 2-3.333 3-7.666 3-12.999v-83zm153 38.999L660 198c0 14.667-4 26.667-12 36-9.333 8-21.333 12-36 12-16 0-28.333-4.333-37-13-10-9.333-15-21-15-35v-72c0-14.667 4.333-27 13-37 9.333-9.333 21.333-14 36-14 16.667 0 29.334 4.333 38.001 13 8.667 8 13 20.667 13 38v8h-35v-8c0-9.333-1-15.333-3-18-2.667-2.667-6.667-4-12-4s-9.333 1.667-12 5c-2 2.667-3 8.334-3 17.001v31h65zM595 199c0 6.667 1.333 11.333 4 14 2 3.333 5.667 5 11 5 4.667 0 8.667-1.667 12-5 2-3.333 3-8 3-14v-17h-30v17z"/><glyph glyph-name="circlefivehundredpx" unicode="circlefivehundredpx" d="M598 304c14.667 0 26-3.999 34-11.999s12-18.333 12-31c0-12-4-22-12-30s-19.333-12-34-12c-7.333 0-14.5 2.167-21.5 6.5S563.333 234.667 558 240c-6.667 6-12.667 13-18 21 5.333 7.333 11.333 14.333 18 21 5.333 5.333 11.5 10.333 18.5 15s14.167 7 21.5 7zm-175 .001c7.333 0 14.5-2.334 21.5-7.001s13.167-9.667 18.5-15c6.667-6.667 12.667-13.667 18-21-5.333-8-11.333-15-18-21-5.333-5.333-11.5-10.166-18.5-14.499s-14.167-6.5-21.5-6.5c-14.667 0-26 4-34 12s-12 18-12 30c0 12.667 4 23 12 31s19.333 12 34 12zM424 719c58 0 112.5-11 163.5-33S683 634 721 596s68-82.333 90-133 33-105 33-163-11-112.5-33-163.5S759 41 721 3s-82.5-68-133.5-90S482-120 424-120s-112.333 11-163 33-95 52-133 90-68 82.5-90 133.5S5 242 5 300s11 112.333 33 163 52 95 90 133 82.333 68 133 90 105 33 163 33zm181-550c29.333 0 50.165 9 62.498 27s18.5 39.333 18.5 64-6.333 46.167-19 64.5-33.334 27.5-62.001 27.5c-14.667 0-27.667-3.333-39-10s-21-13.667-29-21c-9.333-8.667-17.666-18.667-24.999-30-6.667 11.333-14.334 21.333-23.001 30-7.333 7.333-17 14.333-29 21s-26 10-42 10-29-2.833-39-8.5-17.667-12.167-23-19.5c-6.667-8-11-17-13-27-4 8.667-9.333 16.667-16 24-5.333 6-12.333 11.5-21 16.5s-19.667 7.5-33 7.5c-9.333 0-17.166-1-23.499-3s-11.833-4-16.5-6c-5.333-2.667-9.666-5.667-12.999-9l12 55h105v49h-140l-29-147h52c2.667 4.667 6 8.667 10 12 3.333 3.333 7.5 6.333 12.5 9s11.167 4 18.5 4c14.667 0 25.167-5.167 31.5-15.5s9.5-21.5 9.5-33.5-4.833-23.167-14.5-33.5-20.5-15.5-32.5-15.5c-9.333 0-16.333 1.833-21 5.5s-8.667 7.834-12 12.501c-3.333 5.333-5.666 11.666-6.999 18.999h-53c2.667-14.667 7.667-28 15-40 6-10 14.833-19 26.5-27s27.167-12 46.5-12c18.667 0 34 2.5 46 7.5s21.667 10.5 29 16.5c8 7.333 14 15.333 18 24 2-8.667 6.333-16.667 13-24 5.333-6 13-11.5 23-16.5s23-7.5 39-7.5 30 2.667 42 8 21.667 11.666 29 18.999c8.667 8 16.334 17.333 23.001 28 7.333-10.667 15.666-20 24.999-28 8-7.333 17.667-13.666 29-18.999s24.333-8 39-8z"/><glyph glyph-name="circleaboutme" unicode="circleaboutme" d="M591 381c18 0 33-7 45-21 8-10 12.333-23.333 13-40H531c.667 18 6.667 32.667 18 44 12.667 11.333 26.667 17 42 17zM425 720c58 0 112.5-11 163.5-33S684 635 722 597s68-82.5 90-133.5S845 358 845 300s-11-112.5-33-163.5S760 41 722 3s-82.5-68-133.5-90S483-120 425-120s-112.5 11-163.5 33S166-35 128 3 60 85.5 38 136.5 5 242 5 300s11 112.5 33 163.5S90 559 128 597s82.5 68 133.5 90S367 720 425 720zm25-381c0 24.667-5.666 42.333-16.999 53-11.333 12-27.666 18-48.999 18-26 0-47.667-12.333-65-37-4 12-11 21-21 27-11.333 6.667-24.333 10-39 10s-27.334-3.333-38.001-10c-11.333-6-20.333-14-27-24v29h-32V196h36v108c0 19.333 2 34 6 44 4 10.667 10.333 18.334 19 23.001 8.667 5.333 18 8 28 8 13.333 0 23-4 29-12 5.333-8.667 8-20.334 8-35.001V196h36v121c0 21.333 5 37 15 47s22.667 15 38 15c8 0 15-2 21-6 5.333-4 9.666-9 12.999-15 2-6 3-16 3-30V196h36v143zm237.001-38.001c0 34-8.998 60.669-26.998 80.002s-41 29-69 29c-28.667 0-52.667-9.667-72-29-18-20-27-47.333-27-82s9-61.334 27-80.001 42.667-28 74-28c24.667 0 45 6 61 18 15.333 11.333 26 27.666 32 48.999l-37 5c-4.667-14-12-25-22-33-8.667-6.667-20-10-34-10-18.667 0-33.334 6-44.001 18-12.667 13.333-19.334 31-20.001 53h158v10z"/><glyph glyph-name="circleaddme" unicode="circleaddme" d="M425 720c58 0 112.333-11 163-33s95-51.833 133-89.5 68-82 90-133S844 359 844 301s-11-112.333-33-163-52-95-90-133-82.333-68-133-90-105-33-163-33-112.5 11-163.5 33-95.333 52-133 90S61 87.333 39 138 6 243 6 301s11 112.5 33 163.5 51.833 95.333 89.5 133 82 67.5 133 89.5S367 720 425 720zm209-366H477v157H372V354H215V249h157V92h105v157h157v105z"/><glyph glyph-name="circleamazon" unicode="circleamazon" d="M388 304c0 16 4.166 28.168 12.499 36.501s18.166 14.166 29.499 17.499c11.333 2.667 25.333 4 42 4v-12c0-11.333-.333-21.833-1-31.5s-4-19.5-10-29.5c-6-14.667-16.333-23.667-31-27-1.333 0-2.666-.167-3.999-.5s-2.666-.5-3.999-.5c-10.667 0-19 4-25 12s-9 18.333-9 31zm35.999 415.001c58 0 112.333-11 163-33s95-51.833 133-89.5 68-81.834 90-132.501 33-105 33-163-11-112.333-33-163-52-95-90-133-82.333-68-133-90-105-33-163-33-112.333 11-163 33-94.834 52-132.501 90-67.5 82.333-89.5 133-33 105-33 163 11 112.333 33 163 51.833 94.834 89.5 132.501 81.834 67.5 132.501 89.5 105 33 163 33zm41-260c4-6 6.17-12.669 6.503-20.002s.5-14.666.5-21.999v-8c-6.667-.667-13.5-1.167-20.5-1.5s-14.167-1.166-21.5-2.499c-11.333-1.333-22.333-3.166-33-5.499s-20.667-5.833-30-10.5c-18-8-32.5-20-43.5-36s-16.5-35.667-16.5-59c0-30 8-52.5 24-67.5s35.667-22.5 59-22.5c14.667 0 28 1.667 40 5 9.333 3.333 18.166 7.833 26.499 13.5s17.166 13.5 26.499 23.5c5.333-7.333 9.666-13.5 12.999-18.5s9.666-11.5 18.999-19.5c5.333-2 10-1.667 14 1 5.333 5.333 12.333 11.666 21 18.999s15.667 13.666 21 18.999c2.667 2 3.834 4.333 3.5 7s-1.165 5.334-2.498 8c-5.333 7.334-10.166 14.834-14.5 22.5S551 302.669 551 316v91c0 19.334-.666 37.5-2 54.5s-8.665 32.168-21.998 45.5c-11.333 10.668-25 18.168-41 22.5s-30.667 6.5-44 6.5h-12c-12-.666-24.167-2.666-36.5-6s-23.833-8.5-34.5-15.5-19.834-16-27.501-27S318.667 463 316 447c-1.333-4-.833-6.832 1.5-8.5s4.5-2.833 6.5-3.5l55-7c4.667.667 7.667 4.334 9 11.001 2.667 11.333 8 19.833 16 25.5s16.667 9.167 26 10.5h4c13.333 0 23.666-5.333 30.999-16zm171.003-326.002c4.667 3.333 5.668 7 3.001 11s-6.667 5-12 3c-2-1.333-4.167-2.333-6.5-3s-4.5-1.667-6.5-3c-30.667-12-61.5-21-92.5-27s-61.5-9-91.5-9c-47.333 0-93 6.333-137 19s-84.667 30-122 52c-3.333 2-5.833 1.833-7.5-.5s-.834-4.833 2.499-7.5c34-32 73-57 117-75s91-27 141-27c31.333 0 63.833 4.333 97.5 13s64.5 21.667 92.5 39c3.333 2.667 7 5.167 11 7.5s7.667 4.833 11 7.5zm50.001 38c0 4-.667 7.335-2 10.002-2.667 3.333-11.167 5.666-25.5 6.999s-29.166-.334-44.499-5.001c-8-2.667-15.667-6.667-23-12-2.667-1.333-3.834-3-3.501-5s1.833-3 4.5-3c6.667 1.333 14 2.333 22 3 9.333 1.333 18.5 1.666 27.5 1s14.833-2.668 17.5-6c2-2 2.667-5.834 2-11.5s-2-12-4-19-4.167-13.834-6.5-20.5-4.5-12-6.5-16c-1.333-3.334-1-5.334 1-6s4 0 6 2c12 10.666 20.667 23.833 26 39.5s8.333 28.5 9 38.5v3z"/><glyph glyph-name="circleaol" unicode="circleaol" d="M424 717c58 0 112.333-11 163-33s95-51.833 133-89.5 68-81.834 90-132.501 33-105 33-163-11-112.333-33-163-52-95-90-133-82.333-68-133-90-105-33-163-33-112.333 11-163 33-94.834 52-132.501 90-67.5 82.333-89.5 133-33 105-33 163 11 112.333 33 163 51.833 94.834 89.5 132.501S210.333 662 261 684s105 33 163 33zm58-183c-17.333 0-32.166-6.167-44.499-18.5s-18.5-27.166-18.5-44.499 6.167-32 18.5-44 27.166-18 44.499-18c18 0 33.167 6 45.5 18s18.5 26.667 18.5 44-6.167 32.166-18.5 44.499S500 534 482 534zm138-424-3.996 8.003c-34.667 67.333-83.334 116.333-146.001 147-.667.667-1.334 1-2.001 1l-1 1-2 1c-1.333 1.333-2 2.333-2 3 1.333 4 2.5 6.333 3.5 7s2.167 1 3.5 1h8c6-1.333 11.833-2.333 17.5-3s11.834-1 18.5-1c13.334 0 27.5 2.167 42.5 6.5s31.834 11.166 50.5 20.499l8 5-28 60-9-4c-6.666-3.333-15.166-6.333-25.5-9s-21.5-4-33.5-4c-14.666 0-27.333 2-38 6l-4 2-1 3c-.667.667-1 1.667-1 3s-.333 2.666-1 3.999v16l-8 1c-8.667 2-19.334 6-32.001 12l-5 3-5-2c-22-12.667-38.333-29.5-49-50.5S357.334 298 354 262c-1.333-9.333-2.333-15.833-3-19.5s-1.334-6.167-2.001-7.5c-7.333-14.667-15.833-27.167-25.5-37.5s-19.5-19-29.5-26-19.833-12.5-29.5-16.5-18.167-7-25.5-9l-11-3 30-80 9 3c22 5.333 40.833 11.833 56.5 19.5s29.167 16 40.5 25 21 18.333 29 28l23 28.5 7 10c1.333 1.333 2.666 2 3.999 2l4-2c18-8 33.667-16.333 47-25s24.833-17.334 34.5-26.001 17.334-17 23.001-25 10.167-14.667 13.5-20l5-9z"/><glyph glyph-name="circleappstorealt" unicode="circleappstorealt" d="M424 537c32.667 0 63.334-6.167 92.001-18.5s53.667-29.166 75-50.499 38.166-46.333 50.499-75S660 333.667 660 301s-6.167-63.167-18.5-91.5-29.166-53.166-50.499-74.499-46.333-38.166-75-50.499-59.334-18.5-92.001-18.5-63.167 6.167-91.5 18.5-53.166 29.166-74.499 50.499-38.166 46.166-50.499 74.499-18.5 58.833-18.5 91.5 6.167 63.334 18.5 92.001 29.166 53.667 50.499 75 46.166 38.166 74.499 50.499S391.333 537 424 537zm131-262h-78v183H372V275h-78l130-131zM424 720c58 0 112.333-11 163-33s95-52 133-90 68-82.333 90-133 33-105 33-163-11-112.333-33-163-52-94.834-90-132.501-82.333-67.5-133-89.5-105-33-163-33-112.333 11-163 33-94.834 51.833-132.501 89.5-67.5 81.834-89.5 132.501-33 105-33 163 11 112.333 33 163 51.833 95 89.5 133S210.333 665 261 687s105 33 163 33zm0-680c36 0 70 6.833 102 20.5s59.833 32.334 83.5 56.001 42.334 51.334 56.001 83.001 20.5 65.5 20.5 101.5-6.833 70-20.5 102-32.334 59.833-56.001 83.5-51.5 42.334-83.5 56.001-66 20.5-102 20.5-69.833-6.833-101.5-20.5-59.334-32.334-83.001-56.001-42.334-51.5-56.001-83.5-20.5-66-20.5-102 6.833-69.833 20.5-101.5 32.334-59.334 56.001-83.001S290.833 74.167 322.5 60.5 388 40 424 40z"/><glyph glyph-name="circleappstore" unicode="circleappstore" d="M424 718c58 0 112.333-11 163-33s95-51.833 133-89.5 68-81.834 90-132.501 33-105 33-163-11-112.333-33-163-52-95-90-133-82.333-68-133-90-105-33-163-33-112.333 11-163 33-94.834 52-132.501 90-67.5 82.333-89.5 133-33 105-33 163 11 112.333 33 163 51.833 94.834 89.5 132.501S210.333 663 261 685s105 33 163 33zM163 259c0-8 4-12 12-12h53l66 105H175c-8 0-12-3-12-9v-84zm89-134c3.333 2 4.832 4.333 4.499 7s-1.833 4.667-4.5 6l-31 18c-6.667 3.333-10.667 1.333-12-6l-5-47c-.667-3.333-.167-5.5 1.5-6.5S209.333 96 212 98zm9.999 27c2.667-2 5.666-2.664 8.999-1.997s5.666 2.667 6.999 6l143 250c2 2.667 2.667 5.667 2 9s-2.667 5.666-6 6.999l-31 18c-7.333 3.333-12.666 1.666-15.999-5.001l-144-249c-3.333-6.667-1.666-12.334 5.001-17.001zm238.999 95.003-44 105h-32l-66-105h142zm48-16c6-3.333 10.667-4.5 14-3.5s7 2.5 11 4.5c4 1.333 8.5 4.666 13.5 9.999s5.833 11.666 2.5 18.999c-2 3.333-7 12.333-15 27l-27 50.5-30.5 57c-10.333 19-19.166 34.5-26.499 46.5-7.333 11.333-15.166 24.166-23.499 38.499l-23.5 40c-7.333 12.333-14 22.5-20 30.5s-10.333 11.333-13 10c-4-2-4.5-8.833-1.5-20.5S417 515.333 423 500s12.5-30.666 19.5-45.999l16.5-37 19-44 27-60.5c9.333-20.333 18.166-38.666 26.499-54.999s14.166-25.166 17.499-26.499zm40-65c4.667-7.333 10.664-9.002 17.997-5.002l13 8c3.333 1.333 5.333 3.833 6 7.5s.334 7.167-.999 10.5l-15 28c-1.333 3.333-3.666 5.5-6.999 6.5s-6.666.833-9.999-.5l-18-9c-3.333-1.333-5.333-3.666-6-6.999s0-6.666 2-9.999zm68.997-78.002c1.333 17.333.665 31.999-2.002 43.999-2.667 10-7.167 17.833-13.5 23.5s-16.166 4.834-29.499-2.499c-2-2-4.5-5.667-7.5-11s-1.167-12.666 5.5-21.999c3.333-4.667 7.5-8.334 12.5-11.001s9.833-5 14.5-7 8.834-4 12.501-6 6.167-4.667 7.5-8zM685.994 343c0 3.333-1.167 5.668-3.5 7.001s-5.166 2-8.499 2h-105l53-105h52c3.333 0 6.166 1.167 8.499 3.5s3.5 5.166 3.5 8.499v84z"/><glyph glyph-name="circleapple" unicode="circleapple" d="M425 720c58 0 112.333-11 163-33s95-51.833 133-89.5 68-82 90-133S844 359 844 301s-11-112.333-33-163-52-95-90-133-82.333-68-133-90-105-33-163-33-112.5 11-163.5 33-95.333 52-133 90S61 87.333 39 138 6 243 6 301s11 112.5 33 163.5 51.833 95.333 89.5 133 82 67.5 133 89.5S367 720 425 720zm25-219c-8-8.667-14.669-19.667-20.002-33s-7.333-26.666-6-39.999c13.333-1.333 26.5 1.5 39.5 8.5s23.833 15.5 32.5 25.5 15.334 21.5 20.001 34.5 6.334 26.5 5.001 40.5c-12-.667-24.667-4.334-38-11.001s-24.333-15-33-25zm137.998-377c11.333 16.667 19.667 31.831 25 45.498s8 20.834 8 21.501c-12 5.333-22.667 12.333-32 21-8 7.333-15.333 17.166-22 29.499s-10 27.5-10 45.5c0 14.667 2.5 27.5 7.5 38.5s10.667 20.167 17 27.5 12.333 13 18 17 8.834 6 9.501 6c-7.333 10-15.333 18.167-24 24.5s-17.167 11-25.5 14-16 5.167-23 6.5-12.5 2-16.5 2c-9.333.667-18.5 0-27.5-2s-17.5-4.5-25.5-7.5l-22-8.5c-6.667-2.667-12.334-4-17.001-4-9.333 0-21 3.5-35 10.5s-29 10.5-45 10.5c-20.667-.667-39.667-6.167-57-16.5s-31.333-24.5-42-42.5-17-37.833-19-59.5-1.167-43.167 2.5-64.5 9.834-42 18.501-62 18-37.333 28-52c10-14 21.333-27.5 34-40.5s26.667-19.167 42-18.5c8 0 14.833 1 20.5 3s11.334 4.167 17.001 6.5 11.667 4.5 18 6.5 14.166 3 23.499 3 17.166-1 23.499-3 12.333-4.167 18-6.5 11.5-4.5 17.5-6.5 13-3 21-3c16.667.667 30.667 6.834 42 18.501s22 24.834 32 39.501z"/><glyph glyph-name="circlebebo" unicode="circlebebo" d="M425 721c58 0 112.5-11 163.5-33S684 636 722 598s68-82.5 90-133.5S845 359 845 301s-11-112.5-33-163.5S760 42 722 4s-82.5-68-133.5-90S483-119 425-119s-112.5 11-163.5 33S166-34 128 4 60 86.5 38 137.5 5 243 5 301s11 112.5 33 163.5S90 560 128 598s82.5 68 133.5 90S367 721 425 721zm49-656c26 0 50.333 4.503 73 13.503s42.5 21.167 59.5 36.5 30.333 33.333 40 54 14.5 43 14.5 67c0 23.333-3.667 45.333-11 66s-17.333 38.667-30 54-27.5 27.5-44.5 36.5-35.167 13.5-54.5 13.5h-93c-13.333 0-24.5-3.333-33.5-10S381 379.669 381 367.002s4.5-22.5 13.5-29.5 20.167-10.5 33.5-10.5h93c11.333 0 22-7.333 32-22s15-33.334 15-56.001c0-22-9.167-40.667-27.5-56S500 170 474 170h-46c-26 0-46.167 7.833-60.5 23.5S346 229.668 346 255v237c0 12.667-5.5 23.334-16.5 32s-22.833 13-35.5 13c-13.333 0-25.5-4.332-36.5-13s-16.5-19.333-16.5-32V255c0-25.333 4.833-49.333 14.5-72s23-42.834 40-60.501 36.833-31.667 59.5-42S402 65 428 65h46z"/><glyph glyph-name="circlebehance" unicode="circlebehance" d="M562 326c12.667 0 23.002-3.999 31.002-11.999 4-4 7.167-8.333 9.5-13s3.833-13.667 4.5-27h-90c1.333 13.333 3.166 22.166 5.499 26.499S527.667 309 531 313c8 8.667 18.333 13 31 13zm-214.998 12.001c-4-2.667-8.499-5.333-13.499-8s-10.833-4-17.5-4h-48v79h41c7.333 0 13.666-.833 18.999-2.5l15-4.5c10-5.333 15-15.666 15-30.999 0-14.667-3.667-24.334-11-29.001zm-.999-65.999c6-3.333 10.499-7.167 13.499-11.5s4.5-10.5 4.5-18.5c0-20-6.333-33.333-19-40-7.333-4-17-6-29-6h-48v78h49c6.667 0 12.334.167 17.001.5s8.667-.5 12-2.5zm78.999 446.999c58 0 112.333-11 163-33s95-51.833 133-89.5 68-82 90-133 33-105.5 33-163.5-11-112.333-33-163-52-95-90-133-82.333-68-133-90-105-33-163-33-112.5 11-163.5 33-95.333 52-133 90-67.5 82.333-89.5 133-33 105-33 163 11 112.5 33 163.5 51.833 95.333 89.5 133 82 67.5 133 89.5 105.5 33 163.5 33zm-13-531c8.667 14.667 13 31.335 13 50.002 0 17.333-3.667 32.666-11 45.999-8 12.667-19.333 22-34 28 9.333 4.667 16.666 10.667 21.999 18 9.333 11.333 14 26.666 14 45.999 0 18.667-4.667 34.667-14 48-14 22-38.667 33-74 33h-139v-314h130c7.333 0 14.333.333 21 1s13 1.667 19 3c12 2.667 23 8 33 16 8.667 8 15.334 16.333 20.001 25zm91 217.001h105v52h-105v-52zm157-157 .005 5.498V266c0 4.667-.167 9.334-.5 14.001s-.5 8.334-.5 11.001c-2.667 16.667-8 31.334-16 44.001-4.667 8-9.834 14.667-15.501 20s-11.834 9.666-18.501 12.999c-14.667 7.333-30.334 11-47.001 11-28.667 0-52.334-10.333-71.001-31-18-20-27-49.333-27-88 0-40.667 10-70.334 30-89.001 19.333-17.333 42.666-26 69.999-26 32 0 56.667 11.333 74 34 6 6.667 10.5 13 13.5 19s5.167 14 6.5 24h-53c-1.333-10-3-15.167-5-15.5s-4-1.166-6-2.499c-3.333-3.333-7.5-6.333-12.5-9s-10.5-4-16.5-4c-10.667 0-20 3-28 9-6.667 4.667-11.667 10.5-15 17.5s-5.333 17.167-6 30.5h144z"/><glyph glyph-name="circlebing" unicode="circlebing" d="M425 719c58 0 112.333-11 163-33s95-51.833 133-89.5 68-82 90-133S844 358 844 300s-11-112.333-33-163-52-95-90-133-82.333-68-133-90-105-33-163-33-112.333 11-163 33-95 52-133 90-68 82.333-90 133S6 242 6 300s11 112.5 33 163.5 52 95.333 90 133S211.333 664 262 686s105 33 163 33zm0-654c32.667 0 63.166 4.336 91.499 13.003s53.166 20.5 74.499 35.5 38.166 32.5 50.499 52.5 18.5 41.667 18.5 65c0 22.667-6.167 44.167-18.5 64.5s-29.166 38.166-50.499 53.499-46.166 27.333-74.499 36-58.833 13-91.5 13c-14 0-27.333-.667-40-2s-25.167-4-37.5-8-25-9.333-38-16-26.833-15-41.5-25v189h-79v-309h1c.667-22.667 7.334-43.834 20.001-63.501s29.5-36.834 50.5-51.501 45.667-26.167 74-34.5S393 65 425 65zm-.001 277.003c20.667 0 40.167-2.833 58.5-8.5s34.166-13.5 47.499-23.5 24-21.833 32-35.5 12-28.167 12-43.5-4-29.666-12-42.999-18.667-25-32-35-29.166-18-47.499-24-37.833-9-58.5-9-40.167 3-58.5 9-34.166 14-47.499 24-24 21.667-32 35-12 27.666-12 42.999 4 29.833 12 43.5 18.667 25.5 32 35.5 29.166 17.833 47.499 23.5 37.833 8.5 58.5 8.5zm0-182c14 0 27 2 39 6s22.5 9.167 31.5 15.5 16 14 21 23 7.5 18.5 7.5 28.5-2.5 19.5-7.5 28.5-12 16.667-21 23-19.5 11.5-31.5 15.5-25 6-39 6-27-2-39-6-22.5-9.167-31.5-15.5-16-14-21-23-7.5-18.5-7.5-28.5 2.5-19.5 7.5-28.5 12-16.667 21-23 19.5-11.5 31.5-15.5 25-6 39-6z"/><glyph glyph-name="circleblip" unicode="circleblip" d="M425 720c58 0 112.333-11 163-33s95-51.833 133-89.5 68-82 90-133S844 359 844 301s-11-112.333-33-163-52-95-90-133-82.333-68-133-90-105-33-163-33-112.333 11-163 33-95 52-133 90-68 82.333-90 133S6 243 6 301s11 112.5 33 163.5 52 95.333 90 133S211.333 665 262 687s105 33 163 33zM346 92 215 223v-79l-26-26 53-52 26 26h78zm164 0c0 40-7.83 77.83-23.497 113.497s-36.834 66.834-63.501 93.501-57.834 47.834-93.501 63.501-73.834 23.5-114.501 23.5v-85c28 0 55-5.167 81-15.5s48.667-25.166 68-44.499 34.333-42 45-68 16-53 16-81h85zm150.003-.003c0 60.667-11.669 118.001-35.002 172.001s-55.166 101.333-95.499 142-87.5 72.667-141.5 96-111.667 35-173 35v-85c49.333 0 95.833-9.5 139.5-28.5s81.834-44.833 114.501-77.5 58.5-70.834 77.5-114.5 28.5-90.168 28.5-139.5h85z"/><glyph glyph-name="circleblogger" unicode="circleblogger" d="M369 361c-7.333 0-13.833 2.667-19.5 8s-8.5 12-8.5 20c0 7.333 2.833 13.833 8.5 19.5s12.167 8.5 19.5 8.5h83c8 0 14.667-2.833 20-8.5s8-12.167 8-19.5c0-8-2.667-14.667-8-20s-12-8-20-8h-83zm168-114c8 0 14.667-2.667 20-8s8-12 8-20c0-7.333-2.667-13.833-8-19.5s-12-8.5-20-8.5H369c-7.333 0-13.833 2.833-19.5 8.5S341 211.667 341 219c0 8 2.833 14.667 8.5 20s12.167 8 19.5 8h168zM424 716c58 0 112.333-11 163-33s94.834-51.833 132.501-89.5 67.5-81.834 89.5-132.501 33-104.667 33-162c0-58-11-112.333-33-163s-51.833-94.834-89.5-132.501S637.667-63.836 587-85.503s-105-32.5-163-32.5c-57.333 0-111.333 10.833-162 32.5S167.166-34.169 129.499 3.498s-67.5 81.834-89.5 132.501-33 105-33 163c0 57.333 11 111.333 33 162s51.833 94.834 89.5 132.501S211.333 661 262 683s104.667 33 162 33zm264-379-1.002 6.002-4 9-7 5c-2 2-5.833 3-11.5 3s-12 .167-19 .5-13.667.833-20 1.5-10.833 2.334-13.5 5c-4 4-6.667 9.334-8 16s-2.666 14.668-3.999 24c-1.333 8.668-2.5 15.668-3.5 21s-2 9.667-3 13-2 6.166-3 8.499l-3.5 8.5c-5.333 10.667-12.5 20.667-21.5 30s-18.833 17.5-29.5 24.5-21.667 12.667-33 17S481.333 536.667 472 538H368c-20.667 0-40-3.833-58-11.5s-33.833-18.167-47.5-31.5-24.334-29-32.001-47-11.5-37.333-11.5-58V217c0-20 3.833-39 11.5-57s18.334-33.833 32.001-47.5S292 88.166 310 80.499s37.333-11.5 58-11.5h170c20.667 0 40 3.833 58 11.5s33.667 18.334 47 32.001 24 29.5 32 47.5 12 37 12 57z"/><glyph glyph-name="circlecoroflot" unicode="circlecoroflot" d="M425 718c58 0 112.333-11 163-33s94.834-51.833 132.501-89.5 67.5-81.834 89.5-132.501 33-105 33-163c0-57.333-11-111.333-33-162s-51.833-95-89.5-133-81.834-68-132.501-90-105-33-163-33-112.333 11-163 33-94.834 52-132.501 90-67.5 82.333-89.5 133-33 104.667-33 162c0 58 11 112.333 33 163s51.833 94.834 89.5 132.501S211.333 663 262 685s105 33 163 33zM226 456c-2-10 4.004-15.668 18.004-17.001s31-1.333 51 0c9.333.667 18.333-2.166 27-8.499s16.167-15.833 22.5-28.5 11.333-28.167 15-46.5 5.167-38.5 4.5-60.5c8.667 2.667 18.667 4.667 30 6 0 5.333-.833 14.5-2.5 27.5s-5 27.333-10 43-12 31.334-21 47.001-20.833 29.167-35.5 40.5c8 .667 17.667 0 29-2s23.666-7 36.999-15 27.666-19.667 42.999-35 31.333-36 48-62c6 3.333 12.333 5.333 19 6-6 10-15.167 23.167-27.5 39.5s-26.833 32-43.5 47-35.5 27-56.5 36-42.833 10.5-65.5 4.5c.667 8 .667 15.833 0 23.5s-2.167 14.167-4.5 19.5-5.5 9-9.5 11-9 1.333-15-2c-7.333-4-11.833-7.667-13.5-11s-2.334-7-2.001-11 1-8.333 2-13 1.167-10 .5-16c-1.333-6-3.833-9.833-7.5-11.5s-7.834-2.5-12.501-2.5-9-.333-13-1-6.333-3.334-7-8.001zM406.004 67.999c14 0 27.333 2.667 40 8s23.667 12.666 33 21.999 16.666 20.333 21.999 33 8 26 8 40-2.667 27.333-8 40-12.666 23.667-21.999 33-20.333 16.666-33 21.999-26 8-40 8-27.333-2.667-40-8-23.667-12.666-33-21.999-16.666-20.333-21.999-33-8-26-8-40 2.667-27.333 8-40 12.666-23.667 21.999-33 20.333-16.666 33-21.999 26-8 40-8zm127 72c12.667.667 24.501 3.499 35.501 8.499s20.667 11.833 29 20.5 14.833 18.667 19.5 30 7 23.333 7 36c0 26.667-9.333 49.334-28 68.001s-41.334 28-68.001 28c-15.333 0-29.5-3.5-42.5-10.5s-24.167-16.167-33.5-27.5c25.333-9.333 45.833-25 61.5-47s23.5-47 23.5-75c0-12-1.333-22.333-4-31zm-157.999 92.999c6.667 0 12.167-2.167 16.5-6.5s6.5-9.833 6.5-16.5c0-6-2.167-11.167-6.5-15.5s-9.833-6.5-16.5-6.5c-6 0-11.167 2.167-15.5 6.5s-6.5 9.5-6.5 15.5c0 6.667 2.167 12.167 6.5 16.5s9.5 6.5 15.5 6.5z"/><glyph glyph-name="circledaytum" unicode="circledaytum" d="M424 717c58 0 112.333-11 163-33s94.834-51.833 132.501-89.5 67.5-81.834 89.5-132.501 33-104.667 33-162c0-58-11-112.333-33-163s-51.833-94.834-89.5-132.501S637.667-62.836 587-84.503s-105-32.5-163-32.5c-57.333 0-111.333 10.833-162 32.5S167.166-33.169 129.499 4.498s-67.5 81.834-89.5 132.501-33 105-33 163c0 57.333 11 111.333 33 162s51.833 94.834 89.5 132.501S211.333 662 262 684s104.667 33 162 33zM268 195h-52V39h52v156zm78 105h-52V39h52v261zm78-52h-52V39h52v209zm79 156h-53V39h53v365zm78-104h-52V39h52v261zm78 156h-52V39h52v417zm0 79H216v-53h443v53z"/><glyph glyph-name="circledelicious" unicode="circledelicious" d="M425 720c58 0 112.5-11 163.5-33s95.333-52 133-90S789 514.5 811 463.5 844 358 844 300s-11-112.5-33-163.5S759.167 41 721.5 3s-82-68-133-90S483-120 425-120s-112.5 11-163.5 33S166-35 128 3 60 85.5 38 136.5 5 242 5 300s11 112.5 33 163.5S90 559 128 597s82.5 68 133.5 90S367 720 425 720zm210-210H425V300H215V90h210v210h210v210z"/><glyph glyph-name="circledesignbump" unicode="circledesignbump" d="M425 720c58 0 112.5-11 163.5-33S684 635 722 597s68-82.5 90-133.5S845 358 845 300s-11-112.5-33-163.5S760 41 722 3s-82.5-68-133.5-90S483-120 425-120s-112.5 11-163.5 33S166-35 128 3 60 85.5 38 136.5 5 242 5 300s11 112.5 33 163.5S90 559 128 597s82.5 68 133.5 90S367 720 425 720zm-79-288h53v-53l105-105H399V169l105 105v158h52L451 537zm26-132h53L320 405 215 300h52V64h105v236zm79-183h-52V64h52v53zm184 26L530 248 425 143h52V64h105v79h53z"/><glyph glyph-name="circledesignfloat" unicode="circledesignfloat" d="M425 385c23.333 0 43-8.167 59-24.5s24-36.166 24-59.499-8-43-24-59-35.667-24-59-24-43.166 8-59.499 24-24.5 35.667-24.5 59 8.167 43.166 24.5 59.499S401.667 385 425 385zm0 128c29.333 0 56.833-5.5 82.5-16.5s48.167-26.167 67.5-45.5 34.5-41.833 45.5-67.5S637 330.333 637 301s-5.5-56.833-16.5-82.5-26.167-48.167-45.5-67.5-41.833-34.5-67.5-45.5S454.333 89 425 89s-56.833 5.5-82.5 16.5-48.167 26.167-67.5 45.5-34.5 41.833-45.5 67.5S213 271.667 213 301s5.5 56.833 16.5 82.5 26.167 48.167 45.5 67.5 41.833 34.5 67.5 45.5S395.667 513 425 513zm-52-33c-39.333-8-68.333-25.668-87-53.001S254 366.333 246 327h52c6.667 26.667 17.5 48.5 32.5 65.5s29.167 29.167 42.5 36.5v51zm0-306.001L352 184c-7.333 3.333-14.5 7.666-21.5 12.999s-13.333 12-19 20-10.167 18.667-13.5 32h-52c8-39.333 21.333-68.333 40-87s47.667-32 87-40v52zM317 301c0-14.667 3-28.5 9-41.5s13.833-24.333 23.5-34 21-17.334 34-23.001 26.833-8.5 41.5-8.5 28.5 2.833 41.5 8.5 24.333 13.334 34 23.001 17.334 21 23.001 34 8.5 26.833 8.5 41.5-2.833 28.667-8.5 42-13.334 24.833-23.001 34.5-21 17.334-34 23.001-26.833 8.5-41.5 8.5-28.5-2.833-41.5-8.5-24.333-13.334-34-23.001S332 356.333 326 343s-9-27.333-9-42zm134-179c19.333 4 37.5 9.165 54.5 15.498s32.167 14.5 45.5 24.5 24.5 22 33.5 36 15.5 31 19.5 51h-52c-3.333-13.333-8-24-14-32s-13.333-14.667-22-20-18.5-9.666-29.5-12.999-22.833-6.666-35.5-9.999v-52zm153 204.998c-8 40-25.668 73.5-53.001 100.5s-60.666 44.5-99.999 52.5v-51c26-7.333 47.667-19.5 65-36.5s29.333-38.833 36-65.5h52zm-179.001 393c58 0 112.333-11 163-33s95-51.833 133-89.5 68-82 90-133 33-105.5 33-163.5-11-112.333-33-163-52-95-90-133-82.333-68-133-90-105-33-163-33-112.333 11-163 33-95 52-133 90-68 82.333-90 133-33 105-33 163 11 112.5 33 163.5 52 95.333 90 133 82.333 67.5 133 89.5 105 33 163 33zm0-654c32.667 0 63.167 6.167 91.5 18.5s53.166 29.166 74.499 50.499 38.166 46.166 50.499 74.499 18.5 58.833 18.5 91.5-6.167 63.334-18.5 92.001-29.166 53.667-50.499 75-46.166 38.166-74.499 50.499-58.833 18.5-91.5 18.5-63.334-6.167-92.001-18.5-53.667-29.166-75-50.499-38.166-46.333-50.499-75-18.5-59.334-18.5-92.001 6.167-63.167 18.5-91.5 29.166-53.166 50.499-74.499 46.333-38.166 75-50.499 59.334-18.5 92.001-18.5z"/><glyph glyph-name="circledeviantart" unicode="circledeviantart" d="M261 209c-3.333 9.333-4.333 18.667-3 28 1.333 8 5 17 11 27s16.667 20 32 30l32-66zm164 509.001c58 0 112.333-11 163-33s95-52 133-90 68-82.333 90-133 33-105 33-163-11-112.5-33-163.5-52-95.5-90-133.5-82.333-68-133-90-105-33-163-33-112.5 11-163.5 33-95.5 52-133.5 90-68 82.5-90 133.5-33 105.5-33 163.5 11 112.333 33 163 52 95 90 133 82.5 68 133.5 90 105.5 33 163.5 33zm235-449c-16.667 22-39.332 40.669-67.999 56.002-24.667 13.333-56.834 23.666-96.501 30.999s-88.834 6-147.501-4h-4l-23 46-67-8 27-56c-18-7.333-32.833-15.833-44.5-25.5s-21-19.834-28-30.501-12-21.5-15-32.5-4.833-21.833-5.5-32.5c-1.333-24.667 3.334-50 14.001-76l217 62-59 121c26.667 7.333 51.834 10 75.501 8s44.5-6 62.5-12c21.333-7.333 40.666-16.666 57.999-27.999l-74-20-21 40c-10 1.333-20.667 2.166-32 2.499s-23-.5-35-2.5l50-101z"/><glyph glyph-name="circlediggalt" unicode="circlediggalt" d="M633 247h-26v79h26v-79zM424 718c58 0 112.333-11 163-33s95-51.833 133-89.5 68-81.834 90-132.501 33-105 33-163-11-112.333-33-163-52-95-90-133-82.333-68-133-90-105-33-163-33-112.333 11-163 33-94.834 52-132.501 90-67.5 82.333-89.5 133-33 105-33 163 11 112.333 33 163 51.833 94.834 89.5 132.501S210.333 663 261 685s105 33 163 33zM294 457h-53v-79h-78V195h131v262zm78-79h-52V195h52v183zm0 79h-52v-53h52v53zm157-79H398V195h79v-26h-79v-52h131v261zm157 0H555V195h78v-26h-78v-52h131v261zm-471-52h26v-79h-26v79zm262-79h-27v79h27v-79z"/><glyph glyph-name="circledigg" unicode="circledigg" d="M294 179c7.333 0 13.5-2.167 18.5-6.5S320 163 320 157v-22h-87v22c0 6 2.5 11.167 7.5 15.5s11.167 6.5 18.5 6.5h35zm261 200h-78v79h78v-79zm52-22h26v-56h-52V144h-52v78h-22v-78h-57v157h-52v52h26v-26h183v30zM424 719c58 0 112.333-11 163-33s95-51.833 133-89.5 68-81.834 90-132.501 33-105 33-163-11-112.333-33-163-52-95-90-133-82.333-68-133-90-105-33-163-33-112.333 11-163 33-94.834 52-132.501 90-67.5 82.333-89.5 133-33 105-33 163 11 112.333 33 163 51.833 94.834 89.5 132.501S210.333 664 261 686s105 33 163 33zm262-318-78.999.003v109h-183v-109h-26v3c-14 11.333-27.667 21.666-41 30.999-12 7.333-24.833 14.333-38.5 21s-26.167 10-37.5 10c-12 0-24.833-3.333-38.5-10s-26.5-13.667-38.5-21c-14-9.333-27.667-19.666-41-31v-156h104v-26c-9.333-.666-18.5-2.666-27.5-6s-17.333-8-25-14-13.834-12.832-18.501-20.5-7-15.833-7-24.5v-49c0-4.667 1.667-8.5 5-11.5s7.333-4.5 12-4.5h140c4.667 0 8.667 1.5 12 4.5s5 6.833 5 11.5v49c0 17.333-7 32.166-21 44.499S312 220.667 294 222v26h108V92h231v156h53v153zm-470.999-15.997c12.667 11.333 25.167 20.5 37.5 27.5s21.833 10.5 28.5 10.5c6 0 15.167-3.5 27.5-10.5s24.833-16.167 37.5-27.5v-84h-131v84z"/><glyph glyph-name="circledribble" unicode="circledribble" d="M424 718c58 0 112.333-11 163-33s95-51.833 133-89.5 68-81.834 90-132.501 33-105 33-163-11-112.333-33-163-52-95-90-133-82.333-68-133-90-105-33-163-33-112.333 11-163 33-94.834 52-132.501 90-67.5 82.333-89.5 133-33 105-33 163 11 112.333 33 163 51.833 94.834 89.5 132.501S210.333 663 261 685s105 33 163 33zm0-654c32.667 0 63.334 6.167 92.001 18.5s53.667 29.166 75 50.499 38.166 46.333 50.499 75S660 267.333 660 300s-6.167 63.167-18.5 91.5-29.166 53.166-50.499 74.499-46.333 38.166-75 50.499-59.334 18.5-92.001 18.5c-32 0-62.333-6.167-91-18.5s-53.667-29.166-75-50.499-38.166-46.166-50.499-74.499-18.5-58.833-18.5-91.5 6.167-63.334 18.5-92.001 29.166-53.667 50.499-75 46.333-38.166 75-50.499S392 64 424 64zm20 229c-34-11.333-64.833-27.667-92.5-49S300 197 280 167c-31.333 34.667-48.666 76-51.999 124 5.333-.667 10.166-1 14.499-1H256c61.333 0 120 10.333 176 31l6-14zm25 42.999c42 18.667 81 43.333 117 74 22.667-32.667 34-69 34-109-25.333 6-50 9-74 9-22 0-43.333-2.333-64-7l-6 16.5a143.98 143.98 0 0 1-7 16.5zM310 139.998c17.333 28 38.666 51.835 63.999 71.502s53 34.5 83 44.5c7.333-22.667 13.333-45.834 18-69.501s8.334-47.834 11.001-72.501c-19.333-6.667-40-10-62-10-42 0-80 12-114 36zM495 266c18.667 3.333 35.668 5 51.001 5 24.667 0 48-3.333 70-10-5.333-27.333-16-52.333-32-75s-36-41-60-55c-4.667 45.333-14.334 90.333-29.001 135zm66.001 174c-17.333-14-35-26.834-53-38.501s-36.667-21.834-56-30.501c-11.333 20.667-23.5 40.834-36.5 60.501s-27.167 38.834-42.5 57.501c16 4.667 33 7 51 7 26 0 50.667-4.833 74-14.5s44.333-23.5 63-41.5zm-146-84.001c-51.333-18-104.334-27-159.001-27h-13.5c-4.333 0-8.166.333-11.499 1 4.667 30.667 16 58.667 34 84s41 45.333 69 60c31.333-36 58.333-75.333 81-118z"/><glyph glyph-name="circledrupal" unicode="circledrupal" d="M425 719c58 0 112.333-11 163-33s95-51.833 133-89.5 68-82 90-133S844 358 844 300s-11-112.333-33-163-52-95-90-133-82.333-68-133-90-105-33-163-33-112.5 11-163.5 33-95.333 52-133 90S61 86.333 39 137 6 242 6 300s11 112.5 33 163.5 51.833 95.333 89.5 133 82 67.5 133 89.5S367 719 425 719zm2-654c28 0 54.498 4.668 79.498 14.001s47 22.833 66 40.5 34 38.667 45 63 16.5 51.5 16.5 81.5-4.833 56.167-14.5 78.5-20.5 40.833-32.5 55.5-23.667 26.167-35 34.5-19 13.5-23 15.5c-12 7.333-23.833 13.333-35.5 18s-23.167 10.667-34.5 18c-7.333 5.333-15.666 12.833-24.999 22.5s-18 19.5-26 29.5c-1.333-15.333-4.333-26.833-9-34.5s-9.667-13.834-15-18.501c-12-9.333-22.333-16.166-31-20.499l-28-14.5c-4-2-12-7-24-15s-24.333-19.333-37-34-24-32.834-34-54.501-15-47.167-15-76.5 5.833-56.333 17.5-81 27.334-46 47.001-64 42.167-32.167 67.5-42.5S399 65 427 65zm-47.002 215.001c13.333 0 25.83-2.67 37.497-8.004s22.334-11.166 32.001-17.499l27-18c8.333-5.667 15.833-8.5 22.5-8.5 6 0 12.833 2.333 20.5 7s15.667 9.834 24 15.501 16.5 10.834 24.5 15.501 14.667 7 20 7c11.333 0 19-4.5 23-13.5s6-17.167 6-24.5-1.167-16.333-3.5-27-6.166-20-11.499-28-10.166-13.667-14.499-17-9.833-4.666-16.5-3.999c-4 0-9 2.833-15 8.5l-19 18-19.5 18c-6.333 5.667-12.166 8.5-17.499 8.5-6.667 0-15.167-2.833-25.5-8.5l-33-19c-11.667-7-23.834-13.333-36.5-19s-24.668-8.5-36-8.5c-13.334 0-23 .833-29 2.5s-11.334 4.167-16 7.5c-14 10-20.668 24.667-20 44 0 18 7.332 34 22 48s32.666 21 54 21zm1.997 148.996c-9.333-9.333-18.498-17.668-27.498-25.001s-22.167-16-39.5-26-29.833-15.5-37.5-16.5-12.167-1.167-13.5-.5c-.667.667-1.834 2-3.501 4s-.834 5.667 2.499 11c5.333 8.667 11.833 16.5 19.5 23.5s15.334 13.333 23.001 19 14.667 10.334 21 14.001 11.166 6.167 14.499 7.5c2 1.333 7.5 4.333 16.5 9s18.833 10.667 29.5 18c6 5.333 11.167 11 15.5 17s7.5 16.667 9.5 32c1.333-5.333 2.5-10.333 3.5-15s1.167-10 .5-16c-.667-5.333-2.834-9.833-6.5-13.5l-7.5-7.5-14-7c-2-2-2-3 0-3 4-1.333 6-3.333 6-6 0-1.333-.668-3.5-2-6.5s-4.667-7.167-10-12.5zm79.002-287.002c-4-3.333-6.832-5.502-8.499-6.502s-3.167-.5-4.5 1.5c-2.667 3.333-1.667 7.333 3 12l9.5 7.5c3.667 3 7.5 5.5 11.5 7.5 4 1.333 7.333 2 10 2h10c3.333 0 6.833-.167 10.5-.5s6.834-1.5 9.501-3.5c3.333-1.333 5.666-3.666 6.999-6.999s2.666-6.333 3.999-9c1.333-4 0-7-4-9-1.333-1.333-2.333-1.666-3-.999s-2 2.667-4 6c-1.333 3.333-3.333 6.166-6 8.499s-8 3.5-16 3.5-13.833-1.167-17.5-3.5-7.5-5.166-11.5-8.499zm65.001-22.002c2.667 2 4.999 1.334 6.999-1.999v-3.5c0-1-.667-2.5-2-4.5-1.333-1.333-6.666-4.5-15.999-9.5s-20.333-8.167-33-9.5c-12-1.333-25.5-1.5-40.5-.5s-27.5 6.167-37.5 15.5c-2 1.333-2.833 3-2.5 5s1.166 3.333 2.499 4c2.667 2.667 5 4 7 4 1.333 0 2.333-.333 3-1 4.667-4 10.834-7.167 18.501-9.5s19.167-3.5 34.5-3.5c14.667 0 27 1.667 37 5s17.333 6.666 22 9.999z"/><glyph glyph-name="circleebay" unicode="circleebay" d="M367 247c-.667-16-12-29-34-39h-1v39h35zm85 86c-12-9.333-18-24.331-18-44.998 0-12.667 2.5-23.834 7.5-33.501s13.833-16.167 26.5-19.5v23c0 12-.5 25.167-1.5 39.5S460.667 323.667 452 333zm-52-17.998c10.667 0 16.667-5.167 18-15.5s2-24.166 2-41.499c0-21.333-1-36.666-3-45.999s-7.667-14-17-14c-8.667 0-14.167 4.667-16.5 14s-3.5 24.666-3.5 45.999c0 17.333.833 31.166 2.5 41.499s7.5 15.5 17.5 15.5zm25 404c58 0 112.333-11 163-33s95-51.833 133-89.5 68-82 90-133 33-105.5 33-163.5-11-112.333-33-163-52-95-90-133-82.333-68-133-90-105-33-163-33-112.333 11-163 33-95 52-133 90-68 82.333-90 133-33 105-33 163 11 112.5 33 163.5 52 95.333 90 133 82.333 67.5 133 89.5 105 33 163 33zm314-288-64.002.003-49-101-46 101h-69l12-22c-3.333 0-6.833.167-10.5.5s-7.5.5-11.5.5c-20.667 0-35.667-3.667-45-11-12.667-7.333-19-21-19-41h48c0 6.667.833 12.667 2.5 18s7.167 8 16.5 8c8.667 0 14-2.333 16-7s3-10.667 3-18v-13c-13.333 0-26.333-.5-39-1.5s-23.334-4.833-32.001-11.5c-7.333 7.333-18 11-32 11-16.667 0-29.667-6.333-39-19h-1v88h-48v-79c-3.333 1.333-7.166 2.5-11.499 3.5l-14.5 3.5c-17.333 4-39.666 6-66.999 6-29.333 0-52.333-2-69-6s-29.5-9.5-38.5-16.5-14.667-15-17-24-3.5-18.5-3.5-28.5c0-12 1.333-22.833 4-32.5s8.5-18 17.5-25 21.833-12.333 38.5-16 39.334-5.5 68.001-5.5c13.333 0 25.5.667 36.5 2s21.167 2.666 30.5 3.999c10.667 2 19.334 5 26.001 9v-35h46v18h1c8-14.667 21.667-22 41-22 10 0 18 2 24 6s10.667 9.167 14 15.5 5.666 13.333 6.999 21 2.333 15.5 3 23.5c2.667-.667 6.667-1 12-1 20 0 35 8.667 45 26h1l2-23h45c-.667 5.333-1.167 10.666-1.5 15.999s-.5 10.666-.5 15.999v45l20-39v-83h63v83zm-216.002-21.997c21.333-3.333 34.667-10.168 40-20.501s8-22.166 8-35.499v-39zm-41.999-119.002c0 7.333.998 13 2.998 17s5 6.833 9 8.5 8.5 2.667 13.5 3 10.5.5 16.5.5c0-4.667.167-10.167.5-16.5s-.167-12.333-1.5-18-3.666-10.5-6.999-14.5-8.666-6-15.999-6c-8 0-13 2.833-15 8.5s-3 11.5-3 17.5zm-242.002-70c-9.333 0-16.667 1.501-22 4.501s-9.333 6.667-12 11-4.167 9-4.5 14-.5 9.833-.5 14.5h132v-17h-55c0-6.667-2.333-12.834-7-18.501s-15-8.5-31-8.5zm92.999 44.001.001 70c17.333-7.333 28.166-17 32.499-29s5.833-25.667 4.5-41h-37zm-92.999 57c10.667 0 18.836-1.168 24.503-3.501s9.667-5.166 12-8.499 3.666-7 3.999-11 .5-7.667.5-11h-80c0 2.667.167 6 .5 10s1.666 7.833 3.999 11.5 6.166 6.667 11.499 9 13 3.5 23 3.5z"/><glyph glyph-name="circleemail" unicode="circleemail" d="M425 721c58 0 112.5-11 163.5-33S684 636 722 598s68-82.5 90-133.5S845 359 845 301s-11-112.5-33-163.5S760 42 722 4s-82.5-68-133.5-90S483-119 425-119s-112.5 11-163.5 33S166-34 128 4 60 86.5 38 137.5 5 243 5 301s11 112.5 33 163.5S90 560 128 598s82.5 68 133.5 90S367 721 425 721zM189 192l126 90-126 90V192zm472-40L507 262l-82-59-83 59-153-110V91h472v61zm0 220-126-90 126-90v180zm0 139H189v-61l236-168 236 168v61z"/><glyph glyph-name="circleemberapp" unicode="circleemberapp" d="M611 301c0-6.667-.497-13.498-1.497-20.498s-1.5-14.167-1.5-21.5c0-19.333-3.167-38.666-9.5-57.999s-16.166-37.333-29.5-54c-16-20-35.332-35.333-58-46s-50.333-16.667-83-18c-38 2-71 12-99 30s-48.667 44.667-62 80c0 4-2.333 8.167-7 12.5s-8 9.166-10 14.499c1.333 1.333 2.166 2.333 2.499 3s1.166 1.667 2.499 3h-1c3.333 3.333 5.333 7.666 6 12.999s1.334 11.666 2.001 18.999c1.333 12 3.833 27.167 7.5 45.5s12.167 36.5 25.5 54.5c11.333 15.333 24.5 29.833 39.5 43.5s29.833 26.5 44.5 38.5l38 33.5c11.333 10.333 20.333 20.5 27 30.5 12.667-10 27-22 43-36s31.167-29 45.5-45 26.666-32.333 36.999-49 16.166-32.667 17.499-48l6-48zm-40.997-128.998c10 12 17.832 24.999 23.499 38.999s10.167 28 13.5 42l-14-17-6 49c-1.333 15.333-7.166 31.333-17.499 48s-22.666 33-36.999 49-29.5 31-45.5 45-30.333 26-43 36c-6.667-10-15.667-20.333-27-31s-24-21.667-38-33l-44.5-39.5c-15-13.667-28.167-28.167-39.5-43.5-13.333-17.333-21.833-35.166-25.5-53.499s-6.167-33.5-7.5-45.5c-.667-1.333-1-3.333-1-6 35.333-66 89.666-100.333 162.999-103 66 2 114.667 23.333 146 64zM424.002 719.001c58 0 112.5-11 163.5-33s95.5-52 133.5-90 68-82.333 90-133 33-105 33-163-11-112.5-33-163.5-52-95.5-90-133.5-82.5-68-133.5-90-105.5-33-163.5-33-112.333 11-163 33-95 52-133 90-68 82.5-90 133.5-33 105.5-33 163.5 11 112.333 33 163 52 95 90 133 82.333 68 133 90 105 33 163 33zm-1-655c46.667 1.333 84.001 10.495 112.001 27.495s49.333 37.5 64 61.5 24.334 49.667 29.001 77 6.667 52.333 6 75-2.334 40.834-5.001 54.501-3.667 18.834-3 15.501c.667-5.333.167-10.666-1.5-15.999s-3.834-10.333-6.501-15c-2.667-5.333-6-10.666-10-15.999-3.333 23.333-14 47.5-32 72.5s-37.667 47.5-59 67.5c-24.667 23.333-52 46-82 68-.667-10.667-6.834-22-18.501-34s-25.5-25-41.5-39l-51-44c-18-15.333-33.333-32-46-50-11.333-14.667-19.333-29.667-24-45s-8-29.166-10-41.499-3.333-22.666-4-30.999-2-12.833-4-13.5c-4-1.333-8.667-.666-14 2.001-2.667 1.333-5 3-7 5 12-40.667 27.167-72.834 45.5-96.5s37.5-41.668 57.5-54 39.333-20.334 58-24 34.334-5.835 47.001-6.502z"/><glyph glyph-name="circleetsy" unicode="circleetsy" d="M424 720c58 0 112.5-11 163.5-33s95.667-52 134-90S790 514.5 812 463.5 845 358 845 300s-11-112.5-33-163.5-52.167-95.667-90.5-134-83-68.5-134-90.5S482-121 424-121s-112.5 11-163.5 33S165-35.833 127 2.5s-68 83-90 134S4 242 4 300s11 112.5 33 163.5S89 559 127 597s82.5 68 133.5 90S366 720 424 720zm210-525h-14.001l-23.5-40.5c-7.667-13.667-15.167-24.5-22.5-32.5-6-6-11.833-11.167-17.5-15.5S544.665 99 537.998 97s-15-3.667-25-5-22-2-36-2h-83c-14 0-23.667 1.667-29 5-6 3.333-10 7.666-12 12.999-1.333 2.667-2.833 7.667-4.5 15s-2.5 16.666-2.5 27.999v149h116c20 0 35-3 45-9 9.333-4.667 16.333-12 21-22 3.333-6 7-22 11-48h17v184h-17c-1.333-13.333-3.666-25.833-6.999-37.5s-8-20.5-14-26.5c-5.333-4.667-12.5-8.334-21.5-11.001s-20.5-4-34.5-4h-116v184h142c26.667 0 43.667-1.667 51-5 13.333-5.333 22.666-12.666 27.999-21.999 6-10 11.333-27.333 16-52h15l-6 105h-378v-26h18c10 0 19.333-.333 28-1s15-3.667 19-9c3.333-3.333 6.5-9.166 9.5-17.499s4.5-20.833 4.5-37.5v-289c0-13.333-1-23.666-3-30.999s-3.667-13-5-17-4.166-7-8.499-9-8.166-4.333-11.499-7c-5.333-2.667-10.833-3.667-16.5-3s-11.167 1-16.5 1h-18V63h378z"/><glyph glyph-name="circlefacebook" unicode="circlefacebook" d="M424 718c58 0 112.5-11 163.5-33S683 633 721 595s68-82.333 90-133 33-105 33-163-11-112.5-33-163.5S759 40 721 2s-82.5-68-133.5-90S482-121 424-121s-112.333 11-163 33-95 52-133 90-68 82.5-90 133.5S5 241 5 299s11 112.333 33 163 52 95 90 133 82.333 68 133 90 105 33 163 33zm158-183-89 .001c-17.333 0-33.333-3-48-9s-27.5-14-38.5-24-19.5-21.333-25.5-34-9-25.334-9-38.001v-53h-79V273h79V63h105v210h78v104h-78v27c0 8 3.167 14.333 9.5 19s11.833 7 16.5 7h79v105z"/><glyph glyph-name="circlefeedburner" unicode="circlefeedburner" d="M425 720c58 0 112.5-11 163.5-33S684 635 722 597s68-82.5 90-133.5S845 358 845 300s-11-112.5-33-163.5S760 41 722 3s-82.5-68-133.5-90S483-120 425-120s-112.5 11-163.5 33S166-35 128 3 60 85.5 38 136.5 5 242 5 300s11 112.5 33 163.5S90 559 128 597s82.5 68 133.5 90S367 720 425 720zm-41-162c-16-11.333-31.667-27.334-47-48.001s-29-43.5-41-68.5-21.667-50.833-29-77.5-11-51.667-11-75c0-33.333 4-63.166 12-89.499s19.167-48.833 33.5-67.5 31.166-33.167 50.499-43.5 40.333-15.5 63-15.5c22 0 43.5 4.833 64.5 14.5s39.667 22.5 56 38.5 29.5 34 39.5 54 15 40.667 15 62c0 24-3 44.833-9 62.5s-14 32.834-24 45.501-21.333 23.667-34 33-25.667 18-39 26c4-21.333 4-40.333 0-57s-10.667-30.334-20-41.001-20.833-18-34.5-22-28.5-3.667-44.5 1c15.333 26 25 48 29 66s4.833 33.833 2.5 47.5-6.666 25.834-12.999 36.501-12.166 21.667-17.499 33-8.833 23.666-10.5 36.999 1.166 29.333 8.499 48zm41-515.001c32.667 0 63.333 2.665 92 7.998s53.667 12.666 75 22 38.166 20.165 50.499 32.498 18.5 25.5 18.5 39.5c0 12.667-4.667 24.334-14 35.001s-22.333 20.667-39 30c-6-18.667-15.5-36.5-28.5-53.5s-28-31.667-45-44-35.667-22.166-56-29.499-41.166-11-62.499-11c-40 0-75 12.333-105 37s-51.667 59-65 103c-18-9.333-32-19.5-42-30.5s-15-23.167-15-36.5c0-14 6.167-27.167 18.5-39.5s29.166-23.166 50.499-32.499 46.333-16.666 75-21.999 59.334-8 92.001-8zm-10.001 62.998c-22.667 0-43.499 5.669-62.499 17.002s-33.333 27.5-43 48.5-13.334 46-11.001 75 14.166 60.833 35.499 95.5c-4-20-4.5-38.667-1.5-56s8.333-32.333 16-45 17-22.5 28-29.5 22.167-10.5 33.5-10.5c25.333-.667 45.833 9.833 61.5 31.5s27.167 48.5 34.5 80.5c20.667-16 33.834-35.667 39.501-59s4.5-45.833-3.5-67.5-22.667-40.334-44-56.001-49-23.834-83-24.501z"/><glyph glyph-name="circleflickr" unicode="circleflickr" d="M424 718c58 0 112.333-11 163-33s95-51.833 133-89.5 68-81.834 90-132.501 33-105 33-163-11-112.333-33-163-52-95-90-133-82.333-68-133-90-105-33-163-33-112.333 11-163 33-94.834 52-132.501 90-67.5 82.333-89.5 133-33 105-33 163 11 112.333 33 163 51.833 94.834 89.5 132.501S210.333 663 261 685s105 33 163 33zM294 195c14 0 27.333 2.667 40 8s23.834 12.833 33.501 22.5 17.167 20.834 22.5 33.501 8 26.334 8 41.001-2.667 28.334-8 41.001-12.833 23.667-22.5 33-20.834 16.666-33.501 21.999-26 8-40 8c-14.667 0-28.334-2.667-41.001-8s-23.834-12.666-33.501-21.999-17.167-20.333-22.5-33-8-26.334-8-41.001 2.667-28.334 8-41.001 12.833-23.834 22.5-33.501 20.834-17.167 33.501-22.5 26.334-8 41.001-8zm261 0c14.667 0 28.334 2.667 41.001 8s23.667 12.833 33 22.5 16.833 20.834 22.5 33.501 8.5 26.334 8.5 41.001-2.833 28.334-8.5 41.001-13.167 23.667-22.5 33-20.333 16.666-33 21.999-26.334 8-41.001 8-28.334-2.667-41.001-8-23.834-12.666-33.501-21.999-17.167-20.333-22.5-33-8-26.334-8-41.001 2.667-28.334 8-41.001 12.833-23.834 22.5-33.501 20.834-17.167 33.501-22.5 26.334-8 41.001-8z"/><glyph glyph-name="circlefoodspotting" unicode="circlefoodspotting" d="M600 133c5.333 0 10.667-3.001 16-9.001 4-6 6-15.333 6-28 0-12-2.333-20.667-7-26-4-5.333-9-8-15-8-8 0-14 3.667-18 11-3.333 6.667-5 15.334-5 26.001 0 12 2.333 20.333 7 25 4 6 9.333 9 16 9zM477.001 482.999c14 0 27.333-2.833 40-8.5s23.834-13.167 33.501-22.5 17.167-20.333 22.5-33 8-26.334 8-41.001-2.667-28.334-8-41.001-12.833-23.667-22.5-33-20.834-16.666-33.501-21.999-26-8-40-8c-14.667 0-28.334 2.667-41.001 8s-23.834 12.666-33.501 21.999-17.167 20.333-22.5 33-8 26.334-8 41.001 2.667 28.334 8 41.001 12.833 23.667 22.5 33 20.834 16.833 33.501 22.5 26.334 8.5 41.001 8.5zm0-157c14.667 0 27 5 37 15s15 22.333 15 37-5 27.167-15 37.5-22.333 15.5-37 15.5-27.167-5.167-37.5-15.5-15.5-22.833-15.5-37.5 5.167-27 15.5-37 22.833-15 37.5-15zm-53 392c58 0 112.333-11 163-33s95-51.833 133-89.5 68-81.834 90-132.501 33-105 33-163-11-112.333-33-163-52-95-90-133-82.333-68-133-90-105-33-163-33-112.333 11-163 33-94.834 52-132.501 90-67.5 82.333-89.5 133-33 105-33 163 11 112.333 33 163 51.833 94.834 89.5 132.501 81.834 67.5 132.501 89.5 105 33 163 33zm-235-470h52v261h-52v-261zm107-53h-96v-154h28v65h58v27h-58v36h68v26zm106-140c9.333 10 14 24.002 14 42.002s-4.667 32-14 42c-10 10.667-22.667 16-38 16-10.667 0-19.667-2.333-27-7-8-5.333-14-12.333-18-21-4.667-10.667-7-20.334-7-29.001 0-10.667 2.333-21.334 7-32.001 4-8.667 10.333-15.667 19-21 9.333-4.667 18.333-7 27-7 14.667 0 27 5.667 37 17zm118 .002c10 10.667 15.001 24.669 15.001 42.002 0 16.667-5 30.667-15 42-8.667 10.667-21 16-37 16-10.667 0-19.667-2.333-27-7-8-5.333-14-12.333-18-21-4.667-8.667-7-18.334-7-29.001 0-12.667 2.333-23.334 7-32.001 4-9.333 10.333-16.333 19-21 9.333-4.667 18-7 26-7 15.333 0 27.666 5.667 36.999 17zm128.001 140.002-26-.002v-55c-8 10-17.667 15-29 15-12.667 0-23-5-31-15-8-9.333-12-23.666-12-42.999 0-18.667 4-33 12-43 9.333-10.667 19.333-16 30-16 6 0 11.667 1.667 17 5 5.333 2.667 10.333 7.334 15 14.001v-16h24v154zm12 261.998c0 14-5.167 26.167-15.5 36.5s-22.833 15.5-37.5 15.5h-52l-26 52h-105l-26-52h-52c-14.667 0-27-5.167-37-15.5s-15-22.5-15-36.5v-157c0-14.667 5-27 15-37s22.333-15 37-15h261c14.667 0 27.167 5 37.5 15s15.5 22.333 15.5 37v157zm-296-326c6.667 0 12.667-3 18-9 4.667-5.333 7-13.666 7-24.999 0-12-2.333-20.667-7-26-5.333-6-11.333-9-18-9s-12.334 3-17.001 9c-4.667 5.333-7 14-7 26 0 11.333 2.333 19.666 7 24.999 4.667 6 10.334 9 17.001 9zm119 0c6.667 0 12.667-3.001 18-9.001 4.667-7.333 7-15.666 7-24.999 0-10.667-2.333-19.334-7-26.001-5.333-6-11.333-9-18-9-7.333 0-13 3-17 9-5.333 6.667-8 15.334-8 26.001 0 10 2.667 18.333 8 25 4 6 9.667 9 17 9z"/><glyph glyph-name="circleforrst" unicode="circleforrst" d="M424 717c58 0 112.333-11 163-33s95-51.833 133-89.5 68-81.834 90-132.501 33-105 33-163-11-112.333-33-163-52-95-90-133-82.333-68-133-90-105-33-163-33-112.333 11-163 33-94.834 52-132.501 90-67.5 82.333-89.5 133-33 105-33 163 11 112.333 33 163 51.833 94.834 89.5 132.501S210.333 662 261 684s105 33 163 33zM640 63 424 534 209 63h194v107l-65 22v21l65-21v85h43v-42l43 21v-21l-43-22v-43l86 43v-21l-86-43V63h194z"/><glyph glyph-name="circlefoursquare" unicode="circlefoursquare" d="m423 215 205.999 224v-89l-206-189-92 98-8-3c-9.333-4-18-6-26-6-22 0-40.833 8.333-56.5 25s-23.5 36.667-23.5 60 7.833 43.166 23.5 59.499 34.5 24.5 56.5 24.5c10.667 0 20.834-2.167 30.501-6.5s18-10.333 25-18 12.667-16.667 17-27S376 346.333 376 335c0-10.667-2-21-6-31l-2-6zm.999 503c58 0 112.333-11 163-33s95-51.833 133-89.5 68-81.834 90-132.501 33-105 33-163-11-112.333-33-163-52-95-90-133-82.333-68-133-90-105-33-163-33-112.333 11-163 33-94.834 52-132.501 90-67.5 82.333-89.5 133-33 105-33 163 11 112.333 33 163 51.833 94.834 89.5 132.501S210.332 663 260.999 685s105 33 163 33zm236-203-18.001-19.001-153-164-64 67-27-28c-7.333 22.667-20.166 41.167-38.499 55.5s-39.166 21.5-62.499 21.5c-15.333 0-29.5-3-42.5-9s-24.333-14.167-34-24.5-17.334-22.333-23.001-36-8.5-28.167-8.5-43.5 2.833-29.833 8.5-43.5 13.167-25.667 22.5-36 20.5-18.666 33.5-24.999 26.833-9.5 41.5-9.5l130-137 150 158-16 16 101 80v177z"/><glyph glyph-name="circlefriendsfeed" unicode="circlefriendsfeed" d="M424 719c58 0 112.333-11 163-33s95-51.833 133-89.5 68-81.834 90-132.501 33-105 33-163-11-112.333-33-163-52-95-90-133-82.333-68-133-90-105-33-163-33-112.333 11-163 33-94.834 52-132.501 90-67.5 82.333-89.5 133-33 105-33 163 11 112.333 33 163 51.833 94.834 89.5 132.501S210.333 664 261 686s105 33 163 33zm193-236-69.003.001c-18 0-34.5-5-49.5-15s-27.167-22.667-36.5-38v53h-69c-14 0-27.167-3-39.5-9s-23.166-14.333-32.499-25S304.332 426.167 299 412.5s-8-28.5-8-44.5v-45h-76v-76h76V64h76v183h78V64h76v183h76v76h-76v45c0 11.333 2.833 20.5 8.5 27.5S541.333 406 548 406h69v77zm-165.003-76.999c-2-6-3.667-12-5-18s-2-12.667-2-20v-45h-78v45c0 11.333 2.833 20.5 8.5 27.5s11.5 10.5 17.5 10.5h59z"/><glyph glyph-name="circlefriendstar" unicode="circlefriendstar" d="M424 717c58 0 112.333-11 163-33s95-51.833 133-89.5 68-81.834 90-132.501 33-105 33-163-11-112.333-33-163-52-95-90-133-82.333-68-133-90-105-33-163-33-112.333 11-163 33-94.834 52-132.501 90-67.5 82.333-89.5 133-33 105-33 163 11 112.333 33 163 51.833 94.834 89.5 132.501S210.333 662 261 684s105 33 163 33zm60-353c-.667-11.333.167-25 2.5-41s6.833-27.333 13.5-34c3.333-3.333 7-5 11-5 24 0 36 19 36 57 0 8.667-1.167 17-3.5 25s-5.166 15.333-8.499 22-7.333 12-12 16-9.334 6-14.001 6h-3c-12.667-2-20-17.333-22-46zm-87.999-12c-3.333-10.667-4.166-22-2.499-34s5.5-22 11.5-30c2-3.333 4.667-6.5 8-9.5s7.666-4.833 12.999-5.5h4c11.333 0 19.666 5.333 24.999 16s8.333 22.667 9 36c0 10-2 19.5-6 28.5s-8.667 16.167-14 21.5-10.666 8-15.999 8c-4.667 0-10-1.333-16-4s-11.333-11.667-16-27zm261-74c3.333 18.667 4.002 35.333 2.002 50s-6 25.334-12 32.001c-5.333 6-11.666 9-19 9h-2c-15.332-1.333-25.332-7.5-30-18.5s-9-27.167-13-48.5c-2-10-5-22.5-9-37.5s-10.5-29.333-19.5-43-21-25.167-36-34.5-33.832-13.333-56.5-12c-24.666 1.333-43 5.666-55 12.999s-20.832 16-26.5 26-9.333 20.667-11 32-4.5 22-8.5 32c-1.333 3.333-2.333 6.333-3 9s-1.667 5.334-3 8.001c-3.333 8-8 16.5-14 25.5s-13.333 17.5-22 25.5-18.334 14.667-29.001 20-22.334 8-35.001 8h-66v-49h48c7.333 0 16.333-4.833 27-14.5s18-22.834 22-39.501c11.333-51.333 30.833-90 58.5-116S407 116 449 116h5c33.333.667 62.333 7.167 87 19.5s45.167 27 61.5 44 29 34.667 38 53S655 266 657 278z"/><glyph glyph-name="circlegdgt" unicode="circlegdgt" d="M424 718c58 0 112.333-11 163-33s95-51.833 133-89.5 68-81.834 90-132.501 33-105 33-163-11-112.333-33-163-52-95-90-133-82.333-68-133-90-105-33-163-33-112.333 11-163 33-94.834 52-132.501 90-67.5 82.333-89.5 133-33 105-33 163 11 112.333 33 163 51.833 94.834 89.5 132.501S210.333 663 261 685s105 33 163 33zm209-209-78-154v154l-26 26H241l-26-26V248l26-27h236v-78H241V91l26-27h262l26 27v130l78 131v157zm-339-52h183V300H294v157z"/><glyph glyph-name="circlegithub" unicode="circlegithub" d="M424 718c58 0 112.333-11 163-33s95-51.833 133-89.5 68-81.834 90-132.501 33-105 33-163-11-112.333-33-163-52-95-90-133-82.333-68-133-90-105-33-163-33-112.333 11-163 33-94.834 52-132.501 90-67.5 82.333-89.5 133-33 105-33 163 11 112.333 33 163 51.833 94.834 89.5 132.501S210.333 663 261 685s105 33 163 33zM411 34c20 0 38.667 3 56 9s32.5 14 45.5 24 23.333 21.667 31 35 11.5 27.666 11.5 42.999c0 14.667-3.833 28.667-11.5 42s-18 25-31 35-28.167 18-45.5 24-36 9-56 9c-2 0-4-.167-6-.5s-3.667-.5-5-.5c-3.333 8-5 16-5 24 0 4.667.333 9.834 1 15.501s1.667 8.5 3 8.5h4c16.667 0 32.167 3.167 46.5 9.5s27 14.833 38 25.5 19.667 23.167 26 37.5S523 404 523 420c0 7.333-1.5 15.5-4.5 24.5S511.667 460 507 464l42 23v78l-86-47c-19.333 13.333-40.333 20-63 20-16.667 0-32.167-3.167-46.5-9.5S326.667 513.667 316 503s-19-23.167-25-37.5-9-29.5-9-45.5c0-18.667 4-35.834 12-51.501s18.667-28.834 32-39.501c-7.333-16.667-11-33.667-11-51 0-8 .833-15.833 2.5-23.5s4.167-15.167 7.5-22.5c-17.333-10-31.333-22.667-42-38s-16-31.666-16-48.999c0-15.333 3.833-29.666 11.5-42.999s18-25 31-35 28.167-18 45.5-24 36-9 56-9zm0 153c18 0 33.167-4.167 45.5-12.5s18.5-18.166 18.5-29.499c0-12-6.167-22.167-18.5-30.5s-27.5-12.5-45.5-12.5c-17.333 0-32.333 4.167-45 12.5s-19 18.5-19 30.5c0 11.333 6.333 21.166 19 29.499s27.667 12.5 45 12.5zm-8 178c-15.333 0-28.5 5.333-39.5 16S347 404.667 347 420s5.5 28.333 16.5 39 24.167 16 39.5 16 28.5-5.333 39.5-16 16.5-23.667 16.5-39-5.5-28.333-16.5-39-24.167-16-39.5-16z"/><glyph glyph-name="circlegithubalt" unicode="circlegithubalt" d="M549 313c27.333 0 48.999-9.667 64.999-29 16-20 24-43.667 24-71 0-20.667-3.833-38.334-11.5-53.001s-17.167-26.667-28.5-36-25.333-16.333-42-21c-17.333-5.333-33.5-8.666-48.5-9.999s-32.167-2-51.5-2h-59c-18.667 0-35.667.667-51 2s-31.666 4.666-48.999 9.999c-17.333 4.667-31.333 11.667-42 21-11.333 9.333-20.666 21.333-27.999 36s-11 32.334-11 53.001c0 27.333 8 51 24 71 16 19.333 37.667 29 65 29 5.333 0 13.5-.667 24.5-2l42.5-5c8-1.333 16.667-2.333 26-3s19-1 29-1c9.333 0 18.666.333 27.999 1s18 1.667 26 3c18 2 32.5 3.667 43.5 5s19.167 2 24.5 2zM340.999 158c10.667 12.667 16.835 26.334 18.502 41.001s.5 28.667-3.5 42c-3.333 10-8.5 19-15.5 27s-15.167 12-24.5 12-18-4-26-12c-10-12.667-15.833-26.334-17.5-41.001s-.834-28.667 2.499-42c3.333-10 8.5-19 15.5-27s15.5-12 25.5-12c9.333 0 17.666 4 24.999 12zM563 158c10.667 12.667 16.835 26.334 18.502 41.001s.167 28.667-4.5 42c-2.667 10-7.5 19-14.5 27s-15.167 12-24.5 12-18-4-26-12c-10-12.667-15.833-26.334-17.5-41.001s-.834-28.667 2.499-42c3.333-10 8.5-19 15.5-27s15.5-12 25.5-12c9.333 0 17.666 4 24.999 12zM425.001 719c58 0 112.333-11 163-33s95-51.833 133-89.5 68-82 90-133 33-105.5 33-163.5-11-112.333-33-163-52-95-90-133-82.333-68-133-90-105-33-163-33-112.333 11-163 33-95 52-133 90-68 82.333-90 133-33 105-33 163 11 112.5 33 163.5 52 95.333 90 133 82.333 67.5 133 89.5 105 33 163 33zm269-560c14 28.667 21.002 67.002 21.002 115.002 0 56-15.667 102-47 138 6 18.667 9 38 9 58 0 26-5.667 51.333-17 76-24 0-46-4.667-66-14-9.333-4.667-19.333-10.5-30-17.5s-22.334-15.167-35.001-24.5c-30 8-62.333 12-97 12-18.667 0-36.834-1.167-54.501-3.5s-35.167-5.5-52.5-9.5c-25.333 20-47.333 34.333-66 43-20 9.333-41.667 14-65 14-12-24-18-49.333-18-76 0-20.667 3-40.334 9-59.001-31.333-36.667-47-82.334-47-137.001 0-48 7.333-86.333 22-115 10.667-23.333 27.167-41.833 49.5-55.5s45.5-23.5 69.5-29.5c17.333-5.333 35-9 53-11 9.333-1.333 18.333-2.333 27-3s16.667-1 24-1c7.333-.667 15-1 23-1h56.5c9.667 0 18.834.333 27.501 1s17.834 1.667 27.501 3 20.167 3 31.5 5c23.333 4 43 9.333 59 16 17.333 7.333 33.666 17.5 48.999 30.5s27.666 28.167 36.999 45.5z"/><glyph glyph-name="circlegooglebuzz" unicode="circlegooglebuzz" d="M424 717c58 0 112.333-11 163-33s95-51.833 133-89.5 68-81.834 90-132.501 33-105 33-163-11-112.333-33-163-52-95-90-133-82.333-68-133-90-105-33-163-33-112.333 11-163 33-94.834 52-132.501 90-67.5 82.333-89.5 133-33 105-33 163 11 112.333 33 163 51.833 94.834 89.5 132.501S210.333 662 261 684s105 33 163 33zm0-209c-41.333 0-79.833-8.001-115.5-24.001s-64.167-38-85.5-66l134-128 201 185c-19.333 10.667-40.5 18.834-63.5 24.501S448 508 424 508zM208 393.999c-12.667-21.333-19-45.333-19-72 0-24 5.5-46.833 16.5-68.5s26.833-41.167 47.5-58.5l84 77zm216-258c30 0 58.335 4.168 85.002 12.501s50.667 20.166 72 35.499l-147 140-165-152-1-2c-4-9.333-9.167-18.666-15.5-27.999s-13.833-17-22.5-23c3.333-.667 7.833-1.334 13.5-2.001s12.167-1 19.5-1c32 0 60.667 8.667 86 26l6 3 4-1c11.333-2.667 22.166-4.667 32.499-6s21.166-2 32.499-2zM603.002 201c38 34.667 57.001 75 57.001 121 0 26.667-6.833 52-20.5 76s-32.834 44.667-57.501 62l-128-118z"/><glyph glyph-name="circlegoogleplus" unicode="circlegoogleplus" d="M413 410c0-21.333-4.667-38.332-14-50.999s-24.333-19-45-19c-14 0-26.5 4.167-37.5 12.5S296.333 371.167 289 383.5s-13 25.666-17 39.999-6 27.5-6 39.5c0 19.333 5.333 37 16 53 11.333 14.667 26.666 22 45.999 22 14 0 26.667-4.333 38-13s20-19.667 26-33c6.667-13.333 11.834-27.166 15.501-41.499s5.5-27.833 5.5-40.5zm28-238.999c2-2 3.67-5.665 5.003-10.998 3.333-6.667 5-14.667 5-24 0-14-3-25.667-9-35s-13.833-16.833-23.5-22.5-20.334-9.834-32.001-12.501-23.5-4-35.5-4c-28 0-54.333 6.333-79 19-12 6.667-21.667 15.5-29 26.5s-11 23.833-11 38.5c0 20 5.833 35.667 17.5 47s26.167 19.666 43.5 24.999c12 4 23.5 6.833 34.5 8.5s22.167 2.5 33.5 2.5c3.333 0 6.333-.167 9-.5s5-.5 7-.5l9-7c3.333-1.333 5.666-2.666 6.999-3.999s2.666-2.333 3.999-3l10-7c2.667-2 4.667-3.667 6-5l4-4c1.333-.667 4.333-3.334 9-8.001 3.333-3.333 6-6.333 8-9s4.333-6 7-10zm-15.997 548.002c58 0 112.333-11 163-33s95-51.833 133-89.5 68-82 90-133 33-105.5 33-163.5-11-112.333-33-163-52-95-90-133-82.333-68-133-90-105-33-163-33-112.333 11-163 33-95 52-133 90-68 82.333-90 133-33 105-33 163 11 112.5 33 163.5 52 95.333 90 133 82.333 67.5 133 89.5 105 33 163 33zm26-645c30 26 44.997 55.666 44.997 88.999 0 22-5 40.167-15 54.5s-21 26.666-33 36.999L415 282c-10 8-15 17-15 27 0 12 5.167 22.5 15.5 31.5S436 359.668 446 371c7.333 7.333 13.5 17 18.5 29s7.5 26 7.5 42c0 16.667-4.333 34.334-13 53-8 17.334-19.667 30.667-35 40h43l43 25H371c-19.333 0-39-2-59-6-29.333-6.667-54-21.667-74-45s-30-49.666-30-79c0-32 11-58 33-78 22.667-20.666 49.667-31 81-31h10.5c3.667 0 7.834.334 12.501 1-.667-1.332-1.5-3.5-2.5-6.5l-2.5-7.5c-1.333-2-2-6.332-2-13 0-15.332 6.667-31 20-47-32-.666-64.333-6-97-16-17.333-5.332-32.666-13-45.999-23s-23.333-21.666-30-35c-8-15.332-12-29.665-12-42.998 0-18 4.667-33.333 14-46s21.333-23 36-31 30.334-13.667 47.001-17 32.667-5 48-5c56.667 0 101 14 133 42zM701 479.002h-81v81h-41v-81h-81v-40h81v-82h41v82h81v40z"/><glyph glyph-name="circlegoogletalk" unicode="circlegoogletalk" d="M424 719c58 0 112.333-11 163-33s95-51.833 133-89.5 68-81.834 90-132.501 33-105 33-163-11-112.333-33-163-52-95-90-133-82.333-68-133-90-105-33-163-33-112.333 11-163 33-94.834 52-132.501 90-67.5 82.333-89.5 133-33 105-33 163 11 112.333 33 163 51.833 94.834 89.5 132.501S210.333 664 261 686s105 33 163 33zm-28-231c25.333-3.333 49.002-9.674 71.002-19.007s41-21.166 57-35.499 28.5-30.666 37.5-48.999 13.5-37.5 13.5-57.5c0-25.333-6.833-48.666-20.5-69.999s-32.167-39.666-55.5-54.999c34 12.667 61.167 30.834 81.5 54.501s30.5 50.167 30.5 79.5c0 20.667-5.5 40.334-16.5 59.001s-25.833 34.834-44.5 48.501-40.834 24.5-66.501 32.5-52.834 12-81.501 12h-6zm147.002-307.008c42.667 15.333 77.17 37.835 103.503 67.502s39.5 62.834 39.5 99.501c0 26-6.833 50.333-20.5 73s-32.334 42.5-56.001 59.5-51.5 30.5-83.5 40.5-66 15-102 15-69.833-5.333-101.5-16-59.334-24.834-83.001-42.501-42.334-38.334-56.001-62.001-20.5-48.5-20.5-74.5c0-22.667 5.333-44 16-64s24.5-38 41.5-54 36.167-29.667 57.5-41 42.333-19.333 63-24c-4.667-14-12.5-29.667-23.5-47s-25.833-32-44.5-44c30-3.333 58.667-2 86 4 23.333 4.667 47.5 14.5 72.5 29.5s45.5 38.167 61.5 69.5c-9.333-12-21.333-23.333-36-34-12.667-9.333-28.667-18-48-26s-42.666-13.333-69.999-16c8 10.667 15 21 21 31s11 18.667 15 26l13 25c-20 4.667-39.167 10.667-57.5 18s-35.5 16.166-51.5 26.499-30 21.666-42 33.999-21.333 25.833-28 40.5l-4 20c-1.333 6.667-2 13.667-2 21 0 24.667 5.5 47.667 16.5 69s26.167 39.833 45.5 55.5 42.666 27.834 69.999 36.501 57 13 89 13 61.667-4.167 89-12.5 51-20 71-35 35.5-32.833 46.5-53.5 16.5-43.667 16.5-69c0-34-8.5-65-25.5-93s-43.167-50-78.5-66z"/><glyph glyph-name="circlegowallapin" unicode="circlegowallapin" d="M424 717c58 0 112.333-11 163-33s95-51.833 133-89.5 68-81.834 90-132.501 33-105 33-163-11-112.333-33-163-52-95-90-133-82.333-68-133-90-105-33-163-33-112.333 11-163 33-94.834 52-132.501 90-67.5 82.333-89.5 133-33 105-33 163 11 112.333 33 163 51.833 94.834 89.5 132.501S210.333 662 261 684s105 33 163 33zm37-513c18.667 4 36.161 11.167 52.494 21.5s30.333 22.833 42 37.5 20.834 31 27.501 49 10 37 10 57c0 23.333-4.5 45.166-13.5 65.499s-21.167 38.166-36.5 53.499-33.166 27.5-53.499 36.5-42.166 13.5-65.499 13.5-45.166-4.5-65.499-13.5-38.166-21.167-53.499-36.5-27.333-33.166-36-53.499-13-42.166-13-65.499c0-20 3.333-39 10-57s15.834-34.333 27.501-49 25.5-27.167 41.5-37.5 33.333-17.5 52-21.5l37-144zm-37.006 291c17.333 0 33.666-3.333 48.999-10s28.833-15.667 40.5-27 20.834-24.666 27.501-39.999 10-31.666 10-48.999-3.333-33.666-10-48.999-15.834-28.666-27.501-39.999-25.167-20.333-40.5-27-31.666-10-48.999-10-33.666 3.333-48.999 10-28.666 15.667-39.999 27-20.333 24.666-27 39.999-10 31.666-10 48.999 3.333 33.666 10 48.999 15.667 28.666 27 39.999 24.666 20.333 39.999 27 31.666 10 48.999 10zm0-196c19.333 0 35.833 6.833 49.5 20.5s20.5 30.167 20.5 49.5-6.833 35.833-20.5 49.5-30.167 20.5-49.5 20.5-35.666-6.833-48.999-20.5-20-30.167-20-49.5 6.667-35.833 20-49.5 29.666-20.5 48.999-20.5z"/><glyph glyph-name="circlegowalla" unicode="circlegowalla" d="m277 139-.001-18.5c0-8.333-.667-15.166-2-20.499-.667-.667-1.667-1.334-3-2.001s-3.666-1-6.999-1c-10.667 0-16 4.333-16 13 0 7.333 2.5 14.333 7.5 21s11.833 13.667 20.5 21v-13zm120.999 15c-4.667-6.667-12-11-22-13h-7l1 2c3.333 7.333 7.833 12.5 13.5 15.5s10.167 4.5 13.5 4.5h2c1.333-3.333 1-6.333-1-9zm27 563c58 0 112.333-11 163-33s94.834-51.833 132.501-89.5S788 512.666 810 461.999s33-105 33-163-11-112.333-33-163-51.833-95-89.5-133-81.834-68-132.501-90-105-33-163-33-112.333 11-163 33-95 52-133 90-68 82.333-90 133-33 105-33 163 11 112.333 33 163 52 94.834 90 132.501 82.333 67.5 133 89.5 105 33 163 33zm254-638c3.333 7.333 5.665 16.006 6.998 26.006-3.333 3.333-6.5 6.166-9.5 8.499s-6.167 5.166-9.5 8.499l-8.5 7c-2.333 2-4.833 4.333-7.5 7 0 4-.333 8-1 12l-2 12c-12.667 64.667-40.834 115-84.5 151s-105.5 60.667-185.5 74v5l6.5 48c2.332 17.333 3.665 34 3.998 50s-.667 31-3 45-6.833 25.333-13.5 34c-7.333 10-17.666 15.667-30.999 17h-4c-11.333 0-22.666-4.333-33.999-13s-20.666-27-27.999-55c-6.667 5.333-14 10-22 14s-16.667 6-26 6c-12.667 0-25.334-4-38-12-12-6.667-18.668-17.667-20-33 0-10.667 3.166-22 9.5-34s14.332-23.833 24-35.5 20.333-22.834 32-33.501 22.5-20 32.5-28c-8-5.333-17.333-12.5-28-21.5s-21.334-18.667-32-29-20-21.333-28-33-13-23.167-15-34.5c-3.334-17.333 0-32.333 10-45 10-11.333 23-17 39-17 5.332 0 12 1 20 3s17.166 6.167 27.5 12.5 21.5 15.5 33.5 27.5 24.666 27.667 38 47c2.666-9.333 3.333-19.333 2-30s-7.666-20.334-18.999-29.001l-11-7c-22-16-40.667-30.833-56-44.5s-23-30.167-23-49.5c0-11.333 3.667-20.5 11-27.5s17-10.5 29-10.5c7.333 0 14.5 1.5 21.5 4.5s11.5 7.833 13.5 14.5c3.333 10 5 20.667 5 32 4.667-1.333 9.834-2.333 15.501-3s11.5-1.667 17.5-3c-2.667-14.667-4-31.167-4-49.5s2.333-36.166 7-53.5h25c-5.333 15.334-8 32.5-8 51.5s1.333 35.834 4 50.5c5.333-.666 11.333-.333 18 1 18 3.333 31 11.333 39 24 5.333 9.333 6.333 19.333 3 30-3.333 11.333-11.666 17-24.999 17-8 0-16.833-2.833-26.5-8.5s-17.167-14.167-22.5-25.5c-1.333-2-2.333-3.833-3-5.5s-1.667-3.834-3-6.501c-6 .667-11.833 1.5-17.5 2.5s-10.834 2.167-15.501 3.5c-5.333 1.333-10.333 2.333-15 3l-15 3c5.333 4.667 11.333 9.334 18 14.001l21 15 11 8c10.667 8 18.334 17.167 23.001 27.5s7 20.666 7 30.999-1.333 20.333-4 30-5.667 17.5-9 23.5l-9 19-12-18c-14-23.333-27.167-41.5-39.5-54.5s-23.333-22.833-33-29.5-18-10.834-25-12.501-11.833-2.5-14.5-2.5c-8.667 0-15.334 3-20.001 9-4.667 4.667-6.334 12.334-5 23.001 2 10 7.332 20.5 16 31.5s18.666 21.833 30 32.5 22.665 20.167 33.998 28.5l27 19.5 16 11-16 10c-11.333 8-23 17.333-35 28s-22.833 21.667-32.5 33-17.667 22.166-24 32.499-9.5 19.166-9.5 26.499c0 6 2.333 10.333 7 13 13.333 8 25.166 10.167 35.5 6.5s21.5-11.167 33.5-22.5c-1.334-10-2.167-18.667-2.5-26s-.5-12.333-.5-15c0-12.667 3.333-24.667 10-36s16.667-17 30-17c4 0 8.667 1 14 3 7.333 3.333 12.166 7 14.5 11s3.832 7.667 4.5 11c4 18-7 40-33 66l-11 11c1.332 6.667 3 13.834 5 21.501s4.832 14.834 8.5 21.501 7.833 12 12.5 16 10.334 5.667 17.001 5c6.667-1.333 11.334-4 14.001-8 4.667-6.667 7.834-16.167 9.501-28.5s2.167-26 1.5-41-2-30.333-4-46-4-29.5-6-41.5l-4-30 12-2c79.333-11.333 139.833-33.5 181.5-66.5s68.5-79.833 80.5-140.5c-2.667 1.333-5 2.333-7 3l-6 2c-10.667 3.333-22.5 6.166-35.5 8.499s-26.167 3.5-39.5 3.5c-44 0-73.667-15.667-89-47-8.667-17.333-14.167-36-16.5-56s-1.166-38.333 3.501-55h25c-4.667 14-6.167 30.167-4.5 48.5s6.5 35.5 14.5 51.5c10 22 32.333 33 67 33 12 0 24.167-1.167 36.5-3.5s23.166-4.833 32.499-7.5c6.667-2 14-6.333 22-13-.667-19.333-5.167-35-13.5-47s-17.5-21.333-27.5-28-19.167-11.167-27.5-13.5-12.833-3.5-13.5-3.5l-26-5 14-12h41c15.333 6 30.666 16.167 45.999 30.5s25 34.166 29 59.499c.667 0 1-.167 1-.5s.333-.5 1-.5c4.667-4 9.167-8.167 13.5-12.5s9.166-8.166 14.499-11.499zM291.998 464.006c10.667-11.333 17.502-20.501 20.502-27.501s4.167-11.5 3.5-13.5c0-1.333-1.333-2.666-4-3.999-1.333 0-2.333-.167-3-.5s-1.334-.5-2.001-.5c-4.667 0-8.334 3-11.001 9s-4 12.333-4 19v18z"/><glyph glyph-name="circlegrooveshark" unicode="circlegrooveshark" d="M424 717c58 0 112.333-11 163-33s95-51.833 133-89.5 68-81.834 90-132.501 33-105 33-163-11-112.333-33-163-52-95-90-133-82.333-68-133-90-105-33-163-33-112.333 11-163 33-94.834 52-132.501 90-67.5 82.333-89.5 133-33 105-33 163 11 112.333 33 163 51.833 94.834 89.5 132.501S210.333 662 261 684s105 33 163 33zm0-680c36 0 70 6.833 102 20.5s59.833 32.334 83.5 56.001 42.334 51.5 56.001 83.5 20.5 66 20.5 102-6.833 69.833-20.5 101.5-32.334 59.334-56.001 83.001-51.5 42.334-83.5 56.001-66 20.5-102 20.5-69.833-6.833-101.5-20.5-59.334-32.334-83.001-56.001-42.334-51.334-56.001-83.001-20.5-65.5-20.5-101.5 6.833-70 20.5-102 32.334-59.833 56.001-83.5S290.833 71.167 322.5 57.5 388 37 424 37zm0 497c32.667 0 63.334-6.168 92.001-18.501s53.667-29.166 75-50.499 38.166-46.166 50.499-74.499 18.5-58.833 18.5-91.5c0-19.333-2.333-38.166-7-56.499s-11.334-35.5-20.001-51.5c-12 8-23.833 19.167-35.5 33.5s-22.667 28.833-33 43.5-19.666 28.5-27.999 41.5-14.833 22.167-19.5 27.5c-25.333 28-50.5 51.333-75.5 70s-55.833 33.334-92.5 44.001c-.667-19.333-.667-38.5 0-57.5s.167-37.333-1.5-55-5.5-34.334-11.5-50.001-16-29.5-30-41.5c-6-5.333-13.167-10-21.5-14s-17.166-7.333-26.499-10-18.666-4.5-27.999-5.5-18-1.167-26-.5c-10 26-15 53.333-15 82 0 32.667 6.167 63.167 18.5 91.5s29.166 53.166 50.499 74.499 46.166 38.166 74.499 50.499S391.333 534 424 534z"/><glyph glyph-name="circleheart" unicode="circleheart" d="M424 718c58 0 112.333-11 163-33s95-51.833 133-89.5 68-81.834 90-132.501 33-105 33-163-11-112.333-33-163-52-95-90-133-82.333-68-133-90-105-33-163-33-112.333 11-163 33-94.834 52-132.501 90-67.5 82.333-89.5 133-33 105-33 163 11 112.333 33 163 51.833 94.834 89.5 132.501S210.333 663 261 685s105 33 163 33zm7-627c10.667 0 24.33 5 40.997 15s34.5 23.5 53.5 40.5 37.5 36.5 55.5 58.5 33.5 44.833 46.5 68.5 22.333 47.5 28 71.5 5.5 46.667-.5 68c-10.667 34-27.167 58.333-49.5 73s-45.833 22.334-70.5 23.001c-20 0-36.833-4.167-50.5-12.5s-24.667-17.5-33-27.5-14.666-19.167-18.999-27.5-7.166-12.5-8.499-12.5-4 4.167-8 12.5-10 17.5-18 27.5-18.833 19.167-32.5 27.5-30.5 12.5-50.5 12.5c-24.667 0-48.5-7.333-71.5-22S203.666 447.667 193 413c-6-21.333-5.833-44 .5-68s16.5-47.833 30.5-71.5 30.833-46.5 50.5-68.5 39.334-41.5 59.001-58.5S371.667 116 389 106s31.333-15 42-15z"/><glyph glyph-name="circlehyves" unicode="circlehyves" d="M424 718c58 0 112.333-11 163-33s95-51.833 133-89.5 68-81.834 90-132.501 33-105 33-163-11-112.333-33-163-52-95-90-133-82.333-68-133-90-105-33-163-33-112.333 11-163 33-94.834 52-132.501 90-67.5 82.333-89.5 133-33 105-33 163 11 112.333 33 163 51.833 94.834 89.5 132.501S210.333 663 261 685s105 33 163 33zm193-595c2.667 4 3.831 8.16 3.498 12.493s-1.5 8.5-3.5 12.5-4.5 7.333-7.5 10-5.833 4.667-8.5 6-6.5 1.666-11.5 1-8.5 0-10.5 2c-1.333 1.332-2 6.332-2 15v215c0 12.666-.167 26.5-.5 41.5s1.834 25.5 6.501 31.5c1.333 1.332 3.666 2.665 7 3.998s6.832 2.833 10.5 4.5 7 3.334 10 5.001 4.832 3.5 5.5 5.5c1.332 3.333 1.332 7.666 0 13s-3.167 10.5-5.5 15.5-5.333 9.166-9 12.5-6.834 5-9.5 5h-33c-13.334-2.668-26.334-5-39-7s-24.668-5.668-36-11c-3.334-1.334-6.667-3.167-10-5.5s-5.333-4.833-6-7.5c-3.333-10.667-1.666-19.5 5.001-26.5s13.667-12.167 21-15.5c2-1.333 5.667-2.166 11-2.499s9-1.5 11-3.5c2.667-2.667 3.667-8 3-16s-1.334-14.667-2.001-20c-1.333-13.333-2.166-25.666-2.499-36.999s.5-24.333 2.5-39c.667-4.667 1.5-10.834 2.5-18.5s-.5-13.168-4.5-16.5c-1.333-1.334-3.833-2.167-7.5-2.5s-7.667-.666-12-.999l-13-1c-4.333-.333-7.833-.833-10.5-1.5-21.333-2-39.333-4.5-54-7.5l-50-10.5-10.5-2.5c-4.333-1-7.833-.833-10.5.5-2 .667-3.5 4.167-4.5 10.5s-1.5 10.833-1.5 13.5c-1.333 19.333-1.333 36.333 0 51s2 31.334 2 50.001v18c0 6 .667 10 2 12s3.833 3.667 7.5 5 7.667 2.5 12 3.5 8.333 2.167 12 3.5 6.5 3.333 8.5 6c1.333 3.333 2 7.333 2 12s-.667 8.667-2 12c-3.333 8-8 13.833-14 17.5s-13 5.834-21 6.501-16.833.334-26.5-.999-19.5-3-29.5-5c-14.667-2.667-28-5.834-40-9.5s-20.667-10.168-26-19.5v-9c3.333-7.334 6.833-13 10.5-17s8.5-7.668 14.5-11c3.333-1.334 7.5-2.167 12.5-2.5s8.167-1.5 9.5-3.5 2-7.167 2-15.5v-21.5c0-22 .5-41.667 1.5-59S280 293.332 280 272c.667-18 1.334-37 2.001-57s2-38.667 4-56c.667-6 1.334-12.833 2.001-20.5s0-12.834-2-15.5c-1.333-1.334-3.166-2.167-5.499-2.5s-4.5-.833-6.5-1.5c-5.333-1.333-10.833-3.666-16.5-6.999s-8.834-7.666-9.501-12.999c-1.333-6 1.334-12.667 8.001-20s13.334-11.666 20.001-12.999c4-1.333 7.5-2 10.5-2s7.5.333 13.5 1c7.333.667 16.166 1.667 26.499 3s20.166 3.333 29.499 6 17.5 6.167 24.5 10.5 11.167 9.5 12.5 15.5c.667 7.333-1.666 14-7 20s-10.332 10-15 12c-2 .667-6 .667-12 0s-10 .666-12 4c-1.332 2.666-1.832 6.5-1.5 11.5s.5 9.166.5 12.5c-1.332 7.332-2.5 17.165-3.5 29.498s.168 20.833 3.5 25.5 9 8 17 10 14.334 3.667 19 5c15.334 5.333 28.834 8.833 40.5 10.5l45.5 6.5c2 0 5.334.333 10 1s9.668 1.167 15 1.5 10.167.333 14.5 0 7.166-1.166 8.499-2.499c.667-1.333 1-4.5 1-9.5v-12.5c0-5.333-.167-9.833-.5-13.5s-.166-7.5.5-11.5c0-7.333.668-15.833 2-25.5s.334-16.167-3-19.5c-2.666-2-6.5-3-11.5-3s-9.166-.667-12.5-2c-9.332-4.667-14.332-9.667-15-15-1.332-8 2.668-16.333 12-25s18-13.334 26-14c13.334-1.334 27.667 0 43 4s27.666 8.332 36.999 13l13 4.5c4.667 1.666 7.667 3.5 9 5.5z"/><glyph glyph-name="circleicondock" unicode="circleicondock" d="M424 500c15.333 0 28.5-5.333 39.5-16s16.5-23.334 16.5-38.001c0-15.333-5.5-28.166-16.5-38.499S439.333 392 424 392s-28.333 5.167-39 15.5-16 23.166-16 38.499c0 14.667 5.333 27.334 16 38.001s23.667 16 39 16zm0 218c58 0 112.333-11 163-33s95-51.833 133-89.5 68-81.834 90-132.501 33-105 33-163-11-112.333-33-163-52-95-90-133-82.333-68-133-90-105-33-163-33-112.333 11-163 33-94.834 52-132.501 90-67.5 82.333-89.5 133-33 105-33 163 11 112.333 33 163 51.833 94.834 89.5 132.501S210.333 663 261 685s105 33 163 33zm235-417c1.333 8.667-.662 15.665-5.995 20.998-4.667 5.333-11.334 8-20.001 8h-4l-77-7c-10.667-1.333-17-4.666-19-9.999-.667-1.333-.834-3-.501-5s2.166-4.333 5.499-7c8.667-9.333 17.667-15.333 27-18l7-3-4-6c-2-3.333-6.667-7.666-14-12.999l-61-52-6.5-4.5c-2.333-1.667-4.833-2.5-7.5-2.5-7.333 0-11 5.667-11 17v149l3 1c14 8.667 25 19.667 33 33s12 28 12 44c0 12-2.333 23.5-7 34.5s-11.167 20.5-19.5 28.5-18.166 14.333-29.5 19-23.332 7-36 7-24.5-2.333-35.5-7-20.666-11-29-19-15-17.5-20-28.5-7.5-22.5-7.5-34.5c0-16.667 4.5-32 13.5-46s21.168-24.667 36.5-32l3-2V216c0-11.333-3.666-17-11-17-5.332 0-10 2-14 6l-66 56c-6.666 6-11 10.333-13 13l-5 6 8 3c8.668 2.667 17.668 8.667 27 18 4.668 4.667 6 8.667 4 12-1.332 5.333-7.332 8.666-18 9.999l-78 7h-3c-8.666 0-15.333-2.667-20-8-6-6-8.333-13-7-21l8-75c2-12 6.333-18 13-18 1.333 0 2.833.167 4.5.5s3.5 1.833 5.5 4.5c4.667 4 8.667 8.5 12 13.5s5.666 9.167 6.999 12.5l2 7 7-4c1.333-1.333 3.166-3 5.499-5s5.166-4.667 8.499-8l140-154c6-7.333 13.333-11 22-11 9.333 0 17 3.667 23 11l140 154c4.667 6 9.334 10.333 14.001 13l6 4 3-7c1.333-3.333 3.666-7.5 6.999-12.5s7-9.5 11-13.5c2.667-2.667 4.834-4.167 6.501-4.5s3.167-.5 4.5-.5c2.667 0 5.167 1.333 7.5 4s3.833 7.334 4.5 14.001z"/><glyph glyph-name="circleicq" unicode="circleicq" d="M356 265c-5.333-4-9.834-8-13.501-12s-7.5-7.667-11.5-11l-21-17-5-3c-12-6-23.667-8.333-35-7-10.667 1.333-18 4.666-22 9.999l-2 7 1 6c4.667 11.333 14 20.333 28 27 8.667 4.667 15.334 7.334 20.001 8.001l55 10 4-13zm-108.001 46c-11.333 2-20.001 8-26.001 18-4.667 8.667-5 18.334-1 29.001 5.333 13.333 14 22.666 26 27.999 12.667 6.667 25.334 8.667 38.001 6l19-8 59-42c-6-8-9.667-14.667-11-20l-97-12zm134.999-72c3.333-1.333 6.664-2.832 9.997-4.499s7-2.5 11-2.5c.667-11.333 1.834-23 3.501-35s2.5-24.667 2.5-38v-33c-5.333-13.333-13.666-22.333-24.999-27-12-6.667-24.333-8.334-37-5.001-13.333 4-23.333 11.333-30 22-1.333 3.333-2.666 7-3.999 11s-2 8-2 12l4 15c.667 6.667 4 13 10 19zm-54.002 195.001c-2.667 6-4.832 11.831-6.499 17.498s-1.834 11.5-.501 17.5c.667 12 5 20.333 13 25 4 3.333 9.333 3.333 16 0 12-3.333 22-12.666 30-27.999 2-3.333 3.667-6.666 5-9.999s2.333-7 3-11l14-79-10-3-60 64zm155.002-102.002 68.001 56 8 3c13.333 5.333 25.333 7 36 5 12-.667 20-5.334 24-14.001l3-9-2-7c-4-11.333-14.333-20.666-31-27.999-6.667-2.667-14.334-4.667-23.001-6l-83-10-1 5-2 2zm-46.999 106 .001 26.998v6c4 12.667 12.333 22.667 25 30 12.667 6.667 25.667 7.667 39 3 14-3.333 24-10.666 30-21.999 4-6 6-13.667 6-23l-2-14c-2.667-7.333-6-14-10-20l-61-73c-6.667 4.667-13.334 8.334-20.001 11.001zM464 296.997c0-13.333-4.332-24-12.999-32-10-8.667-20.333-13-31-13-12.667 0-23.334 4.333-32.001 13-8.667 8-13 18.667-13 32 0 12 4.333 22.333 13 31 9.333 8 20 12 32 12 12.667 0 23-4 31-12 8.667-8.667 13-19 13-31zm132.001-9c5.333-1.333 10.169-3.501 14.502-6.501s7.833-7.167 10.5-12.5c6.667-7.333 10-17 10-29l-2-13c-3.333-13.333-11-23-23-29-12.667-6.667-25-7.667-37-3-4.667 1.333-8.334 2.833-11.001 4.5s-5.334 3.834-8.001 6.501l-71 58 5 9 2 8 77 7 27 1zM424.004 717.996c58 0 112.333-11 163-33s95-51.833 133-89.5 68-81.834 90-132.501 33-105 33-163-11-112.333-33-163-52-95-90-133-82.333-68-133-90-105-33-163-33-112.333 11-163 33-94.834 52-132.501 90-67.5 82.333-89.5 133-33 105-33 163 11 112.333 33 163 51.833 94.834 89.5 132.501 81.834 67.5 132.501 89.5 105 33 163 33zm232-499c6 20.667 3.995 40.002-6.005 58.002l-3 5c-2.667 4-5.5 7.833-8.5 11.5s-6.5 6.834-10.5 9.501c-3.333 2.667-7 4.834-11 6.501s-7.667 3.5-11 5.5c10.667 5.333 19.667 11.166 27 17.499s12.666 14.166 16 23.499c2.666 7.333 3 14.166 1 20.499s-3 12.5-3 18.5v1c-10 7.333-16.5 13-19.5 17s-8.834 7.333-17.5 10c-5.334 1.333-10.667 2-16 2s-10.666-.333-15.999-1l-23-5 8 17c6 22 3.667 42.333-7 61l-2 3c-9.333 16-24.666 26.667-45.999 32-20.667 6-40.334 4-59-6-9.334-5.333-18.167-11.833-26.5-19.5s-12.5-16.5-12.5-26.5v-5l-3 4-7 12c-10.667 16.667-24.334 27-41 31-13.334 3.333-26.667 2-40-4-13.333-8.667-22-22.334-26-41.001-3.333-20 .334-38.667 11.001-56l4-7-16 5c-19.333 4.667-38.666 2-57.999-8-18.667-8.667-32-23-40-43-7.333-19.333-6.333-37 3-53 2-3.333 4.333-6.5 7-9.5s5.334-5.5 8.001-7.5c8-8 18.333-13 31-15l4-1-10-9c-9.333-8-15.333-17-18-27-3.333-12.667-1.666-24.667 5.001-36 2.667-4.667 6.667-9 12-13 2.667-2 5.667-3.833 9-5.5s7-2.5 11-2.5c15.333-4 31.333-3.667 48 1l-13-19-3-9c-6.667-20-5-39.667 5-59l8-10 8-10c8-7.333 18-12.333 30-15 21.333-6 41.666-4.333 61 5 18.666 10 31 25.333 37 46v4c13.332-14.667 26.332-23.667 39-27 14.666-4 27.666-2.333 39 5 12 6.667 20 17.334 24 32.001 2.666 14 2.666 29.333 0 46 6.666-4.667 13.666-8 21-10 22-6.667 42-5.334 60 3.999 18 10 30 25.333 36 46zm-151.005-34.998c3.333-5.333 5.831-10.832 7.498-16.499s1.834-11.834.501-18.501c-1.333-12-5.666-20-12.999-24-4-2.667-9.333-3.334-16-2.001-12.667 2.667-22.667 12.334-30 29.001l-8 22-11 58 12 4 9 4 28-28 18-22z"/><glyph glyph-name="circleidentica" unicode="circleidentica" d="M468 311c-8-6.667-13.998-13.332-17.998-19.999-9.333-7.333-19.333-13.333-30-18s-22.334-7-35.001-7c-16 0-31.333 3.667-46 11l-71-29 22 85c-4.667 12.667-7 25-7 37 0 14.667 2.667 28.334 8 41.001s12.666 23.667 21.999 33 20.166 16.666 32.499 21.999 25.5 8 39.5 8 27.167-2.667 39.5-8 23-12.666 32-21.999 16.167-20.333 21.5-33 8-26.334 8-41.001c0-11.333-1.667-21.833-5-31.5S473.333 319.667 468 311zm-43.998 407.002c58 0 112.333-11 163-33s95-51.833 133-89.5 68-81.834 90-132.501 33-105 33-163-11-112.333-33-163-52-95-90-133-82.333-68-133-90-105-33-163-33-112.333 11-163 33-94.834 52-132.501 90-67.5 82.333-89.5 133-33 105-33 163 11 112.333 33 163 51.833 94.834 89.5 132.501 81.834 67.5 132.501 89.5 105 33 163 33zm155-577c16 8.667 29 21.169 39 37.502s15 34.166 15 53.499c0 14.667-2.667 28.334-8 41.001s-12.5 23.667-21.5 33-19.5 16.666-31.5 21.999-25 8-39 8c-1.333 0-2.166-.167-2.499-.5s-.833-.5-1.5-.5c2.667 10.667 4 23.334 4 38.001 0 21.333-4 41.5-12 60.5s-18.667 35.5-32 49.5-29.333 25-48 33-38.334 12-59.001 12-40.167-4-58.5-12-34.333-19-48-33-24.5-30.5-32.5-49.5-12-39.167-12-60.5c0-20.667 4.333-41.334 13-62.001l-29-115 107 35c20.667-8.667 40.667-13 60-13 18 0 35 3 51 9 1.333-23.333 9.333-43.833 24-61.5s32.667-28.834 54-33.501l46-60zm-46 147.002c14.667 0 27-5.169 37-15.502s15-23.166 15-38.499c0-10.667-2.5-20-7.5-28s-11.5-14.333-19.5-19l-15-40-20 34c-12 2.667-22.167 8.834-30.5 18.501s-12.5 21.167-12.5 34.5c0 10 3 19.667 9 29 2 2 3.833 4 5.5 6s3.5 4.333 5.5 7c10 8 21 12 33 12z"/><glyph glyph-name="circleimessage" unicode="circleimessage" d="M424 716c58 0 112.333-11 163-33s95-51.833 133-89.5 68-81.834 90-132.501 33-105 33-163-11-112.333-33-163-52-95-90-133-82.333-68-133-90-105-33-163-33-112.333 11-163 33-94.834 52-132.501 90-67.5 82.333-89.5 133-33 105-33 163 11 112.333 33 163 51.833 94.834 89.5 132.501S210.333 661 261 683s105 33 163 33zm0-617c32.667 0 63.331 5.332 91.998 15.999s53.667 25.167 75 43.5 38.166 40 50.499 65 18.5 51.5 18.5 79.5-6.167 54.5-18.5 79.5-29.166 46.667-50.499 65-46.333 32.833-75 43.5-59.334 16-92.001 16-63.167-5.333-91.5-16-53.166-25.167-74.499-43.5-38.166-40-50.499-65-18.5-51.5-18.5-79.5c0-34 8.667-65.333 26-94s41-52.667 71-72c-2-12-8.167-22.167-18.5-30.5S245.333 93.333 232 92c10.667-2 22-3 34-3 30.667 0 57 7.333 79 22 24.667-8 51-12 79-12z"/><glyph glyph-name="circleitunes" unicode="circleitunes" d="M424 719c58 0 112.333-11 163-33s95-51.833 133-89.5 68-81.834 90-132.501 33-105 33-163-11-112.333-33-163-52-95-90-133-82.333-68-133-90-105-33-163-33-112.333 11-163 33-94.834 52-132.501 90-67.5 82.333-89.5 133-33 105-33 163 11 112.333 33 163 51.833 94.834 89.5 132.501S210.333 664 261 686s105 33 163 33zm0-680c36 0 70 6.833 102 20.5s59.833 32.334 83.5 56.001 42.334 51.5 56.001 83.5 20.5 66 20.5 102-6.833 69.833-20.5 101.5-32.334 59.334-56.001 83.001-51.5 42.334-83.5 56.001-66 20.5-102 20.5-69.833-6.833-101.5-20.5-59.334-32.334-83.001-56.001-42.334-51.334-56.001-83.001-20.5-65.5-20.5-101.5 6.833-70 20.5-102 32.334-59.833 56.001-83.5S290.833 73.167 322.5 59.5 388 39 424 39zm0 497c32.667 0 63.334-6.167 92.001-18.5s53.667-29.166 75-50.499 38.166-46.166 50.499-74.499 18.5-58.833 18.5-91.5-6.167-63.334-18.5-92.001-29.166-53.667-50.499-75-46.333-38.166-75-50.499-59.334-18.5-92.001-18.5-63.167 6.167-91.5 18.5-53.166 29.166-74.499 50.499-38.166 46.333-50.499 75-18.5 59.334-18.5 92.001 6.167 63.167 18.5 91.5 29.166 53.166 50.499 74.499 46.166 38.166 74.499 50.499S391.333 536 424 536zm-79-115 1.002.003v-180c0 1.333-2.833 2.166-8.5 2.499s-10.5.166-14.5-.501c-12.667-1.333-23.167-7.166-31.5-17.499s-11.833-21.833-10.5-34.5c.667-13.333 5.667-24 15-32s20.333-11.333 33-10c12 1.333 22.167 6.5 30.5 15.5s12.166 19.5 11.499 31.5h1v165l131 30v-125c0 1.333-2.833 2.166-8.5 2.499s-10.5.166-14.5-.501c-12.667-1.333-23.167-7-31.5-17s-11.833-21.667-10.5-35c1.333-12.667 6.666-23 15.999-31s20.333-11.333 33-10c12 1.333 22 6.5 30 15.5s12 19.5 12 31.5v236z"/><glyph glyph-name="circlelastfm" unicode="circlelastfm" d="M424 717c58 0 112.333-11 163-33s95-51.833 133-89.5 68-81.834 90-132.501 33-105 33-163-11-112.333-33-163-52-95-90-133-82.333-68-133-90-105-33-163-33-112.333 11-163 33-94.834 52-132.501 90-67.5 82.333-89.5 133-33 105-33 163 11 112.333 33 163 51.833 94.834 89.5 132.501S210.333 662 261 684s105 33 163 33zm142-557c26.667 0 49.004 7.837 67.004 23.504s27 35.167 27 58.5c0 22.667-5.833 39.667-17.5 51s-29.834 20.666-54.501 27.999c-18 6-32.833 11.5-44.5 16.5s-17.5 14.833-17.5 29.5c0 10 3.5 18.333 10.5 25s16.167 10 27.5 10c15.333 0 28.666-7.333 39.999-22l30 15c-15.333 27.333-38 41-68 41-23.333 0-41.833-6.5-55.5-19.5s-20.5-30.167-20.5-51.5 6.833-37.5 20.5-48.5 34.5-21.167 62.5-30.5c15.333-5.333 27.333-10.5 36-15.5s13-14.167 13-27.5-5.5-24.5-16.5-33.5-25.167-13.167-42.5-12.5-29.833 5.334-37.5 14-14.5 20.335-20.5 35.002l-16 36-14.5 33c-4.333 10-7.833 18.5-10.5 25.5s-4.334 11.167-5.001 12.5c-12 28-29.167 49.333-51.5 64s-48.5 22-78.5 22c-19.333 0-37.5-3.667-54.5-11s-31.833-17.333-44.5-30-22.667-27.5-30-44.5-11-35.167-11-54.5 3.667-37.5 11-54.5 17.333-31.833 30-44.5 27.5-22.667 44.5-30 35.167-11 54.5-11c22 0 42.333 4.667 61 14s34.667 21.666 48 36.999l-18 42c-9.333-16.667-22-30-38-40s-33.667-15-53-15c-14 0-27.167 2.667-39.5 8s-23.166 12.666-32.5 21.999-16.665 20.166-21.998 32.499-8 25.5-8 39.5 2.667 27.167 8 39.5 12.666 23.166 21.999 32.499S277.168 387.667 289.5 393s25.5 8 39.5 8c21.333 0 40.333-5.667 57-17s28.667-26 36-44l45-102 5-11c9.333-21.333 21.166-37.833 35.499-49.5S541.333 160 566 160z"/><glyph glyph-name="circlelinkedin" unicode="circlelinkedin" d="M424 716c58 0 112.333-11 163-33s95-51.833 133-89.5 68-81.834 90-132.501 33-105 33-163-11-112.333-33-163-52-95-90-133-82.333-68-133-90-105-33-163-33-112.333 11-163 33-94.834 52-132.501 90-67.5 82.333-89.5 133-33 105-33 163 11 112.333 33 163 51.833 94.834 89.5 132.501S210.333 661 261 683s105 33 163 33zM294 402H189V62h105v340zm-53 27c14.667 0 27.167 5 37.5 15s15.5 22.333 15.5 37-5.167 27-15.5 37-22.833 15-37.5 15-27-5-37-15-15-22.333-15-37 5-27 15-37 22.333-15 37-15zm419-170c0 24-6.668 47.498-20.001 70.498s-30.666 40.5-51.999 52.5c-19.333 10.667-41.833 16.334-67.5 17.001S471.333 395.333 450 386v16H346V62h104v208l44 21c5.333 2.667 12.5 4 21.5 4s16.167-1.667 21.5-5c4-2 8-6.333 12-13s6-12.667 6-18V62h105v197z"/><glyph glyph-name="circlemeetup" unicode="circlemeetup" d="M388 275c-3.333 0-5.666.998-6.999 2.998.667 5.333 1.667 9.833 3 13.5l4 11.5c1.333 2.667 2.666 6 3.999 10l2 4 1-4c1.333-5.333 1.833-11.666 1.5-18.999S394.667 280.333 392 275h-4zm316 15.998c-3.333-9.333-8.499-17.668-15.499-25.001s-15.167-12.333-24.5-15c3.333 15.333 7.166 31 11.499 47s12.166 29 23.499 39l1 2 1-2c4.667-8.667 6.834-17.167 6.501-25.5s-1.5-15.166-3.5-20.499zm-392.999-9.002c-.667.667-1.998.999-3.998.999h-3v2c2 10.667 6 20 12 28 1.333-5.333 2.166-10.666 2.499-15.999s.166-10-.501-14l-2-1h-5zm113.002 435.999c58 0 112.333-11 163-33s95-51.833 133-89.5 68-81.834 90-132.501 33-105 33-163-11-112.333-33-163-52-95-90-133-82.333-68-133-90-105-33-163-33-112.333 11-163 33-94.834 52-132.501 90-67.5 82.333-89.5 133-33 105-33 163 11 112.333 33 163 51.833 94.834 89.5 132.501 81.834 67.5 132.501 89.5 105 33 163 33zm-153-485c-3.333 10.667-6.336 21.836-9.003 33.503s-5 23.167-7 34.5l-10 44c-3.333 14.667-7.666 28-12.999 40h-4c-4 0-7.333.333-10 1-1.333 0-2.833.167-4.5.5s-3.167.5-4.5.5h-4c-8-11.333-14-25.166-18-41.5s-7.667-32.5-11-48.5c-2.667 4-4.834 8-6.5 12s-3.5 8-5.5 12l-10.5 20.5c-3.668 7-7.5 13.168-11.5 18.5h-6c-9.334 0-17.667-1.332-25-4v-21c-.667-18-.667-35 0-51s3-31.332 7-46c1.333-.666 3-1 5-1 5.333 0 10.333 1 15 3s8 3.668 10 5c0 4.668-.167 8.835-.5 12.502s-.833 7.5-1.5 11.5c0 2-.167 4-.5 6s.167 4.333 1.5 7c6.667-8.667 12.334-17.334 17.001-26.001 1.333-3.333 3-6.333 5-9s3.667-5.334 5-8.001h5c2 0 4 .167 6 .5s3.667.5 5 .5c2.667.667 6.667 1 12 1l3-1c2.667 6 4.167 12.833 4.5 20.5s.5 15.5.5 23.5c0 7.333.333 14.666 1 21.999s2.667 13.666 6 18.999c3.333-16.667 7.333-32.834 12-48.501s10.334-31.834 17.001-48.501c2 0 4.167.333 6.5 1s4.833 1.334 7.5 2c2 1.334 4.667 2 8 2h3zM319 217.997c6.667 0 13.334.832 20.001 2.499s12.667 3.5 18 5.5c-2 4-5.333 6-10 6-3.333 0-7.666-.667-12.999-2-4-2-8-3-12-3-1.333 0-2.333.333-3 1-5.333 0-9 2.333-11 7-5.333 8.667-6 20.334-2 35.001 3.333-.667 7.166-1.334 11.499-2.001s9.166-1 14.499-1h9c2.667 10 3.5 21.333 2.5 34s-2.5 23-4.5 31c-2.667 0-5.334.667-8.001 2-5.333 2-10.333 3-15 3h-3c-10-1.333-18-7.666-24-18.999s-9.667-23.333-11-36c-1.333-12-.5-24.167 2.5-36.5s10.167-20.833 21.5-25.5c2.667-.667 5.334-1.167 8.001-1.5s5.667-.5 9-.5zm85 2.999c12.667 0 22.335 3.333 29.002 10-1.333 4-4.666 6.667-9.999 8-4-7.333-10.333-11-19-11s-16 4-22 12c-5.333 7.333-6 15.666-2 24.999l10-2a50.84 50.84 0 0 1 9.999-1c4 0 8.667.667 14 2-.667 7.333-.834 14-.501 20s1.166 12 2.499 18c1.333 4.667 2.166 9.5 2.5 14.5s.832 10.5 1.5 16.5c-9.334 7.333-18.667 11.333-28 12-26-20-38-51.333-36-94 1.333-9.333 7-16.666 17-21.999s20.333-8 31-8zm95.001 64c4.667.667 8.998 1.166 12.998 1.499s7 1.5 9 3.5c-3.333 2-6.333 5-9 9l-7.5 7.5c-2.333 2.333-5.5 4.166-9.5 5.499-1.333 0-2-1.667-2-5-.667-1.333-1.167-2.833-1.5-4.5s-1.5-2.5-3.5-2.5h-3v1c.667 6.667.834 13.834.501 21.501s-.833 15.834-1.5 24.501c-.667 12-1.167 24-1.5 36s.5 23 2.5 33c-2.667 3.333-6.167 6.5-10.5 9.5s-10.166 4.5-17.499 4.5c-2 0-3 .333-3 1-4-12.667-5.5-26.334-4.5-41.001s2.167-29.334 3.5-44.001c1.333-8.667 2.333-17 3-25s.334-15.667-.999-23c-4 0-7 .333-9 1h-7c-4 0-7-1-9-3-1.333-1.333-2-4.333-2-9 3.333-2 7.166-3.333 11.499-4s9.166-1 14.499-1l7-1c0-5.333.167-10 .5-14s.5-8.333.5-13c.667-6 1.167-12.167 1.5-18.5s.5-13.166.5-20.499h7c3.333.667 8 1 14 1 0 5.333-.167 10.333-.5 15s-.5 9.334-.5 14.001c0 6.667-.167 13-.5 19s-.166 12.333.5 19c3.334 1.333 8.334 2 15 2zm101.998-30.001c4 6.667 7.33 13.499 9.997 20.499s3.334 16.167 2.001 27.5l-10.5 8c-3.667 2.667-7.5 4-11.5 4h-4l-1-7c0-6.667-.167-13.667-.5-21s-1.333-14.333-3-21-4.167-12.5-7.5-17.5-8-8.5-14-10.5c-1.333 7.333-2.166 15.166-2.499 23.499s-.833 16.5-1.5 24.5v20c-1.333.667-2.5 1.334-3.5 2.001s-2.167 1.334-3.5 2.001c-3.333 2-6.333 3.667-9 5s-6.667 2.333-12 3c-3.333-44.667 1-73.667 13-87 4.667-5.333 11.334-8 20.001-8 5.333 0 11 1 17 3l3 4c4 6.667 8.333 12 13 16zm128.997 21.999c4 8 6.67 17.997 8.004 29.997s-1.334 25.333-8.001 40c-6.667 4.667-13 7.834-19 9.501s-11.667 2.5-17 2.5c-12.667 0-24-6-34-18-5.333-6-9.5-13.333-12.5-22s-5.5-17.5-7.5-26.5-3.5-17.833-4.5-26.5l-2.5-22c-.667-.667-1.667-1-3-1-4.667-1.333-7.334-2.666-8.001-3.999 5.333-6 8.666-13.833 9.999-23.5l4-28.5c1.333-8 2.333-15.667 3-23s2.334-13.666 5-18.999c1.334-.667 4.667-1 10-1h7c4.667 0 8-.333 10-1-3.333 9.333-5.833 20.333-7.5 33s-1.834 28-.501 46c14.667 3.333 28 10 40 20s21 21.667 27 35z"/><glyph glyph-name="circlemetacafe" unicode="circlemetacafe" d="M424 718c58 0 112.333-11 163-33s95-51.833 133-89.5 68-81.834 90-132.501 33-105 33-163-11-112.333-33-163-52-95-90-133-82.333-68-133-90-105-33-163-33-112.333 11-163 33-94.834 52-132.501 90-67.5 82.333-89.5 133-33 105-33 163 11 112.333 33 163 51.833 94.834 89.5 132.501S210.333 663 261 685s105 33 163 33zm41-636 12 38.5 8 24.5c-3.333 2.667-10.666 8-21.999 16s-22.666 16.667-33.999 26l-45 34h125c1.333 0 4.166 6 8.499 18s8.833 25.333 13.5 40c5.333 17.333 11 37 17 59 6-22 11.667-41.667 17-59 4.667-14.667 9.167-28 13.5-40s7.166-18 8.499-18h66L548 535l-85-255H189zm126 68 69 52h-86l-26 80-27-80h-85l69-52-26-86 69 54 69-54z"/></font>
</defs>
</svg>
